<?xml version="1.0" encoding="UTF-8"?>
<svg xmlns="http://www.w3.org/2000/svg" xmlns:xlink="http://www.w3.org/1999/xlink" version="1.2" >
<font id="Executive Medium Regular">
<font-face  font-family="Executive Medium" units-per-em="1000" ascent="780" descent="-220" font-style="normal" font-weight="500" font-stretch="normal" cap-height="710" x-height="491" underline-position="-126" underline-thickness="48" />
<missing-glyph  horiz-adv-x="644" d="M50 289 L359 598 Q375 589 385 575 L50 240 L50 289 Z M50 191 L397 538 L397 523 Q397 506 387.5 492 Q378 478 364 465 Q350 452 334 440 Q318 428 305 415 Q282 393 269 361 L50 142 L50 191 Z M55 0 L316 261 L365 261 L272 168 L249 168 L249 145 L104 0 L55 0 Z M594 441 L594 392 L370 168 L321 168 L594 441 Z M50 387 L198 535 L237 533 Q237 560 256 584 Q275 608 312 608 L320 608 L50 338 L50 387 Z M349 0 L382 33 L384 33 L384 35 L594 245 L594 196 L398 0 L349 0 Z M594 343 L594 294 L384 84 L384 133 L594 343 Z M50 93 L256 299 L256 261 L267 261 L50 44 L50 93 Z M246 779 L295 779 L251 735 Q197 721 158 681.5 Q119 642 104 588 L50 534 L50 583 L246 779 Z M594 539 L594 490 L378 274 L378 281 Q378 297 383 307.5 Q388 318 397 327 Q406 336 419 345 Q432 354 448 366 Q456 372 468.5 381.5 Q481 391 494.5 404.5 Q508 418 519.5 437 Q531 456 537 482 L594 539 Z M148 779 L197 779 L50 632 L50 681 L148 779 Z M447 0 L594 147 L594 98 L496 0 L447 0 Z M540 779 L589 779 L485 675 Q472 687 459 698 L540 779 Z M50 485 L106 541 L152 538 L50 436 L50 485 Z M594 735 L594 686 L524 616 Q517 631 506 647 L594 735 Z M153 0 L249 96 L249 47 L202 0 L153 0 Z M442 779 L491 779 L429 717 Q412 726 395 732 L442 779 Z M594 637 L594 588 L542 536 Q542 547 540 557.5 Q538 568 536 579 L594 637 Z M344 779 L393 779 L355 741 Q348 742 341 742.5 Q334 743 327 743 Q324 743 320.5 742.5 Q317 742 314 742 L307 742 L344 779 Z M251 0 L284 33 L333 33 L300 0 L251 0 Z M594 0 L545 0 L594 49 L594 0 Z M99 779 L50 730 L50 779 L99 779 Z " />
<glyph glyph-name="NULL" d="" />
<glyph glyph-name="nonmarkingreturn" unicode="&#xd;" horiz-adv-x="500" d="" />
<glyph glyph-name="space" unicode="&#x20;" horiz-adv-x="300" d="" />
<glyph glyph-name="scaron" unicode="&#x161;" horiz-adv-x="531" d="M470 145 Q470 66 418 26.5 Q366 -13 264 -13 Q208 -13 169.5 -0.5 Q131 12 107 33 Q83 54 71.5 82 Q60 110 57 141 L166 153 Q173 103 199.5 85 Q226 67 267 67 Q314 67 336.5 85 Q359 103 359 133 Q359 166 335.5 180 Q312 194 276 204 L210 222 Q182 229 156 239 Q130 249 110.5 264.5 Q91 280 79.5 303.5 Q68 327 68 363 Q68 429 119.5 466 Q171 503 264 503 Q352 503 401 465 Q450 427 455 366 L351 354 Q346 389 326 406.5 Q306 424 261 424 Q221 424 198.5 410.5 Q176 397 176 372 Q176 343 194 330.5 Q212 318 250 308 L319 290 Q352 281 380 270 Q408 259 428 242 Q448 225 459 201.5 Q470 178 470 145 Z M259 645 L379 730 L419 682 L259 548 L98 683 L139 730 L259 645 Z " />
<glyph glyph-name="Yacute" unicode="&#xdd;" horiz-adv-x="588" d="M356 297 L356 0 L237 0 L237 297 L17 710 L156 710 L297 427 L438 710 L571 710 L356 297 Z M194 765 L170 811 L388 951 L430 863 L194 765 Z " />
<glyph glyph-name="yacute" unicode="&#xfd;" horiz-adv-x="509" d="M270 -92 Q260 -119 247.5 -141 Q235 -163 217.5 -178.5 Q200 -194 175 -202.5 Q150 -211 114 -211 Q54 -211 -6 -175 L25 -102 Q49 -114 66.5 -120 Q84 -126 109 -126 Q130 -126 144 -115 Q158 -104 168 -86.5 Q178 -69 185.5 -46 Q193 -23 201 1 L19 491 L137 491 L223 233 Q236 192 242 170 Q248 148 253 129 L255 129 Q260 154 269 183.5 Q278 213 288 242 L369 491 L485 491 L270 -92 Z M149 550 L125 596 L343 736 L385 648 L149 550 Z " />
<glyph glyph-name="Thorn" unicode="&#xde;" horiz-adv-x="611" d="M571 399 Q571 352 556 312.5 Q541 273 511 244.5 Q481 216 436.5 200.5 Q392 185 332 185 L217 185 L217 0 L98 0 L98 710 L217 710 L217 608 L332 608 Q387 608 431 593 Q475 578 506 550.5 Q537 523 554 484.5 Q571 446 571 399 Z M450 396 Q450 447 419.5 480 Q389 513 326 513 L217 513 L217 280 L321 280 Q390 280 420 310 Q450 340 450 396 Z " />
<glyph glyph-name="thorn" unicode="&#xfe;" horiz-adv-x="584" d="M417 247 Q417 336 387.5 377 Q358 418 307 418 Q254 418 224.5 374.5 Q195 331 195 245 Q195 158 224.5 115 Q254 72 308 72 Q358 72 387.5 114 Q417 156 417 247 Z M197 524 Q197 495 196.5 470 Q196 445 195 427 L197 427 Q212 457 247 480 Q282 503 330 503 Q373 503 409.5 485.5 Q446 468 472.5 434.5 Q499 401 513.5 352.5 Q528 304 528 243 Q528 181 513.5 133.5 Q499 86 472.5 53.5 Q446 21 410 4 Q374 -13 332 -13 Q286 -13 251 8.5 Q216 30 197 63 L195 63 Q196 46 196.5 23 Q197 0 197 -19 L197 -200 L90 -200 L90 710 L197 710 L197 524 Z " />
<glyph glyph-name="Zcaron" unicode="&#x17d;" horiz-adv-x="583" d="M55 0 L55 97 L385 611 Q367 610 348 610 L271 610 L68 610 L68 710 L519 710 L519 612 L188 99 L221 99 Q236 99 255 99.5 Q274 100 294 100 L532 100 L532 0 L55 0 Z M291 859 L411 944 L451 896 L291 762 L130 897 L171 944 L291 859 Z " />
<glyph glyph-name="zcaron" unicode="&#x17e;" horiz-adv-x="506" d="M46 0 L46 73 L314 409 Q300 408 284 408 Q270 407 253 407 Q236 407 219 407 L65 407 L65 491 L455 491 L455 418 L188 82 Q203 82 220 83 Q234 83 250.5 83.5 Q267 84 284 84 L464 84 L464 0 L46 0 Z M262 645 L382 730 L422 682 L262 548 L101 683 L142 730 L262 645 Z " />
<glyph glyph-name="onehalf" unicode="&#xbd;" horiz-adv-x="852" d="M772 264 Q772 241 765.5 219.5 Q759 198 740 174 Q721 150 688 123.5 Q655 97 603 66 Q617 67 632 67.5 Q647 68 661 68 L769 68 L769 0 L504 0 L504 69 Q547 96 579 119.5 Q611 143 646 174 Q664 190 673.5 202.5 Q683 215 687.5 225 Q692 235 693 244 Q694 253 694 261 Q694 278 680 292.5 Q666 307 642 307 Q617 307 598.5 292 Q580 277 580 241 L503 247 Q503 277 514 300 Q525 323 543.5 339 Q562 355 587 363.5 Q612 372 641 372 Q701 372 736.5 342 Q772 312 772 264 Z M271 695 L271 329 L192 329 L192 595 Q172 575 151 557 Q130 539 97 513 L52 569 Q87 596 126.5 630 Q166 664 198 695 L271 695 Z M656 698 Q547 513 439 330.5 Q331 148 222 -37 L163 -4 L599 732 L656 698 Z " />
<glyph glyph-name="threequarters" unicode="&#xbe;" horiz-adv-x="855" d="M353 438 Q353 386 314 354.5 Q275 323 214 323 Q154 323 116 349.5 Q78 376 73 429 L151 438 Q156 386 215 386 Q239 386 256.5 399.5 Q274 413 274 439 Q274 465 257.5 481 Q241 497 195 497 L167 497 L167 550 L195 550 Q216 550 229.5 554 Q243 558 250.5 565 Q258 572 260.5 580.5 Q263 589 263 598 Q263 613 247.5 625 Q232 637 212 637 Q189 637 174 625.5 Q159 614 157 593 L79 600 Q81 624 92.5 642.5 Q104 661 122 674 Q140 687 163 694 Q186 701 211 701 Q271 701 306 672.5 Q341 644 341 604 Q341 572 323 554 Q305 536 279 530 L279 527 Q307 519 330 498 Q353 477 353 438 Z M743 78 L743 0 L665 0 L665 78 L507 78 L507 132 L669 366 L743 366 L743 138 L797 138 L797 78 L743 78 Z M665 219 Q665 235 665 243 Q665 251 666 268 L664 268 Q657 254 648.5 241.5 Q640 229 631 216 L577 138 L665 138 L665 219 Z M702 698 Q593 513 485 330.5 Q377 148 268 -37 L209 -4 L645 732 L702 698 Z " />
<glyph glyph-name="minus" unicode="&#x2212;" horiz-adv-x="575" d="M51 216 L51 297 L525 297 L525 216 L51 216 Z " />
<glyph glyph-name="multiply" unicode="&#xd7;" horiz-adv-x="575" d="M287 199 L130 43 L73 100 L229 257 L73 413 L130 471 L287 314 L443 471 L501 413 L344 257 L501 100 L443 43 L287 199 Z " />
<glyph glyph-name="lslash" unicode="&#x142;" horiz-adv-x="292" d="M92 272 L5 219 L5 301 Q27 315 48.5 328 Q70 341 92 354 L92 710 L199 710 L199 420 L296 479 L296 397 L199 338 L199 0 L92 0 L92 272 Z " />
<glyph glyph-name="exclam" unicode="&#x21;" horiz-adv-x="365" d="M239 710 Q237 587 233 490.5 Q229 394 225 326 Q220 247 215 186 L149 186 Q142 247 137 326 Q132 394 128 490.5 Q124 587 122 710 L239 710 Z M119 0 L119 123 L246 123 L246 0 L119 0 Z " />
<glyph glyph-name="quotedbl" unicode="&#x22;" horiz-adv-x="468" d="M126 388 L103 588 L103 710 L196 710 L196 588 L172 388 L126 388 Z M294 388 L271 588 L271 710 L364 710 L364 588 L341 388 L294 388 Z " />
<glyph glyph-name="numbersign" unicode="&#x23;" horiz-adv-x="580" d="M575 424 L445 424 L417 279 L534 279 L534 203 L403 203 L366 0 L281 0 L318 203 L209 203 L171 0 L86 0 L123 203 L5 203 L5 279 L137 279 L164 424 L47 424 L47 500 L179 500 L215 694 L300 694 L265 500 L373 500 L409 694 L494 694 L459 500 L575 500 L575 424 Z M250 424 L223 279 L332 279 L359 424 L250 424 Z " />
<glyph glyph-name="percent" unicode="&#x25;" horiz-adv-x="942" d="M838 184 Q838 134 826 98 Q814 62 793.5 39 Q773 16 746.5 5 Q720 -6 691 -6 Q662 -6 635.5 5 Q609 16 589 39 Q569 62 557 98 Q545 134 545 184 Q545 234 557 269.5 Q569 305 589 328 Q609 351 635.5 361.5 Q662 372 691 372 Q720 372 746.5 361.5 Q773 351 793.5 328 Q814 305 826 269.5 Q838 234 838 184 Z M760 184 Q760 252 741.5 279.5 Q723 307 691 307 Q659 307 640.5 279.5 Q622 252 622 184 Q622 116 640.5 87.5 Q659 59 691 59 Q723 59 741.5 87.5 Q760 116 760 184 Z M397 513 Q397 463 385 427 Q373 391 353 368 Q333 345 306.5 334 Q280 323 251 323 Q222 323 195 334 Q168 345 148 368 Q128 391 116 427 Q104 463 104 513 Q104 563 116 598.5 Q128 634 148 657 Q168 680 195 690.5 Q222 701 251 701 Q280 701 306.5 690.5 Q333 680 353 657 Q373 634 385 598.5 Q397 563 397 513 Z M320 513 Q320 581 301.5 608.5 Q283 636 251 636 Q219 636 200.5 608.5 Q182 581 182 513 Q182 445 200.5 416.5 Q219 388 251 388 Q283 388 301.5 416.5 Q320 445 320 513 Z M714 698 Q605 513 497 330.5 Q389 148 280 -37 L221 -4 L657 732 L714 698 Z " />
<glyph glyph-name="ampersand" unicode="&#x26;" horiz-adv-x="647" d="M76 184 Q76 259 113 313.5 Q150 368 219 415 L199 446 Q183 471 165 502.5 Q147 534 147 577 Q147 606 158.5 632 Q170 658 191.5 678 Q213 698 243.5 709.5 Q274 721 311 721 Q356 721 387.5 707.5 Q419 694 439.5 673 Q460 652 469.5 626.5 Q479 601 479 577 Q479 546 470.5 520.5 Q462 495 446 473 Q430 451 406 431.5 Q382 412 351 392 L453 236 Q456 248 457 262 Q458 276 458 287 Q458 303 456.5 316 Q455 329 452 344 L544 344 Q546 327 547.5 312.5 Q549 298 549 282 Q549 244 540.5 206.5 Q532 169 517 143 L613 0 L490 0 L450 61 Q426 33 383.5 10.5 Q341 -12 275 -12 Q234 -12 198 2 Q162 16 135 42 Q108 68 92 104 Q76 140 76 184 Z M283 77 Q327 77 355.5 95.5 Q384 114 400 137 L268 339 Q222 304 202 269 Q182 234 182 189 Q182 137 210.5 107 Q239 77 283 77 Z M300 468 Q348 499 363.5 523.5 Q379 548 379 576 Q379 602 362 620 Q345 638 314 638 Q287 638 269 619 Q251 600 251 576 Q251 556 257 540.5 Q263 525 275 506 L300 468 Z " />
<glyph glyph-name="quotesingle" unicode="&#x27;" horiz-adv-x="324" d="M138 388 L115 588 L115 710 L208 710 L208 588 L184 388 L138 388 Z " />
<glyph glyph-name="parenleft" unicode="&#x28;" horiz-adv-x="367" d="M190 269 Q190 155 224.5 47 Q259 -61 340 -172 L275 -219 Q180 -104 132 14.5 Q84 133 84 269 Q84 404 132 522.5 Q180 641 275 757 L340 710 Q259 599 224.5 490.5 Q190 382 190 269 Z " />
<glyph glyph-name="parenright" unicode="&#x29;" horiz-adv-x="367" d="M177 269 Q177 382 142.5 490.5 Q108 599 27 710 L92 757 Q186 641 234.5 522.5 Q283 404 283 269 Q283 133 234.5 14.5 Q186 -104 92 -219 L27 -172 Q108 -61 142.5 47 Q177 155 177 269 Z " />
<glyph glyph-name="asterisk" unicode="&#x2a;" horiz-adv-x="452" d="M404 620 L369 558 L305 596 Q297 601 288.5 607 Q280 613 273 618 Q265 624 257 631 Q258 622 260 611 Q261 602 262 591 Q263 580 263 570 L263 495 L189 495 L189 570 Q189 592 192 610 Q194 621 196 631 Q188 624 179 618 Q171 613 163 606.5 Q155 600 148 596 L81 557 L47 619 L113 657 Q121 662 131 666 Q141 670 149 673 Q159 677 168 679 Q159 682 149 686 Q141 689 131 693 Q121 697 113 702 L48 740 L82 802 L148 764 Q156 759 165 753 Q174 747 181 742 Q189 736 196 729 Q194 738 192 749 Q190 757 189.5 767.5 Q189 778 189 788 L189 864 L263 864 L263 788 Q263 778 262 767.5 Q261 757 259 749 Q257 738 256 729 Q264 735 272 741 Q279 746 287.5 752 Q296 758 304 763 L368 802 L403 740 L338 701 Q330 696 321 692 Q312 688 304 685 Q295 681 287 679 Q295 677 304 673 Q312 670 321 666.5 Q330 663 338 658 L404 620 Z " />
<glyph glyph-name="plus" unicode="&#x2b;" horiz-adv-x="575" d="M328 216 L328 23 L246 23 L246 216 L50 216 L50 297 L246 297 L246 490 L328 490 L328 297 L524 297 L524 216 L328 216 Z " />
<glyph glyph-name="comma" unicode="&#x2c;" horiz-adv-x="326" d="M223 41 Q223 -6 218 -37.5 Q213 -69 203 -91.5 Q193 -114 178.5 -130 Q164 -146 146 -162 L112 -127 Q141 -100 151 -73.5 Q161 -47 161 -8 L161 0 L102 0 L102 124 L223 124 L223 41 Z " />
<glyph glyph-name="hyphen" unicode="&#x2d;" horiz-adv-x="451" d="M76 241 L76 333 L375 333 L375 241 L76 241 Z " />
<glyph glyph-name="period" unicode="&#x2e;" horiz-adv-x="326" d="M102 0 L102 124 L223 124 L223 0 L102 0 Z " />
<glyph glyph-name="slash" unicode="&#x2f;" horiz-adv-x="471" d="M124 -16 L28 -16 L351 726 L447 726 L124 -16 Z " />
<glyph glyph-name="zero" unicode="0" horiz-adv-x="575" d="M531 345 Q531 266 516.5 200.5 Q502 135 472 87.5 Q442 40 396.5 13.5 Q351 -13 288 -13 Q225 -13 179 13.5 Q133 40 103 87.5 Q73 135 58.5 200.5 Q44 266 44 345 Q44 424 58.5 489.5 Q73 555 103 602 Q133 649 179 675.5 Q225 702 288 702 Q351 702 396.5 675.5 Q442 649 472 602 Q502 555 516.5 489.5 Q531 424 531 345 Z M420 345 Q420 474 387.5 542 Q355 610 288 610 Q219 610 187 542 Q155 474 155 345 Q155 215 187 147 Q219 79 288 79 Q357 79 388.5 147 Q420 215 420 345 Z " />
<glyph glyph-name="one" unicode="1" horiz-adv-x="575" d="M93 92 L272 92 L272 545 Q235 510 194.5 477 Q154 444 116 417 L58 492 Q111 531 172 582.5 Q233 634 285 689 L382 689 L382 92 L545 92 L545 0 L93 0 L93 92 Z " />
<glyph glyph-name="two" unicode="2" horiz-adv-x="575" d="M74 0 L74 96 Q166 167 289 297 Q320 330 339.5 357.5 Q359 385 369.5 409.5 Q380 434 383.5 457 Q387 480 387 503 Q387 551 362 580.5 Q337 610 289 610 Q235 610 208 576.5 Q181 543 180 478 L70 486 Q70 531 84 570.5 Q98 610 125.5 639.5 Q153 669 193.5 685.5 Q234 702 288 702 Q343 702 383 686 Q423 670 448.5 643.5 Q474 617 486.5 582.5 Q499 548 499 510 Q499 475 492 442.5 Q485 410 469.5 378 Q454 346 429.5 312.5 Q405 279 369 242 Q324 197 284 161 Q244 125 199 90 Q234 91 264 91.5 Q294 92 329 92 L493 92 L493 0 L74 0 Z " />
<glyph glyph-name="three" unicode="3" horiz-adv-x="575" d="M518 208 Q518 161 503.5 120.5 Q489 80 459.5 50 Q430 20 386 3 Q342 -14 283 -14 Q222 -14 178.5 3 Q135 20 107.5 49 Q80 78 66 117 Q52 156 51 201 L161 213 Q163 147 192.5 112.5 Q222 78 286 78 Q342 78 374 111.5 Q406 145 406 204 Q406 246 391 271 Q376 296 352 309.5 Q328 323 298.5 327 Q269 331 241 331 L214 331 L214 415 L241 415 Q308 415 348 438.5 Q388 462 388 518 Q388 560 361 585 Q334 610 288 610 Q244 610 213.5 588 Q183 566 179 515 L70 525 Q71 562 86 594 Q101 626 129 650 Q157 674 197 688 Q237 702 290 702 Q341 702 380 687.5 Q419 673 445 649 Q471 625 484 594 Q497 563 497 529 Q497 492 485.5 465.5 Q474 439 456 421.5 Q438 404 416 394 Q394 384 373 380 L373 378 Q398 375 424 363.5 Q450 352 471 331 Q492 310 505 279.5 Q518 249 518 208 Z " />
<glyph glyph-name="four" unicode="4" horiz-adv-x="575" d="M434 145 L434 0 L318 0 L318 145 L50 145 L50 243 L345 689 L434 689 L434 237 L528 237 L528 145 L434 145 Z M318 237 L318 497 L147 237 L318 237 Z " />
<glyph glyph-name="five" unicode="5" horiz-adv-x="575" d="M529 240 Q529 181 513 134 Q497 87 467 54 Q437 21 393 3.5 Q349 -14 292 -14 Q250 -14 211 -2.5 Q172 9 140.5 32 Q109 55 86.5 91 Q64 127 56 177 Q84 181 111.5 184.5 Q139 188 167 193 Q175 139 207.5 108.5 Q240 78 292 78 Q352 78 385 119.5 Q418 161 418 233 Q418 264 410.5 291 Q403 318 387.5 338 Q372 358 348.5 369.5 Q325 381 294 381 Q251 381 219.5 358 Q188 335 169 297 L75 297 L99 689 L483 689 L483 597 L188 597 L175 411 L176 410 Q229 471 323 471 Q371 471 409 453.5 Q447 436 473.5 405 Q500 374 514.5 331.5 Q529 289 529 240 Z " />
<glyph glyph-name="six" unicode="6" horiz-adv-x="575" d="M528 232 Q528 182 514 137.5 Q500 93 471.5 59.5 Q443 26 399 6.5 Q355 -13 296 -13 Q233 -13 188 11 Q143 35 113.5 78.5 Q84 122 70.5 182 Q57 242 57 315 Q57 392 70.5 462 Q84 532 114 585.5 Q144 639 192 670.5 Q240 702 310 702 Q358 702 393.5 688.5 Q429 675 453.5 651.5 Q478 628 492 596 Q506 564 510 526 Q484 524 457 521 Q430 518 404 515 Q399 561 378.5 587.5 Q358 614 308 614 Q272 614 245.5 593 Q219 572 201.5 537.5 Q184 503 175.5 460 Q167 417 166 373 Q186 405 225.5 427.5 Q265 450 319 450 Q369 450 408 433 Q447 416 473.5 387 Q500 358 514 318 Q528 278 528 232 Z M417 221 Q417 282 388 320.5 Q359 359 298 359 Q271 359 248.5 348.5 Q226 338 210 320 Q194 302 185 277 Q176 252 176 223 Q176 153 209.5 116 Q243 79 299 79 Q352 79 384.5 115.5 Q417 152 417 221 Z " />
<glyph glyph-name="seven" unicode="7" horiz-adv-x="575" d="M510 607 Q455 542 416 472.5 Q377 403 351 327.5 Q325 252 310.5 170 Q296 88 291 0 L175 0 Q181 91 198 171 Q215 251 243 323.5 Q271 396 310.5 463.5 Q350 531 400 597 L73 597 L73 689 L511 689 L510 607 Z " />
<glyph glyph-name="eight" unicode="8" horiz-adv-x="575" d="M524 197 Q524 150 507 111 Q490 72 459 44.5 Q428 17 384.5 2 Q341 -13 288 -13 Q235 -13 191.5 2 Q148 17 117.5 44.5 Q87 72 70 111 Q53 150 53 197 Q53 237 65.5 267.5 Q78 298 97.5 319.5 Q117 341 139.5 354 Q162 367 182 373 L182 375 Q163 381 144.5 393 Q126 405 111.5 423.5 Q97 442 88 466 Q79 490 79 519 Q79 560 95 593.5 Q111 627 138.5 651 Q166 675 204.5 688.5 Q243 702 288 702 Q333 702 371 688.5 Q409 675 437 651 Q465 627 481 593.5 Q497 560 497 519 Q497 489 488 465 Q479 441 464 422.5 Q449 404 430 392 Q411 380 392 374 L392 372 Q412 367 435.5 354.5 Q459 342 478.5 320.5 Q498 299 511 268 Q524 237 524 197 Z M413 202 Q413 256 380.5 289 Q348 322 288 322 Q231 322 197.5 289 Q164 256 164 202 Q164 148 198 113.5 Q232 79 288 79 Q345 79 379 112.5 Q413 146 413 202 Z M387 513 Q387 558 361 584 Q335 610 288 610 Q241 610 215 584 Q189 558 189 513 Q189 469 214.5 440 Q240 411 288 411 Q336 411 361.5 440 Q387 469 387 513 Z " />
<glyph glyph-name="nine" unicode="9" horiz-adv-x="575" d="M51 475 Q51 523 66.5 564.5 Q82 606 111.5 636.5 Q141 667 184 684.5 Q227 702 282 702 Q344 702 389.5 678.5 Q435 655 464.5 614 Q494 573 508.5 515.5 Q523 458 523 391 Q523 183 462 85 Q401 -13 272 -13 Q183 -13 130 32 Q77 77 70 163 L176 175 Q179 127 203 100.5 Q227 74 272 74 Q311 74 337.5 93 Q364 112 380.5 144.5 Q397 177 404.5 220 Q412 263 413 310 Q413 310 412 311 Q392 279 353.5 259 Q315 239 259 239 Q208 239 169 257.5 Q130 276 104 308.5 Q78 341 64.5 384 Q51 427 51 475 Z M162 468 Q162 405 192.5 367.5 Q223 330 280 330 Q341 330 372.5 368.5 Q404 407 404 470 Q404 534 372 572 Q340 610 282 610 Q221 610 191.5 571.5 Q162 533 162 468 Z " />
<glyph glyph-name="colon" unicode="&#x3a;" horiz-adv-x="326" d="M102 367 L102 491 L223 491 L223 367 L102 367 Z M102 0 L102 124 L223 124 L223 0 L102 0 Z " />
<glyph glyph-name="semicolon" unicode="&#x3b;" horiz-adv-x="326" d="M102 367 L102 491 L223 491 L223 367 L102 367 Z M223 41 Q223 -6 218 -37.5 Q213 -69 203 -91.5 Q193 -114 178.5 -130 Q164 -146 146 -162 L113 -127 Q143 -100 152.5 -73.5 Q162 -47 162 -8 L162 0 L102 0 L102 124 L223 124 L223 41 Z " />
<glyph glyph-name="less" unicode="&#x3c;" horiz-adv-x="575" d="M504 -11 Q386 44 270.5 99.5 Q155 155 37 211 L37 280 L504 503 L538 431 L242 296 Q212 282 180 269.5 Q148 257 120 247 L120 245 Q148 235 180 222.5 Q212 210 242 196 L538 60 L504 -11 Z " />
<glyph glyph-name="equal" unicode="&#x3d;" horiz-adv-x="575" d="M51 306 L51 387 L525 387 L525 306 L51 306 Z M51 127 L51 208 L525 208 L525 127 L51 127 Z " />
<glyph glyph-name="greater" unicode="&#x3e;" horiz-adv-x="575" d="M538 211 Q420 155 304.5 99.5 Q189 44 71 -11 L37 60 L333 196 Q363 210 395 222.5 Q427 235 455 245 L455 247 Q427 256 395 269 Q363 282 333 296 L37 431 L71 503 L538 280 L538 211 Z " />
<glyph glyph-name="question" unicode="&#x3f;" horiz-adv-x="557" d="M487 542 Q487 499 474.5 466 Q462 433 439.5 409 Q417 385 387 369 Q357 353 323 345 L323 194 L221 194 L221 403 Q303 410 340 447 Q377 484 377 535 Q377 580 351.5 608 Q326 636 279 636 Q232 636 206 607.5 Q180 579 179 527 L73 539 Q73 578 87.5 612.5 Q102 647 128.5 672 Q155 697 193 711.5 Q231 726 278 726 Q329 726 368 711 Q407 696 433.5 671 Q460 646 473.5 612.5 Q487 579 487 542 Z M212 0 L212 124 L333 124 L333 0 L212 0 Z " />
<glyph glyph-name="at" unicode="&#x40;" horiz-adv-x="859" d="M728 -45 Q708 -68 678.5 -88.5 Q649 -109 613.5 -124 Q578 -139 538 -148 Q498 -157 458 -157 Q387 -157 317.5 -134.5 Q248 -112 193.5 -64 Q139 -16 105.5 58.5 Q72 133 72 238 Q72 342 101.5 427 Q131 512 184.5 572 Q238 632 313.5 665 Q389 698 481 698 Q554 698 612.5 671 Q671 644 712 596.5 Q753 549 775 485.5 Q797 422 797 350 Q797 280 782.5 225 Q768 170 741 131.5 Q714 93 676 73 Q638 53 591 53 Q552 53 528.5 73 Q505 93 497 123 L495 123 Q480 93 453 72.5 Q426 52 388 52 Q322 52 285.5 101.5 Q249 151 249 229 Q249 272 260.5 317 Q272 362 295 399.5 Q318 437 353 461 Q388 485 435 485 Q467 485 493.5 469 Q520 453 529 419 L532 419 L552 471 L634 471 Q624 442 616 408 Q608 374 602 333 L583 206 Q581 193 579 180.5 Q577 168 577 157 Q577 138 588.5 130 Q600 122 612 122 Q663 122 692 181 Q721 240 721 343 Q721 406 704 458 Q687 510 655.5 548 Q624 586 579 607 Q534 628 478 628 Q407 628 347.5 601.5 Q288 575 245 525 Q202 475 178.5 402.5 Q155 330 155 238 Q155 150 181.5 88 Q208 26 251.5 -13 Q295 -52 350 -70 Q405 -88 463 -88 Q494 -88 526.5 -81 Q559 -74 589 -61.5 Q619 -49 644.5 -32.5 Q670 -16 686 2 L728 -45 Z M502 330 Q502 361 490 384.5 Q478 408 446 408 Q418 408 398.5 390.5 Q379 373 366.5 347 Q354 321 348.5 290.5 Q343 260 343 235 Q343 176 360 152 Q377 128 408 128 Q437 128 455 151 Q473 174 483.5 206.5 Q494 239 498 273 Q502 307 502 330 Z " />
<glyph glyph-name="A" unicode="A" horiz-adv-x="617" d="M460 0 L421 142 L190 142 L150 0 L28 0 L251 710 L364 710 L588 0 L460 0 Z M343 428 Q334 461 324 497.5 Q314 534 307 570 L305 570 Q298 534 288.5 497.5 Q279 461 270 427 L217 239 L394 239 L343 428 Z " />
<glyph glyph-name="B" unicode="B" horiz-adv-x="643" d="M571 211 Q571 167 558.5 132.5 Q546 98 524 73 Q502 48 471.5 31.5 Q441 15 405 8 Q387 4 368 2 Q349 0 326 0 L98 0 L98 710 L332 710 Q377 710 415 701 Q477 687 516.5 645.5 Q556 604 556 533 Q556 475 523 435 Q490 395 440 379 L440 377 Q497 360 534 319.5 Q571 279 571 211 Z M450 215 Q450 263 418.5 296 Q387 329 328 329 L216 329 L216 95 L321 95 Q390 95 420 126.5 Q450 158 450 215 Z M318 417 Q375 417 406 445.5 Q437 474 437 522 Q437 565 409 590 Q381 615 327 615 L216 615 L216 417 L318 417 Z " />
<glyph glyph-name="C" unicode="C" horiz-adv-x="620" d="M567 222 Q563 176 549 133 Q535 90 506.5 57 Q478 24 433 4 Q388 -16 324 -16 Q259 -16 210 10 Q161 36 128 84 Q95 132 78.5 200 Q62 268 62 352 Q62 437 78.5 506.5 Q95 576 128.5 624.5 Q162 673 212 699.5 Q262 726 330 726 Q387 726 428.5 708.5 Q470 691 498 661.5 Q526 632 541.5 593.5 Q557 555 561 514 L448 494 Q440 563 410 594.5 Q380 626 329 626 Q254 626 218 557 Q182 488 182 354 Q182 223 218 153.5 Q254 84 327 84 Q360 84 382.5 95.5 Q405 107 420 127.5 Q435 148 442.5 176 Q450 204 452 238 L567 222 Z " />
<glyph glyph-name="D" unicode="D" horiz-adv-x="657" d="M595 362 Q595 297 585.5 241 Q576 185 554 140 Q532 95 497 62.5 Q462 30 410 14 Q387 6 361.5 3 Q336 0 307 0 L98 0 L98 710 L314 710 Q369 710 411 695 Q461 678 496 644.5 Q531 611 553 567 Q575 523 585 470 Q595 417 595 362 Z M474 355 Q474 404 466.5 450.5 Q459 497 440 533 Q421 569 388.5 591 Q356 613 305 613 L216 613 L216 97 L312 97 Q358 97 389 116.5 Q420 136 439 170.5 Q458 205 466 252.5 Q474 300 474 355 Z " />
<glyph glyph-name="E" unicode="E" horiz-adv-x="563" d="M98 0 L98 710 L517 710 L517 610 L217 610 L217 413 L461 413 L461 317 L217 317 L217 99 L517 99 L517 0 L98 0 Z " />
<glyph glyph-name="F" unicode="F" horiz-adv-x="544" d="M98 0 L98 710 L517 710 L517 610 L217 610 L217 413 L461 413 L461 317 L217 317 L217 0 L98 0 Z " />
<glyph glyph-name="G" unicode="G" horiz-adv-x="660" d="M498 0 L485 88 L483 88 Q465 43 423.5 13.5 Q382 -16 325 -16 Q268 -16 220 6.5 Q172 29 137 75 Q102 121 82 191 Q62 261 62 355 Q62 442 80.5 511 Q99 580 134 628 Q169 676 220 701 Q271 726 337 726 Q397 726 439 707 Q481 688 508 659 Q535 630 548.5 593.5 Q562 557 565 523 L450 505 Q444 563 417 594.5 Q390 626 334 626 Q301 626 273.5 611.5 Q246 597 226 564.5 Q206 532 195 480.5 Q184 429 184 355 Q184 281 195 229 Q206 177 226 145 Q246 113 274 98.5 Q302 84 335 84 Q398 84 430.5 134.5 Q463 185 463 266 L463 301 L326 301 L326 391 L569 391 L569 0 L498 0 Z " />
<glyph glyph-name="H" unicode="H" horiz-adv-x="657" d="M440 0 L440 313 L217 313 L217 0 L98 0 L98 710 L217 710 L217 414 L440 414 L440 710 L559 710 L559 0 L440 0 Z " />
<glyph glyph-name="I" unicode="I" horiz-adv-x="319" d="M100 0 L100 710 L219 710 L219 0 L100 0 Z " />
<glyph glyph-name="J" unicode="J" horiz-adv-x="561" d="M471 206 Q471 156 460 115 Q449 74 423.5 45 Q398 16 356 0.5 Q314 -15 251 -15 Q205 -15 167 -4 Q129 7 101.5 30 Q74 53 58.5 88 Q43 123 43 171 Q43 181 43 188.5 Q43 196 45 207 Q74 211 103 214.5 Q132 218 161 221 Q159 213 159 203.5 Q159 194 159 186 Q159 84 256 84 Q308 84 330 114 Q352 144 352 196 L352 710 L471 710 L471 206 Z " />
<glyph glyph-name="K" unicode="K" horiz-adv-x="630" d="M464 0 L287 330 L217 242 L217 0 L98 0 L98 710 L217 710 L217 407 L447 710 L595 710 L361 420 L606 0 L464 0 Z " />
<glyph glyph-name="L" unicode="L" horiz-adv-x="534" d="M98 0 L98 710 L217 710 L217 100 L510 100 L510 0 L98 0 Z " />
<glyph glyph-name="M" unicode="M" horiz-adv-x="835" d="M625 0 L625 388 Q625 431 625 473 Q625 515 627 572 L625 572 Q614 526 605 489 Q596 452 584 410 L464 0 L370 0 L250 410 Q238 452 228.5 489 Q219 526 208 572 L206 572 Q207 515 208 473 Q209 431 209 388 L209 0 L98 0 L98 710 L269 710 L380 302 Q391 260 400 222 Q409 184 417 144 L419 144 Q427 184 435.5 221 Q444 258 456 303 L566 710 L737 710 L737 0 L625 0 Z " />
<glyph glyph-name="N" unicode="N" horiz-adv-x="682" d="M244 710 L411 335 Q426 301 439.5 266 Q453 231 466 192 L468 192 Q467 234 466 270.5 Q465 307 465 352 L465 710 L584 710 L584 0 L440 0 L271 374 Q255 409 242 442.5 Q229 476 215 517 L213 517 Q215 475 215.5 436 Q216 397 216 356 L216 0 L98 0 L98 710 L244 710 Z " />
<glyph glyph-name="O" unicode="O" horiz-adv-x="659" d="M597 355 Q597 268 579.5 199.5 Q562 131 528.5 83 Q495 35 445 9.5 Q395 -16 329 -16 Q263 -16 213.5 9.5 Q164 35 130 83 Q96 131 79 199.5 Q62 268 62 355 Q62 442 79 511 Q96 580 130 627.5 Q164 675 213.5 700.5 Q263 726 329 726 Q395 726 445 700.5 Q495 675 528.5 627.5 Q562 580 579.5 511 Q597 442 597 355 Z M476 355 Q476 430 465.5 481.5 Q455 533 436 565 Q417 597 389.5 611.5 Q362 626 329 626 Q296 626 268.5 611.5 Q241 597 222 565 Q203 533 192.5 481.5 Q182 430 182 355 Q182 281 192.5 229 Q203 177 222 145 Q241 113 268.5 98.5 Q296 84 329 84 Q362 84 389.5 98.5 Q417 113 436 145 Q455 177 465.5 229 Q476 281 476 355 Z " />
<glyph glyph-name="P" unicode="P" horiz-adv-x="618" d="M571 501 Q571 453 556 413.5 Q541 374 511 345.5 Q481 317 436.5 301.5 Q392 286 332 286 L217 286 L217 0 L98 0 L98 710 L332 710 Q389 710 435 693.5 Q481 677 513 646 Q541 618 556 581 Q571 544 571 501 Z M450 498 Q450 548 419.5 581 Q389 614 326 614 L217 614 L217 382 L321 382 Q390 382 420 411.5 Q450 441 450 498 Z " />
<glyph glyph-name="Q" unicode="Q" horiz-adv-x="659" d="M597 355 Q597 188 538 95 Q479 2 374 -13 L374 -42 Q374 -65 383.5 -73.5 Q393 -82 410 -82 Q437 -82 467 -67 L493 -124 Q474 -136 445 -145.5 Q416 -155 384 -155 Q291 -155 285 -57 L282 -12 Q179 2 120.5 95 Q62 188 62 355 Q62 442 79 511 Q96 580 130 628 Q164 676 213.5 701 Q263 726 329 726 Q395 726 445 701 Q495 676 528.5 628 Q562 580 579.5 511 Q597 442 597 355 Z M476 355 Q476 430 465.5 481.5 Q455 533 436 565 Q417 597 389.5 611.5 Q362 626 329 626 Q296 626 268.5 611.5 Q241 597 222 565 Q203 533 192.5 481.5 Q182 430 182 355 Q182 281 192.5 229 Q203 177 222 145 Q241 113 268.5 98.5 Q296 84 329 84 Q363 84 390 98.5 Q417 113 436 145 Q455 177 465.5 229 Q476 281 476 355 Z " />
<glyph glyph-name="R" unicode="R" horiz-adv-x="651" d="M584 509 Q584 458 570.5 422 Q557 386 532 362 Q516 347 500.5 337.5 Q485 328 465 319 L594 0 L462 0 L356 298 L217 298 L217 0 L98 0 L98 710 L352 710 Q460 710 519 657 Q550 629 567 591.5 Q584 554 584 509 Z M463 502 Q463 551 435.5 582.5 Q408 614 346 614 L217 614 L217 391 L347 391 Q404 391 433.5 421.5 Q463 452 463 502 Z " />
<glyph glyph-name="S" unicode="S" horiz-adv-x="619" d="M558 190 Q558 142 540.5 103.5 Q523 65 490 38.5 Q457 12 411 -2 Q365 -16 308 -16 Q245 -16 199 0 Q153 16 122.5 44.5 Q92 73 77 112.5 Q62 152 61 199 L176 224 Q178 143 214 112 Q250 81 314 81 Q370 81 405 107 Q440 133 440 182 Q440 220 417 247.5 Q394 275 343 298 L225 351 Q188 367 160.5 385.5 Q133 404 114.5 426.5 Q96 449 87 477.5 Q78 506 78 542 Q78 589 96.5 623.5 Q115 658 147 681 Q179 704 221.5 715 Q264 726 312 726 Q372 726 415 710 Q458 694 485.5 667.5 Q513 641 526.5 607.5 Q540 574 541 540 L427 516 Q423 576 394 602 Q365 628 308 628 Q260 628 228 608 Q196 588 196 548 Q196 508 217.5 485 Q239 462 287 442 L400 392 Q483 355 520.5 308.5 Q558 262 558 190 Z " />
<glyph glyph-name="T" unicode="T" horiz-adv-x="541" d="M330 610 L330 0 L211 0 L211 610 L31 610 L31 710 L509 710 L509 610 L330 610 Z " />
<glyph glyph-name="U" unicode="U" horiz-adv-x="661" d="M330 -16 Q275 -16 230 1 Q185 18 153 50 Q124 79 109.5 120 Q95 161 95 221 L95 710 L214 710 L214 226 Q214 153 239 121 Q269 83 330 83 Q391 83 421 121 Q435 138 440.5 163.5 Q446 189 446 226 L446 710 L566 710 L566 221 Q566 161 551 120 Q536 79 508 50 Q476 18 430.5 1 Q385 -16 330 -16 Z " />
<glyph glyph-name="V" unicode="V" horiz-adv-x="612" d="M369 0 L243 0 L26 710 L151 710 L267 291 Q274 266 279.5 246.5 Q285 227 289.5 209 Q294 191 298 173.5 Q302 156 307 135 L309 135 Q313 155 317 173 Q321 191 325.5 209 Q330 227 335.5 247 Q341 267 348 292 L463 710 L586 710 L369 0 Z " />
<glyph glyph-name="W" unicode="W" horiz-adv-x="891" d="M678 0 L555 0 L475 387 Q467 424 460 466.5 Q453 509 446 554 L444 554 Q438 509 431 468 Q424 427 416 387 L336 0 L210 0 L47 710 L168 710 L252 293 Q259 257 264 225 Q269 193 276 149 L278 149 Q284 193 289.5 225 Q295 257 302 294 L382 710 L509 710 L591 294 Q599 257 603.5 225 Q608 193 614 149 L616 149 Q622 193 627.5 225 Q633 257 640 294 L724 710 L844 710 L678 0 Z " />
<glyph glyph-name="X" unicode="X" horiz-adv-x="604" d="M33 0 L235 366 L48 710 L182 710 L302 485 L424 710 L553 710 L367 370 L570 0 L436 0 L300 252 L162 0 L33 0 Z " />
<glyph glyph-name="Y" unicode="Y" horiz-adv-x="588" d="M356 297 L356 0 L237 0 L237 297 L17 710 L156 710 L297 427 L438 710 L571 710 L356 297 Z " />
<glyph glyph-name="Z" unicode="Z" horiz-adv-x="583" d="M55 0 L55 97 L385 611 Q367 610 348 610 L271 610 L68 610 L68 710 L519 710 L519 612 L188 99 L221 99 Q236 99 255 99.5 Q274 100 294 100 L532 100 L532 0 L55 0 Z " />
<glyph glyph-name="bracketleft" unicode="&#x5b;" horiz-adv-x="374" d="M122 -200 L122 726 L355 726 L355 643 L229 643 L229 -118 L355 -118 L355 -200 L122 -200 Z " />
<glyph glyph-name="backslash" unicode="&#x5c;" horiz-adv-x="471" d="M24 726 L120 726 L442 -16 L346 -16 L24 726 Z " />
<glyph glyph-name="bracketright" unicode="&#x5d;" horiz-adv-x="374" d="M19 -200 L19 -118 L145 -118 L145 643 L19 643 L19 726 L252 726 L252 -200 L19 -200 Z " />
<glyph glyph-name="underscore" unicode="&#x5f;" horiz-adv-x="500" d="M0 -105 L0 -59 L500 -59 L500 -105 L0 -105 Z " />
<glyph glyph-name="grave" unicode="&#x60;" horiz-adv-x="241" d="M-25 648 L18 736 L235 596 L211 550 L-25 648 Z " />
<glyph glyph-name="a" unicode="a" horiz-adv-x="556" d="M506 -8 Q474 -8 450 -3.5 Q426 1 409.5 11 Q393 21 382 37.5 Q371 54 364 78 Q341 40 304.5 13.5 Q268 -13 211 -13 Q179 -13 151 -4.5 Q123 4 102 22 Q81 40 69 67 Q57 94 57 131 Q57 188 93 224 Q129 260 207 281 Q214 283 229.5 287 Q245 291 262 295 Q279 299 293.5 302.5 Q308 306 313 308 Q339 315 345.5 322.5 Q352 330 352 344 L352 353 Q352 384 335 403.5 Q318 423 269 423 Q222 423 201.5 402 Q181 381 181 344 L73 353 Q74 419 124 461 Q174 503 269 503 Q321 503 357.5 492 Q394 481 416.5 461.5 Q439 442 449 414.5 Q459 387 459 354 L459 136 Q459 100 470 85 Q481 70 516 65 L506 -8 Z M352 256 Q346 250 338.5 246 Q331 242 315 237 L235 212 Q205 201 186 183.5 Q167 166 167 134 Q167 102 185 85 Q203 68 234 68 Q273 68 302 93.5 Q331 119 352 158 L352 256 Z " />
<glyph glyph-name="b" unicode="b" horiz-adv-x="588" d="M202 427 Q218 458 251.5 480.5 Q285 503 332 503 Q375 503 411.5 486.5 Q448 470 475 437 Q502 404 517 355.5 Q532 307 532 244 Q532 180 516.5 132 Q501 84 474 51.5 Q447 19 410.5 3 Q374 -13 332 -13 Q287 -13 252 9 Q217 31 201 65 L199 65 Q198 46 197 30 Q196 14 194 0 L90 0 Q92 39 93.5 79.5 Q95 120 95 161 L95 710 L202 710 L202 510 Q202 488 201.5 463 Q201 438 200 427 L202 427 Z M422 247 Q422 330 393.5 374 Q365 418 311 418 Q259 418 230 373 Q201 328 201 245 Q201 163 230.5 117.5 Q260 72 313 72 Q366 72 394 113.5 Q422 155 422 247 Z " />
<glyph glyph-name="c" unicode="c" horiz-adv-x="529" d="M482 162 Q477 132 465 100.5 Q453 69 430 44 Q407 19 369.5 3 Q332 -13 276 -13 Q225 -13 184.5 5.5 Q144 24 115.5 58 Q87 92 71.5 140.5 Q56 189 56 249 Q56 306 71.5 352.5 Q87 399 116.5 432.5 Q146 466 187.5 484.5 Q229 503 281 503 Q328 503 363 489.5 Q398 476 421.5 454 Q445 432 458 403.5 Q471 375 476 344 L375 331 Q363 418 281 418 Q227 418 196.5 374.5 Q166 331 166 246 Q166 156 197.5 114.5 Q229 73 279 73 Q329 73 351.5 98.5 Q374 124 379 172 L482 162 Z " />
<glyph glyph-name="d" unicode="d" horiz-adv-x="589" d="M166 244 Q166 156 197 114 Q228 72 280 72 Q336 72 362 119.5 Q388 167 388 246 Q388 327 360.5 372.5 Q333 418 278 418 Q227 418 196.5 377.5 Q166 337 166 244 Z M397 0 Q395 15 394 32 Q393 49 392 65 L390 65 Q376 33 344 10 Q312 -13 259 -13 Q219 -13 182.5 2.5 Q146 18 118 50.5 Q90 83 73 132 Q56 181 56 248 Q56 312 71.5 359.5 Q87 407 114.5 439 Q142 471 179.5 487 Q217 503 260 503 Q303 503 336.5 482.5 Q370 462 387 427 L389 427 Q388 438 387.5 461.5 Q387 485 387 507 L387 710 L494 710 L494 162 Q494 120 495.5 80.5 Q497 41 499 0 L397 0 Z " />
<glyph glyph-name="e" unicode="e" horiz-adv-x="544" d="M476 135 Q470 109 456 83 Q442 57 418.5 35.5 Q395 14 360.5 0.5 Q326 -13 280 -13 Q226 -13 184 5.5 Q142 24 113.5 58 Q85 92 70.5 140 Q56 188 56 247 Q56 305 71.5 352.5 Q87 400 116 433.5 Q145 467 186 485 Q227 503 278 503 Q325 503 364 486 Q403 469 431 438 Q459 407 474.5 362 Q490 317 490 262 Q490 248 489.5 235 Q489 222 488 211 L166 211 Q169 142 197.5 106.5 Q226 71 281 71 Q359 71 379 150 L476 135 Z M381 288 Q380 351 353.5 385 Q327 419 275 419 Q227 419 198 383 Q169 347 167 288 L381 288 Z " />
<glyph glyph-name="f" unicode="f" horiz-adv-x="407" d="M369 623 Q349 632 333 636 Q317 640 294 640 Q274 640 262 633.5 Q250 627 243 615 Q237 604 235 585.5 Q233 567 233 542 L233 491 L370 491 L370 408 L233 408 L233 0 L126 0 L126 408 L28 408 L28 491 L126 491 L126 555 Q126 588 131.5 623 Q137 658 162 685 Q200 726 276 726 Q315 726 343.5 717 Q372 708 396 697 L369 623 Z " />
<glyph glyph-name="g" unicode="g" horiz-adv-x="581" d="M166 247 Q166 160 194.5 118 Q223 76 274 76 Q332 76 360 121.5 Q388 167 388 248 Q388 332 358.5 375 Q329 418 279 418 Q225 418 195.5 377 Q166 336 166 247 Z M386 -3 Q386 11 386 27 Q386 43 388 65 L386 65 Q380 51 369 38 Q358 25 341.5 14 Q325 3 302.5 -3.5 Q280 -10 252 -10 Q214 -10 178.5 5.5 Q143 21 116 53 Q89 85 72.5 133 Q56 181 56 246 Q56 311 72.5 359 Q89 407 116.5 439 Q144 471 180.5 487 Q217 503 256 503 Q284 503 305 496.5 Q326 490 342 479 Q358 468 369 454 Q380 440 387 425 L389 425 Q390 442 391 459 Q392 476 394 491 L496 491 Q494 448 492.5 407.5 Q491 367 491 329 L491 6 Q491 -46 480.5 -86.5 Q470 -127 446 -157 Q425 -183 385.5 -200.5 Q346 -218 276 -218 Q190 -218 138.5 -181 Q87 -144 79 -73 L180 -62 Q185 -107 212 -124.5 Q239 -142 281 -142 Q312 -142 333.5 -132 Q355 -122 367 -105 Q380 -87 383 -62.5 Q386 -38 386 -3 Z " />
<glyph glyph-name="h" unicode="h" horiz-adv-x="573" d="M385 0 L385 297 Q385 324 381.5 346 Q378 368 368 382 Q348 413 300 413 Q280 413 261.5 405 Q243 397 229 380.5 Q215 364 206 338.5 Q197 313 197 277 L197 0 L90 0 L90 710 L197 710 L197 513 Q197 493 197 471 Q197 449 195 428 L197 428 Q214 460 249 481.5 Q284 503 329 503 Q377 503 409.5 487 Q442 471 461 443 Q477 419 484.5 386.5 Q492 354 492 315 L492 0 L385 0 Z " />
<glyph glyph-name="i" unicode="i" horiz-adv-x="285" d="M89 0 L89 491 L196 491 L196 0 L89 0 Z M87 587 L87 705 L197 705 L197 587 L87 587 Z " />
<glyph glyph-name="j" unicode="j" horiz-adv-x="298" d="M102 491 L209 491 L209 -36 Q209 -74 202 -108.5 Q195 -143 172 -169 Q154 -189 125.5 -200 Q97 -211 56 -211 Q11 -211 -18 -201.5 Q-47 -192 -70 -180 L-39 -106 Q-19 -115 0 -120.5 Q19 -126 39 -126 Q60 -126 72 -119.5 Q84 -113 92 -102 Q99 -91 100.5 -71.5 Q102 -52 102 -27 L102 491 Z M101 587 L101 705 L211 705 L211 587 L101 587 Z " />
<glyph glyph-name="k" unicode="k" horiz-adv-x="547" d="M397 0 L256 216 L197 156 L197 0 L90 0 L90 710 L197 710 L197 290 L379 491 L517 491 L327 290 L528 0 L397 0 Z " />
<glyph glyph-name="l" unicode="l" horiz-adv-x="287" d="M90 710 L197 710 L197 0 L90 0 L90 710 Z " />
<glyph glyph-name="m" unicode="m" horiz-adv-x="768" d="M580 0 L580 312 Q580 333 577.5 351.5 Q575 370 568.5 383.5 Q562 397 549.5 405 Q537 413 517 413 Q443 413 443 299 L443 0 L336 0 L336 288 Q336 308 335.5 330 Q335 352 329 370.5 Q323 389 310 401 Q297 413 273 413 Q238 413 217.5 386.5 Q197 360 197 292 L197 0 L90 0 L90 336 Q90 371 89 410 Q88 449 85 491 L188 491 Q190 474 191 459.5 Q192 445 192 428 L194 428 Q208 458 238 480.5 Q268 503 313 503 Q357 503 385 482.5 Q413 462 426 427 L428 427 Q445 462 476 482.5 Q507 503 549 503 Q595 503 622.5 485.5 Q650 468 664.5 439.5 Q679 411 683 376 Q687 341 687 305 L687 0 L580 0 Z " />
<glyph glyph-name="n" unicode="n" horiz-adv-x="580" d="M188 491 Q190 475 190.5 458 Q191 441 192 424 L194 424 Q209 456 245.5 479.5 Q282 503 336 503 Q417 503 458 454 Q499 405 499 319 L499 0 L392 0 L392 301 Q392 353 372.5 383 Q353 413 304 413 Q283 413 263.5 405 Q244 397 229 380.5 Q214 364 205.5 338.5 Q197 313 197 277 L197 0 L90 0 L90 335 Q90 371 89 411 Q88 451 85 491 L188 491 Z " />
<glyph glyph-name="o" unicode="o" horiz-adv-x="561" d="M504 245 Q504 184 487.5 136 Q471 88 441.5 55 Q412 22 371 4.5 Q330 -13 280 -13 Q230 -13 189 4.5 Q148 22 119 55 Q90 88 73.5 136 Q57 184 57 245 Q57 306 73.5 354 Q90 402 119 435 Q148 468 189 485.5 Q230 503 280 503 Q330 503 371 485.5 Q412 468 441.5 435 Q471 402 487.5 354 Q504 306 504 245 Z M393 245 Q393 332 363.5 375 Q334 418 280 418 Q226 418 196.5 375 Q167 332 167 245 Q167 158 196.5 115 Q226 72 280 72 Q334 72 363.5 115 Q393 158 393 245 Z " />
<glyph glyph-name="p" unicode="p" horiz-adv-x="584" d="M417 247 Q417 336 387.5 377 Q358 418 307 418 Q255 418 225 374.5 Q195 331 195 245 Q195 158 224.5 115 Q254 72 308 72 Q358 72 387.5 114 Q417 156 417 247 Z M195 64 Q196 53 196.5 28 Q197 3 197 -19 L197 -200 L90 -200 L90 328 Q90 370 89 409.5 Q88 449 85 491 L189 491 Q191 477 192 461 Q193 445 194 427 L196 427 Q211 457 246.5 480 Q282 503 330 503 Q374 503 410.5 485.5 Q447 468 473 434.5 Q499 401 513.5 352.5 Q528 304 528 243 Q528 181 513.5 133.5 Q499 86 473 53.5 Q447 21 411 4 Q375 -13 332 -13 Q286 -13 251 8.5 Q216 30 197 64 L195 64 Z " />
<glyph glyph-name="q" unicode="q" horiz-adv-x="584" d="M166 244 Q166 153 197.5 112.5 Q229 72 278 72 Q331 72 359.5 115.5 Q388 159 388 245 Q388 330 359 374 Q330 418 276 418 Q223 418 194.5 375 Q166 332 166 244 Z M386 64 Q369 31 335.5 9.5 Q302 -12 251 -12 Q210 -12 174.5 4.5 Q139 21 112.5 53.5 Q86 86 71 134 Q56 182 56 245 Q56 308 71.5 356 Q87 404 113.5 436 Q140 468 175.5 484.5 Q211 501 252 501 Q304 501 339 479 Q374 457 388 427 L390 427 Q391 446 391.5 461.5 Q392 477 394 491 L498 491 Q496 449 494.5 409.5 Q493 370 493 328 L493 -200 L386 -200 L386 -19 Q386 3 387 28 Q388 53 388 64 L386 64 Z " />
<glyph glyph-name="r" unicode="r" horiz-adv-x="419" d="M391 391 Q378 396 366.5 397.5 Q355 399 336 399 Q308 399 281 387.5 Q254 376 236 352 Q218 328 208 293.5 Q198 259 198 200 L198 0 L91 0 L91 332 Q91 367 89 411 Q87 455 85 491 L186 491 Q188 471 189 442.5 Q190 414 191 390 L193 390 Q215 444 253.5 473.5 Q292 503 345 503 Q360 503 371 501 Q382 499 391 496 L391 391 Z " />
<glyph glyph-name="s" unicode="s" horiz-adv-x="531" d="M470 145 Q470 66 418 26.5 Q366 -13 264 -13 Q208 -13 169.5 -0.5 Q131 12 107 33 Q83 54 71.5 82 Q60 110 57 141 L166 153 Q173 103 199.5 85 Q226 67 267 67 Q314 67 336.5 85 Q359 103 359 133 Q359 166 335.5 180 Q312 194 276 204 L210 222 Q182 229 156 239 Q130 249 110.5 264.5 Q91 280 79.5 303.5 Q68 327 68 363 Q68 429 119.5 466 Q171 503 264 503 Q352 503 401 465 Q450 427 455 366 L351 354 Q346 389 326 406.5 Q306 424 261 424 Q221 424 198.5 410.5 Q176 397 176 372 Q176 343 194 330.5 Q212 318 250 308 L319 290 Q352 281 380 270 Q408 259 428 242 Q448 225 459 201.5 Q470 178 470 145 Z " />
<glyph glyph-name="t" unicode="t" horiz-adv-x="420" d="M374 90 Q381 71 388 53 Q395 35 403 16 Q378 4 347 -4.5 Q316 -13 278 -13 Q228 -13 198.5 3 Q169 19 153.5 43.5 Q138 68 133 98 Q128 128 128 156 L128 408 L28 408 L28 491 L128 491 L128 646 L235 692 L235 491 L364 491 L364 408 L235 408 L235 169 Q235 138 238.5 119 Q242 100 249.5 90 Q257 80 268.5 76.5 Q280 73 296 73 Q318 73 336 77.5 Q354 82 374 90 Z " />
<glyph glyph-name="u" unicode="u" horiz-adv-x="582" d="M394 0 Q392 13 391.5 31.5 Q391 50 390 67 L388 67 Q374 35 339.5 11.5 Q305 -12 252 -12 Q169 -12 126.5 36 Q84 84 84 169 L84 491 L191 491 L191 188 Q191 134 211 105.5 Q231 77 278 77 Q300 77 319.5 84.5 Q339 92 353.5 108.5 Q368 125 376.5 151.5 Q385 178 385 215 L385 491 L492 491 L492 155 Q492 119 493.5 78 Q495 37 497 0 L394 0 Z " />
<glyph glyph-name="v" unicode="v" horiz-adv-x="502" d="M300 0 L201 0 L24 491 L140 491 L221 242 Q231 211 238 184.5 Q245 158 252 127 L254 127 Q259 150 264 170.5 Q269 191 276 211 L366 491 L478 491 L300 0 Z " />
<glyph glyph-name="w" unicode="w" horiz-adv-x="724" d="M565 0 L442 0 L387 246 Q384 259 380.5 275.5 Q377 292 374 310 Q371 328 368.5 346 Q366 364 364 379 L362 379 Q360 364 357 346 Q354 328 351 310 Q348 292 344.5 275.5 Q341 259 338 246 L285 0 L159 0 L38 491 L149 491 L205 223 Q211 194 216 165 Q221 136 225 106 L227 106 Q230 136 234.5 165 Q239 194 245 223 L298 491 L427 491 L483 223 Q489 196 493.5 166.5 Q498 137 502 105 L504 105 Q511 167 522 224 L576 491 L686 491 L565 0 Z " />
<glyph glyph-name="x" unicode="x" horiz-adv-x="515" d="M365 0 L256 165 L148 0 L22 0 L197 252 L32 491 L157 491 L259 338 L360 491 L480 491 L316 253 L493 0 L365 0 Z " />
<glyph glyph-name="y" unicode="y" horiz-adv-x="509" d="M270 -92 Q260 -119 247.5 -141 Q235 -163 217.5 -178.5 Q200 -194 175 -202.5 Q150 -211 114 -211 Q54 -211 -6 -175 L25 -102 Q49 -114 66.5 -120 Q84 -126 109 -126 Q130 -126 144 -115 Q158 -104 168 -86.5 Q178 -69 185.5 -46 Q193 -23 201 1 L19 491 L137 491 L223 233 Q236 192 242 170 Q248 148 253 129 L255 129 Q260 154 269 183.5 Q278 213 288 242 L369 491 L485 491 L270 -92 Z " />
<glyph glyph-name="z" unicode="z" horiz-adv-x="506" d="M46 0 L46 73 L314 409 Q300 408 284 408 Q270 407 253 407 Q236 407 219 407 L65 407 L65 491 L455 491 L455 418 L188 82 Q203 82 220 83 Q234 83 250.5 83.5 Q267 84 284 84 L464 84 L464 0 L46 0 Z " />
<glyph glyph-name="bar" unicode="&#x7c;" horiz-adv-x="271" d="M93 -238 L93 840 L178 840 L178 -238 L93 -238 Z " />
<glyph glyph-name="Adieresis" unicode="&#xc4;" horiz-adv-x="617" d="M460 0 L421 142 L190 142 L150 0 L28 0 L251 710 L364 710 L588 0 L460 0 Z M343 428 Q334 461 324 497.5 Q314 534 307 570 L305 570 Q298 534 288.5 497.5 Q279 461 270 427 L217 239 L394 239 L343 428 Z M350 797 L350 914 L456 914 L456 797 L350 797 Z M159 797 L159 914 L265 914 L265 797 L159 797 Z " />
<glyph glyph-name="Aring" unicode="&#xc5;" horiz-adv-x="617" d="M460 0 L421 142 L190 142 L150 0 L28 0 L251 710 L364 710 L588 0 L460 0 Z M343 428 Q334 461 324 497.5 Q314 534 307 570 L305 570 Q298 534 288.5 497.5 Q279 461 270 427 L217 239 L394 239 L343 428 Z M252 852 Q252 829 268 813 Q284 797 307 797 Q330 797 345.5 813 Q361 829 361 852 Q361 875 345.5 890.5 Q330 906 307 906 Q284 906 268 890.5 Q252 875 252 852 Z M201 852 Q201 874 209.5 893 Q218 912 232 926 Q246 940 265.5 948.5 Q285 957 307 957 Q329 957 348.5 948.5 Q368 940 382 926 Q396 912 404.5 893 Q413 874 413 852 Q413 830 404.5 810.5 Q396 791 381.5 776.5 Q367 762 348 753.5 Q329 745 307 745 Q285 745 266 753.5 Q247 762 232.5 776.5 Q218 791 209.5 810.5 Q201 830 201 852 Z " />
<glyph glyph-name="Eacute" unicode="&#xc9;" horiz-adv-x="563" d="M98 0 L98 710 L517 710 L517 610 L217 610 L217 413 L461 413 L461 317 L217 317 L217 99 L517 99 L517 0 L98 0 Z M201 765 L177 811 L395 951 L437 863 L201 765 Z " />
<glyph glyph-name="Ntilde" unicode="&#xd1;" horiz-adv-x="682" d="M244 710 L411 335 Q426 301 439.5 266 Q453 231 466 192 L468 192 Q467 234 466 270.5 Q465 307 465 352 L465 710 L584 710 L584 0 L440 0 L271 374 Q255 409 242 442.5 Q229 476 215 517 L213 517 Q215 475 215.5 436 Q216 397 216 356 L216 0 L98 0 L98 710 L244 710 Z M284 830 Q267 830 257.5 819.5 Q248 809 248 789 L184 789 Q184 839 211.5 872.5 Q239 906 284 906 Q307 906 324 898 Q341 890 355 879 Q368 870 378 865 Q388 860 401 860 Q418 860 427.5 871 Q437 882 437 901 L501 901 Q501 851 473.5 818 Q446 785 401 785 Q377 785 360 792.5 Q343 800 329 811 Q317 820 307 825 Q297 830 284 830 Z " />
<glyph glyph-name="Odieresis" unicode="&#xd6;" horiz-adv-x="659" d="M597 355 Q597 268 579.5 199.5 Q562 131 528.5 83 Q495 35 445 9.5 Q395 -16 329 -16 Q263 -16 213.5 9.5 Q164 35 130 83 Q96 131 79 199.5 Q62 268 62 355 Q62 442 79 511 Q96 580 130 627.5 Q164 675 213.5 700.5 Q263 726 329 726 Q395 726 445 700.5 Q495 675 528.5 627.5 Q562 580 579.5 511 Q597 442 597 355 Z M476 355 Q476 430 465.5 481.5 Q455 533 436 565 Q417 597 389.5 611.5 Q362 626 329 626 Q296 626 268.5 611.5 Q241 597 222 565 Q203 533 192.5 481.5 Q182 430 182 355 Q182 281 192.5 229 Q203 177 222 145 Q241 113 268.5 98.5 Q296 84 329 84 Q362 84 389.5 98.5 Q417 113 436 145 Q455 177 465.5 229 Q476 281 476 355 Z M372 797 L372 914 L478 914 L478 797 L372 797 Z M181 797 L181 914 L287 914 L287 797 L181 797 Z " />
<glyph glyph-name="Udieresis" unicode="&#xdc;" horiz-adv-x="661" d="M330 -16 Q275 -16 230 1 Q185 18 153 50 Q124 79 109.5 120 Q95 161 95 221 L95 710 L214 710 L214 226 Q214 153 239 121 Q269 83 330 83 Q391 83 421 121 Q435 138 440.5 163.5 Q446 189 446 226 L446 710 L566 710 L566 221 Q566 161 551 120 Q536 79 508 50 Q476 18 430.5 1 Q385 -16 330 -16 Z M373 797 L373 914 L479 914 L479 797 L373 797 Z M182 797 L182 914 L288 914 L288 797 L182 797 Z " />
<glyph glyph-name="agrave" unicode="&#xe0;" horiz-adv-x="556" d="M506 -8 Q474 -8 450 -3.5 Q426 1 409.5 11 Q393 21 382 37.5 Q371 54 364 78 Q341 40 304.5 13.5 Q268 -13 211 -13 Q179 -13 151 -4.5 Q123 4 102 22 Q81 40 69 67 Q57 94 57 131 Q57 188 93 224 Q129 260 207 281 Q214 283 229.5 287 Q245 291 262 295 Q279 299 293.5 302.5 Q308 306 313 308 Q339 315 345.5 322.5 Q352 330 352 344 L352 353 Q352 384 335 403.5 Q318 423 269 423 Q222 423 201.5 402 Q181 381 181 344 L73 353 Q74 419 124 461 Q174 503 269 503 Q321 503 357.5 492 Q394 481 416.5 461.5 Q439 442 449 414.5 Q459 387 459 354 L459 136 Q459 100 470 85 Q481 70 516 65 L506 -8 Z M352 256 Q346 250 338.5 246 Q331 242 315 237 L235 212 Q205 201 186 183.5 Q167 166 167 134 Q167 102 185 85 Q203 68 234 68 Q273 68 302 93.5 Q331 119 352 158 L352 256 Z M142 648 L185 736 L402 596 L378 550 L142 648 Z " />
<glyph glyph-name="aacute" unicode="&#xe1;" horiz-adv-x="556" d="M506 -8 Q474 -8 450 -3.5 Q426 1 409.5 11 Q393 21 382 37.5 Q371 54 364 78 Q341 40 304.5 13.5 Q268 -13 211 -13 Q179 -13 151 -4.5 Q123 4 102 22 Q81 40 69 67 Q57 94 57 131 Q57 188 93 224 Q129 260 207 281 Q214 283 229.5 287 Q245 291 262 295 Q279 299 293.5 302.5 Q308 306 313 308 Q339 315 345.5 322.5 Q352 330 352 344 L352 353 Q352 384 335 403.5 Q318 423 269 423 Q222 423 201.5 402 Q181 381 181 344 L73 353 Q74 419 124 461 Q174 503 269 503 Q321 503 357.5 492 Q394 481 416.5 461.5 Q439 442 449 414.5 Q459 387 459 354 L459 136 Q459 100 470 85 Q481 70 516 65 L506 -8 Z M352 256 Q346 250 338.5 246 Q331 242 315 237 L235 212 Q205 201 186 183.5 Q167 166 167 134 Q167 102 185 85 Q203 68 234 68 Q273 68 302 93.5 Q331 119 352 158 L352 256 Z M160 550 L136 596 L354 736 L396 648 L160 550 Z " />
<glyph glyph-name="acircumflex" unicode="&#xe2;" horiz-adv-x="556" d="M506 -8 Q474 -8 450 -3.5 Q426 1 409.5 11 Q393 21 382 37.5 Q371 54 364 78 Q341 40 304.5 13.5 Q268 -13 211 -13 Q179 -13 151 -4.5 Q123 4 102 22 Q81 40 69 67 Q57 94 57 131 Q57 188 93 224 Q129 260 207 281 Q214 283 229.5 287 Q245 291 262 295 Q279 299 293.5 302.5 Q308 306 313 308 Q339 315 345.5 322.5 Q352 330 352 344 L352 353 Q352 384 335 403.5 Q318 423 269 423 Q222 423 201.5 402 Q181 381 181 344 L73 353 Q74 419 124 461 Q174 503 269 503 Q321 503 357.5 492 Q394 481 416.5 461.5 Q439 442 449 414.5 Q459 387 459 354 L459 136 Q459 100 470 85 Q481 70 516 65 L506 -8 Z M352 256 Q346 250 338.5 246 Q331 242 315 237 L235 212 Q205 201 186 183.5 Q167 166 167 134 Q167 102 185 85 Q203 68 234 68 Q273 68 302 93.5 Q331 119 352 158 L352 256 Z M151 547 L110 594 L271 729 L431 595 L391 547 L271 632 L151 547 Z " />
<glyph glyph-name="adieresis" unicode="&#xe4;" horiz-adv-x="556" d="M506 -8 Q474 -8 450 -3.5 Q426 1 409.5 11 Q393 21 382 37.5 Q371 54 364 78 Q341 40 304.5 13.5 Q268 -13 211 -13 Q179 -13 151 -4.5 Q123 4 102 22 Q81 40 69 67 Q57 94 57 131 Q57 188 93 224 Q129 260 207 281 Q214 283 229.5 287 Q245 291 262 295 Q279 299 293.5 302.5 Q308 306 313 308 Q339 315 345.5 322.5 Q352 330 352 344 L352 353 Q352 384 335 403.5 Q318 423 269 423 Q222 423 201.5 402 Q181 381 181 344 L73 353 Q74 419 124 461 Q174 503 269 503 Q321 503 357.5 492 Q394 481 416.5 461.5 Q439 442 449 414.5 Q459 387 459 354 L459 136 Q459 100 470 85 Q481 70 516 65 L506 -8 Z M352 256 Q346 250 338.5 246 Q331 242 315 237 L235 212 Q205 201 186 183.5 Q167 166 167 134 Q167 102 185 85 Q203 68 234 68 Q273 68 302 93.5 Q331 119 352 158 L352 256 Z M310 582 L310 699 L416 699 L416 582 L310 582 Z M119 582 L119 699 L225 699 L225 582 L119 582 Z " />
<glyph glyph-name="atilde" unicode="&#xe3;" horiz-adv-x="556" d="M506 -8 Q474 -8 450 -3.5 Q426 1 409.5 11 Q393 21 382 37.5 Q371 54 364 78 Q341 40 304.5 13.5 Q268 -13 211 -13 Q179 -13 151 -4.5 Q123 4 102 22 Q81 40 69 67 Q57 94 57 131 Q57 188 93 224 Q129 260 207 281 Q214 283 229.5 287 Q245 291 262 295 Q279 299 293.5 302.5 Q308 306 313 308 Q339 315 345.5 322.5 Q352 330 352 344 L352 353 Q352 384 335 403.5 Q318 423 269 423 Q222 423 201.5 402 Q181 381 181 344 L73 353 Q74 419 124 461 Q174 503 269 503 Q321 503 357.5 492 Q394 481 416.5 461.5 Q439 442 449 414.5 Q459 387 459 354 L459 136 Q459 100 470 85 Q481 70 516 65 L506 -8 Z M352 256 Q346 250 338.5 246 Q331 242 315 237 L235 212 Q205 201 186 183.5 Q167 166 167 134 Q167 102 185 85 Q203 68 234 68 Q273 68 302 93.5 Q331 119 352 158 L352 256 Z M210 619 Q193 619 183.5 608.5 Q174 598 174 578 L110 578 Q110 628 137.5 661.5 Q165 695 210 695 Q233 695 250 687 Q267 679 281 668 Q294 659 304 654 Q314 649 327 649 Q344 649 353.5 660 Q363 671 363 690 L427 690 Q427 640 399.5 607 Q372 574 327 574 Q303 574 286 581.5 Q269 589 255 600 Q243 609 233 614 Q223 619 210 619 Z " />
<glyph glyph-name="aring" unicode="&#xe5;" horiz-adv-x="556" d="M506 -8 Q474 -8 450 -3.5 Q426 1 409.5 11 Q393 21 382 37.5 Q371 54 364 78 Q341 40 304.5 13.5 Q268 -13 211 -13 Q179 -13 151 -4.5 Q123 4 102 22 Q81 40 69 67 Q57 94 57 131 Q57 188 93 224 Q129 260 207 281 Q214 283 229.5 287 Q245 291 262 295 Q279 299 293.5 302.5 Q308 306 313 308 Q339 315 345.5 322.5 Q352 330 352 344 L352 353 Q352 384 335 403.5 Q318 423 269 423 Q222 423 201.5 402 Q181 381 181 344 L73 353 Q74 419 124 461 Q174 503 269 503 Q321 503 357.5 492 Q394 481 416.5 461.5 Q439 442 449 414.5 Q459 387 459 354 L459 136 Q459 100 470 85 Q481 70 516 65 L506 -8 Z M352 256 Q346 250 338.5 246 Q331 242 315 237 L235 212 Q205 201 186 183.5 Q167 166 167 134 Q167 102 185 85 Q203 68 234 68 Q273 68 302 93.5 Q331 119 352 158 L352 256 Z M212 653 Q212 630 228 614 Q244 598 267 598 Q290 598 305.5 614 Q321 630 321 653 Q321 676 305.5 691.5 Q290 707 267 707 Q244 707 228 691.5 Q212 676 212 653 Z M161 653 Q161 675 169.5 694 Q178 713 192 727 Q206 741 225.5 749.5 Q245 758 267 758 Q289 758 308.5 749.5 Q328 741 342 727 Q356 713 364.5 694 Q373 675 373 653 Q373 631 364.5 611.5 Q356 592 341.5 577.5 Q327 563 308 554.5 Q289 546 267 546 Q245 546 226 554.5 Q207 563 192.5 577.5 Q178 592 169.5 611.5 Q161 631 161 653 Z " />
<glyph glyph-name="eacute" unicode="&#xe9;" horiz-adv-x="544" d="M476 135 Q470 109 456 83 Q442 57 418.5 35.5 Q395 14 360.5 0.5 Q326 -13 280 -13 Q226 -13 184 5.5 Q142 24 113.5 58 Q85 92 70.5 140 Q56 188 56 247 Q56 305 71.5 352.5 Q87 400 116 433.5 Q145 467 186 485 Q227 503 278 503 Q325 503 364 486 Q403 469 431 438 Q459 407 474.5 362 Q490 317 490 262 Q490 248 489.5 235 Q489 222 488 211 L166 211 Q169 142 197.5 106.5 Q226 71 281 71 Q359 71 379 150 L476 135 Z M381 288 Q380 351 353.5 385 Q327 419 275 419 Q227 419 198 383 Q169 347 167 288 L381 288 Z M167 550 L143 596 L361 736 L403 648 L167 550 Z " />
<glyph glyph-name="egrave" unicode="&#xe8;" horiz-adv-x="544" d="M476 135 Q470 109 456 83 Q442 57 418.5 35.5 Q395 14 360.5 0.5 Q326 -13 280 -13 Q226 -13 184 5.5 Q142 24 113.5 58 Q85 92 70.5 140 Q56 188 56 247 Q56 305 71.5 352.5 Q87 400 116 433.5 Q145 467 186 485 Q227 503 278 503 Q325 503 364 486 Q403 469 431 438 Q459 407 474.5 362 Q490 317 490 262 Q490 248 489.5 235 Q489 222 488 211 L166 211 Q169 142 197.5 106.5 Q226 71 281 71 Q359 71 379 150 L476 135 Z M381 288 Q380 351 353.5 385 Q327 419 275 419 Q227 419 198 383 Q169 347 167 288 L381 288 Z M145 648 L188 736 L405 596 L381 550 L145 648 Z " />
<glyph glyph-name="ecircumflex" unicode="&#xea;" horiz-adv-x="544" d="M476 135 Q470 109 456 83 Q442 57 418.5 35.5 Q395 14 360.5 0.5 Q326 -13 280 -13 Q226 -13 184 5.5 Q142 24 113.5 58 Q85 92 70.5 140 Q56 188 56 247 Q56 305 71.5 352.5 Q87 400 116 433.5 Q145 467 186 485 Q227 503 278 503 Q325 503 364 486 Q403 469 431 438 Q459 407 474.5 362 Q490 317 490 262 Q490 248 489.5 235 Q489 222 488 211 L166 211 Q169 142 197.5 106.5 Q226 71 281 71 Q359 71 379 150 L476 135 Z M381 288 Q380 351 353.5 385 Q327 419 275 419 Q227 419 198 383 Q169 347 167 288 L381 288 Z M155 547 L114 594 L275 729 L435 595 L395 547 L275 632 L155 547 Z " />
<glyph glyph-name="edieresis" unicode="&#xeb;" horiz-adv-x="544" d="M476 135 Q470 109 456 83 Q442 57 418.5 35.5 Q395 14 360.5 0.5 Q326 -13 280 -13 Q226 -13 184 5.5 Q142 24 113.5 58 Q85 92 70.5 140 Q56 188 56 247 Q56 305 71.5 352.5 Q87 400 116 433.5 Q145 467 186 485 Q227 503 278 503 Q325 503 364 486 Q403 469 431 438 Q459 407 474.5 362 Q490 317 490 262 Q490 248 489.5 235 Q489 222 488 211 L166 211 Q169 142 197.5 106.5 Q226 71 281 71 Q359 71 379 150 L476 135 Z M381 288 Q380 351 353.5 385 Q327 419 275 419 Q227 419 198 383 Q169 347 167 288 L381 288 Z M317 582 L317 699 L423 699 L423 582 L317 582 Z M126 582 L126 699 L232 699 L232 582 L126 582 Z " />
<glyph glyph-name="iacute" unicode="&#xed;" horiz-adv-x="285" d="M36 550 L12 596 L230 736 L272 648 L36 550 Z M89 0 L89 491 L196 491 L196 0 L89 0 Z " />
<glyph glyph-name="igrave" unicode="&#xec;" horiz-adv-x="285" d="M12 648 L55 736 L272 596 L248 550 L12 648 Z M89 0 L89 491 L196 491 L196 0 L89 0 Z " />
<glyph glyph-name="icircumflex" unicode="&#xee;" horiz-adv-x="285" d="M89 0 L89 491 L196 491 L196 0 L89 0 Z M22 547 L-19 594 L142 729 L302 595 L262 547 L142 632 L22 547 Z " />
<glyph glyph-name="idieresis" unicode="&#xef;" horiz-adv-x="285" d="M185 582 L185 699 L291 699 L291 582 L185 582 Z M-6 582 L-6 699 L100 699 L100 582 L-6 582 Z M89 0 L89 491 L196 491 L196 0 L89 0 Z " />
<glyph glyph-name="ntilde" unicode="&#xf1;" horiz-adv-x="580" d="M188 491 Q190 475 190.5 458 Q191 441 192 424 L194 424 Q209 456 245.5 479.5 Q282 503 336 503 Q417 503 458 454 Q499 405 499 319 L499 0 L392 0 L392 301 Q392 353 372.5 383 Q353 413 304 413 Q283 413 263.5 405 Q244 397 229 380.5 Q214 364 205.5 338.5 Q197 313 197 277 L197 0 L90 0 L90 335 Q90 371 89 411 Q88 451 85 491 L188 491 Z M236 619 Q219 619 209.5 608.5 Q200 598 200 578 L136 578 Q136 628 163.5 661.5 Q191 695 236 695 Q259 695 276 687 Q293 679 307 668 Q320 659 330 654 Q340 649 353 649 Q370 649 379.5 660 Q389 671 389 690 L453 690 Q453 640 425.5 607 Q398 574 353 574 Q329 574 312 581.5 Q295 589 281 600 Q269 609 259 614 Q249 619 236 619 Z " />
<glyph glyph-name="oacute" unicode="&#xf3;" horiz-adv-x="561" d="M504 245 Q504 184 487.5 136 Q471 88 441.5 55 Q412 22 371 4.5 Q330 -13 280 -13 Q230 -13 189 4.5 Q148 22 119 55 Q90 88 73.5 136 Q57 184 57 245 Q57 306 73.5 354 Q90 402 119 435 Q148 468 189 485.5 Q230 503 280 503 Q330 503 371 485.5 Q412 468 441.5 435 Q471 402 487.5 354 Q504 306 504 245 Z M393 245 Q393 332 363.5 375 Q334 418 280 418 Q226 418 196.5 375 Q167 332 167 245 Q167 158 196.5 115 Q226 72 280 72 Q334 72 363.5 115 Q393 158 393 245 Z M170 550 L146 596 L364 736 L406 648 L170 550 Z " />
<glyph glyph-name="ograve" unicode="&#xf2;" horiz-adv-x="561" d="M504 245 Q504 184 487.5 136 Q471 88 441.5 55 Q412 22 371 4.5 Q330 -13 280 -13 Q230 -13 189 4.5 Q148 22 119 55 Q90 88 73.5 136 Q57 184 57 245 Q57 306 73.5 354 Q90 402 119 435 Q148 468 189 485.5 Q230 503 280 503 Q330 503 371 485.5 Q412 468 441.5 435 Q471 402 487.5 354 Q504 306 504 245 Z M393 245 Q393 332 363.5 375 Q334 418 280 418 Q226 418 196.5 375 Q167 332 167 245 Q167 158 196.5 115 Q226 72 280 72 Q334 72 363.5 115 Q393 158 393 245 Z M155 648 L198 736 L415 596 L391 550 L155 648 Z " />
<glyph glyph-name="ocircumflex" unicode="&#xf4;" horiz-adv-x="561" d="M504 245 Q504 184 487.5 136 Q471 88 441.5 55 Q412 22 371 4.5 Q330 -13 280 -13 Q230 -13 189 4.5 Q148 22 119 55 Q90 88 73.5 136 Q57 184 57 245 Q57 306 73.5 354 Q90 402 119 435 Q148 468 189 485.5 Q230 503 280 503 Q330 503 371 485.5 Q412 468 441.5 435 Q471 402 487.5 354 Q504 306 504 245 Z M393 245 Q393 332 363.5 375 Q334 418 280 418 Q226 418 196.5 375 Q167 332 167 245 Q167 158 196.5 115 Q226 72 280 72 Q334 72 363.5 115 Q393 158 393 245 Z M160 547 L119 594 L280 729 L440 595 L400 547 L280 632 L160 547 Z " />
<glyph glyph-name="odieresis" unicode="&#xf6;" horiz-adv-x="561" d="M504 245 Q504 184 487.5 136 Q471 88 441.5 55 Q412 22 371 4.5 Q330 -13 280 -13 Q230 -13 189 4.5 Q148 22 119 55 Q90 88 73.5 136 Q57 184 57 245 Q57 306 73.5 354 Q90 402 119 435 Q148 468 189 485.5 Q230 503 280 503 Q330 503 371 485.5 Q412 468 441.5 435 Q471 402 487.5 354 Q504 306 504 245 Z M393 245 Q393 332 363.5 375 Q334 418 280 418 Q226 418 196.5 375 Q167 332 167 245 Q167 158 196.5 115 Q226 72 280 72 Q334 72 363.5 115 Q393 158 393 245 Z M324 582 L324 699 L430 699 L430 582 L324 582 Z M133 582 L133 699 L239 699 L239 582 L133 582 Z " />
<glyph glyph-name="otilde" unicode="&#xf5;" horiz-adv-x="561" d="M504 245 Q504 184 487.5 136 Q471 88 441.5 55 Q412 22 371 4.5 Q330 -13 280 -13 Q230 -13 189 4.5 Q148 22 119 55 Q90 88 73.5 136 Q57 184 57 245 Q57 306 73.5 354 Q90 402 119 435 Q148 468 189 485.5 Q230 503 280 503 Q330 503 371 485.5 Q412 468 441.5 435 Q471 402 487.5 354 Q504 306 504 245 Z M393 245 Q393 332 363.5 375 Q334 418 280 418 Q226 418 196.5 375 Q167 332 167 245 Q167 158 196.5 115 Q226 72 280 72 Q334 72 363.5 115 Q393 158 393 245 Z M222 619 Q205 619 195.5 608.5 Q186 598 186 578 L122 578 Q122 628 149.5 661.5 Q177 695 222 695 Q245 695 262 687 Q279 679 293 668 Q306 659 316 654 Q326 649 339 649 Q356 649 365.5 660 Q375 671 375 690 L439 690 Q439 640 411.5 607 Q384 574 339 574 Q315 574 298 581.5 Q281 589 267 600 Q255 609 245 614 Q235 619 222 619 Z " />
<glyph glyph-name="uacute" unicode="&#xfa;" horiz-adv-x="582" d="M394 0 Q392 13 391.5 31.5 Q391 50 390 67 L388 67 Q374 35 339.5 11.5 Q305 -12 252 -12 Q169 -12 126.5 36 Q84 84 84 169 L84 491 L191 491 L191 188 Q191 134 211 105.5 Q231 77 278 77 Q300 77 319.5 84.5 Q339 92 353.5 108.5 Q368 125 376.5 151.5 Q385 178 385 215 L385 491 L492 491 L492 155 Q492 119 493.5 78 Q495 37 497 0 L394 0 Z M177 550 L153 596 L371 736 L413 648 L177 550 Z " />
<glyph glyph-name="ugrave" unicode="&#xf9;" horiz-adv-x="582" d="M394 0 Q392 13 391.5 31.5 Q391 50 390 67 L388 67 Q374 35 339.5 11.5 Q305 -12 252 -12 Q169 -12 126.5 36 Q84 84 84 169 L84 491 L191 491 L191 188 Q191 134 211 105.5 Q231 77 278 77 Q300 77 319.5 84.5 Q339 92 353.5 108.5 Q368 125 376.5 151.5 Q385 178 385 215 L385 491 L492 491 L492 155 Q492 119 493.5 78 Q495 37 497 0 L394 0 Z M163 648 L206 736 L423 596 L399 550 L163 648 Z " />
<glyph glyph-name="ucircumflex" unicode="&#xfb;" horiz-adv-x="582" d="M394 0 Q392 13 391.5 31.5 Q391 50 390 67 L388 67 Q374 35 339.5 11.5 Q305 -12 252 -12 Q169 -12 126.5 36 Q84 84 84 169 L84 491 L191 491 L191 188 Q191 134 211 105.5 Q231 77 278 77 Q300 77 319.5 84.5 Q339 92 353.5 108.5 Q368 125 376.5 151.5 Q385 178 385 215 L385 491 L492 491 L492 155 Q492 119 493.5 78 Q495 37 497 0 L394 0 Z M166 547 L125 594 L286 729 L446 595 L406 547 L286 632 L166 547 Z " />
<glyph glyph-name="udieresis" unicode="&#xfc;" horiz-adv-x="582" d="M394 0 Q392 13 391.5 31.5 Q391 50 390 67 L388 67 Q374 35 339.5 11.5 Q305 -12 252 -12 Q169 -12 126.5 36 Q84 84 84 169 L84 491 L191 491 L191 188 Q191 134 211 105.5 Q231 77 278 77 Q300 77 319.5 84.5 Q339 92 353.5 108.5 Q368 125 376.5 151.5 Q385 178 385 215 L385 491 L492 491 L492 155 Q492 119 493.5 78 Q495 37 497 0 L394 0 Z M329 582 L329 699 L435 699 L435 582 L329 582 Z M138 582 L138 699 L244 699 L244 582 L138 582 Z " />
<glyph glyph-name="degree" unicode="&#xb0;" horiz-adv-x="417" d="M54 555 Q54 587 66 615 Q78 643 99 664 Q120 685 148 697 Q176 709 208 709 Q240 709 268.5 697 Q297 685 318 664 Q339 643 351 615 Q363 587 363 555 Q363 523 351 494.5 Q339 466 318 445 Q297 424 268.5 412 Q240 400 208 400 Q176 400 148 412 Q120 424 99 445 Q78 466 66 494.5 Q54 523 54 555 Z M123 555 Q123 537 129.5 521.5 Q136 506 147.5 494.5 Q159 483 174.5 476 Q190 469 208 469 Q226 469 241.5 476 Q257 483 268.5 494.5 Q280 506 287 521.5 Q294 537 294 555 Q294 573 287 588.5 Q280 604 268.5 615.5 Q257 627 241.5 633.5 Q226 640 208 640 Q173 640 148 615 Q123 590 123 555 Z " />
<glyph glyph-name="section" unicode="&#xa7;" horiz-adv-x="586" d="M231 206 Q277 163 309.5 144 Q342 125 369 125 Q406 125 424 145.5 Q442 166 442 196 Q442 229 420.5 262 Q399 295 353 339 Q307 382 274.5 401 Q242 420 215 420 Q178 420 160 399.5 Q142 379 142 349 Q142 316 163.5 283 Q185 250 231 206 Z M156 152 Q102 203 74.5 247.5 Q47 292 48 346 Q48 387 61.5 414 Q75 441 94 457.5 Q113 474 134.5 480.5 Q156 487 173 487 Q181 487 193 486.5 Q205 486 216 481 Q187 508 168.5 537 Q150 566 150 601 Q150 661 190.5 693.5 Q231 726 297 726 Q366 726 404 693 Q442 660 442 607 Q442 590 439 578 L352 571 Q354 579 354 584 Q354 589 354 597 Q354 623 339.5 636.5 Q325 650 299 650 Q278 650 260.5 638 Q243 626 243 601 Q243 580 255 563 Q267 546 294 520 L428 393 Q482 342 509 297 Q536 252 536 199 Q536 158 522.5 131 Q509 104 490 87.5 Q471 71 449 64.5 Q427 58 411 58 Q403 58 391 58.5 Q379 59 368 64 Q397 37 416 8 Q435 -21 435 -56 Q435 -116 394 -148 Q353 -180 287 -180 Q218 -180 180 -147.5 Q142 -115 142 -61 Q142 -53 143 -46 Q144 -39 145 -32 L232 -25 Q230 -33 230 -38 Q230 -43 230 -51 Q230 -77 244.5 -90.5 Q259 -104 285 -104 Q310 -104 324.5 -92 Q339 -80 339 -57 Q339 -32 322.5 -12 Q306 8 273 40 L156 152 Z " />
<glyph glyph-name="paragraph" unicode="&#xb6;" horiz-adv-x="665" d="M278 286 Q231 286 190.5 301 Q150 316 120 344 Q90 372 73 410.5 Q56 449 56 497 Q56 545 73 583.5 Q90 622 120 650 Q150 678 190.5 693 Q231 708 278 708 L562 708 L562 -143 L477 -143 L477 639 L364 639 L364 -143 L279 -143 L278 286 Z " />
<glyph glyph-name="registered" unicode="&#xae;" horiz-adv-x="860" d="M606 456 Q606 427 599 406 Q592 385 580.5 370 Q569 355 554 346 Q539 337 523 331 L604 132 L522 132 L455 318 L368 318 L368 132 L296 132 L296 584 L453 584 Q484 584 512 575 Q540 566 561 549.5 Q582 533 594 509.5 Q606 486 606 456 Z M531 451 Q531 483 509.5 501 Q488 519 450 519 L368 519 L368 383 L447 383 Q483 383 507 398 Q531 413 531 451 Z M119 355 Q119 289 143 231.5 Q167 174 209 132 Q251 90 307.5 65.5 Q364 41 430 41 Q495 41 552 65.5 Q609 90 651 132 Q693 174 717 231.5 Q741 289 741 355 Q741 421 717 478.5 Q693 536 651 578 Q609 620 552 644.5 Q495 669 430 669 Q364 669 307.5 644.5 Q251 620 209 578 Q167 536 143 478.5 Q119 421 119 355 Z M57 355 Q57 433 85.5 500.5 Q114 568 164.5 618 Q215 668 283 696.5 Q351 725 430 725 Q508 725 576.5 696.5 Q645 668 695 618 Q745 568 774 500.5 Q803 433 803 355 Q803 277 774 209.5 Q745 142 695 92 Q645 42 576.5 13.5 Q508 -15 430 -15 Q351 -15 283 13.5 Q215 42 164.5 92 Q114 142 85.5 209.5 Q57 277 57 355 Z " />
<glyph glyph-name="copyright" unicode="&#xa9;" horiz-adv-x="860" d="M606 277 Q603 251 592 224 Q581 197 559.5 175 Q538 153 505.5 139 Q473 125 426 125 Q381 125 345 142.5 Q309 160 283 190.5 Q257 221 243 264 Q229 307 229 358 Q229 409 243.5 452 Q258 495 284 526 Q310 557 347.5 574.5 Q385 592 430 592 Q470 592 501 579 Q532 566 553 545 Q574 524 586 497.5 Q598 471 600 444 L528 434 Q522 478 499 502.5 Q476 527 428 527 Q376 527 340.5 484.5 Q305 442 305 358 Q305 274 340.5 231.5 Q376 189 428 189 Q479 189 502.5 215.5 Q526 242 532 284 L606 277 Z M119 355 Q119 289 143 231.5 Q167 174 209 132 Q251 90 307.5 65.5 Q364 41 430 41 Q495 41 552 65.5 Q609 90 651 132 Q693 174 717 231.5 Q741 289 741 355 Q741 421 717 478.5 Q693 536 651 578 Q609 620 552 644.5 Q495 669 430 669 Q364 669 307.5 644.5 Q251 620 209 578 Q167 536 143 478.5 Q119 421 119 355 Z M57 355 Q57 433 85.5 500.5 Q114 568 164.5 618 Q215 668 283 696.5 Q351 725 430 725 Q508 725 576.5 696.5 Q645 668 695 618 Q745 568 774 500.5 Q803 433 803 355 Q803 277 774 209.5 Q745 142 695 92 Q645 42 576.5 13.5 Q508 -15 430 -15 Q351 -15 283 13.5 Q215 42 164.5 92 Q114 142 85.5 209.5 Q57 277 57 355 Z " />
<glyph glyph-name="acute" unicode="&#xb4;" horiz-adv-x="241" d="M29 550 L5 596 L223 736 L265 648 L29 550 Z " />
<glyph glyph-name="dieresis" unicode="&#xa8;" horiz-adv-x="225" d="M155 582 L155 699 L261 699 L261 582 L155 582 Z M-36 582 L-36 699 L70 699 L70 582 L-36 582 Z " />
<glyph glyph-name="AE" unicode="&#xc6;" horiz-adv-x="819" d="M355 710 L773 710 L773 611 L497 611 L497 413 L718 413 L718 318 L497 318 L497 98 L773 98 L773 0 L383 0 L383 148 L217 148 L151 0 L23 0 L355 710 Z M383 525 L380 525 Q373 507 365.5 489.5 Q358 472 345 442.5 Q332 413 311.5 366 Q291 319 258 242 L383 242 L383 525 Z " />
<glyph glyph-name="ordmasculine" unicode="&#xba;" horiz-adv-x="400" d="M365 533 Q365 443 318 394.5 Q271 346 198 346 Q161 346 130.5 358.5 Q100 371 77.5 395 Q55 419 42.5 453.5 Q30 488 30 533 Q30 578 42.5 613 Q55 648 77.5 672 Q100 696 130.5 708.5 Q161 721 198 721 Q271 721 318 672 Q365 623 365 533 Z M106 533 Q106 467 131.5 437.5 Q157 408 198 408 Q238 408 263.5 437.5 Q289 467 289 533 Q289 599 263.5 629 Q238 659 198 659 Q157 659 131.5 629 Q106 599 106 533 Z " />
<glyph glyph-name="ae" unicode="&#xe6;" horiz-adv-x="832" d="M766 136 Q760 110 746 83.5 Q732 57 709 35.5 Q686 14 652 0.5 Q618 -13 572 -13 Q507 -13 464 14.5 Q421 42 397 90 Q375 45 328 16 Q281 -13 220 -13 Q187 -13 157.5 -3 Q128 7 105.5 26.5 Q83 46 70 74.5 Q57 103 57 139 Q57 181 74 209.5 Q91 238 119.5 255.5 Q148 273 185 280.5 Q222 288 263 288 L359 288 L359 352 Q359 384 340.5 403.5 Q322 423 273 423 Q226 423 205 402.5 Q184 382 184 344 L79 352 Q79 385 91 412.5 Q103 440 127 460 Q151 480 187 491.5 Q223 503 271 503 Q336 503 371 486 Q406 469 427 442 Q453 469 488 486 Q523 503 571 503 Q619 503 657.5 486.5 Q696 470 723 438.5 Q750 407 764.5 362.5 Q779 318 779 263 Q779 248 778.5 236 Q778 224 776 212 L463 212 Q463 145 491.5 107.5 Q520 70 574 70 Q610 70 635.5 90.5 Q661 111 671 150 L766 136 Z M672 288 Q670 351 645.5 386.5 Q621 422 568 422 Q520 422 492.5 386 Q465 350 463 288 L672 288 Z M359 213 L280 213 Q257 213 236 210.5 Q215 208 199 200 Q183 192 173 177.5 Q163 163 163 139 Q163 107 185 89 Q207 71 243 71 Q280 71 310.5 94 Q341 117 359 153 L359 213 Z " />
<glyph glyph-name="guillemotleft" unicode="&#xab;" horiz-adv-x="504" d="M141 252 Q170 210 198.5 170.5 Q227 131 256 89 L200 50 L47 252 L200 453 L256 414 L141 252 Z M330 252 L446 89 L389 50 L237 252 L389 453 L446 414 L330 252 Z " />
<glyph glyph-name="guillemotright" unicode="&#xbb;" horiz-adv-x="504" d="M243 414 L299 453 L452 252 L299 50 L243 89 Q272 131 300.5 170.5 Q329 210 358 252 L243 414 Z M53 414 L110 453 L262 252 L110 50 L53 89 L169 252 L53 414 Z " />
<glyph glyph-name="ellipsis" unicode="&#x2026;" horiz-adv-x="991" d="M102 0 L102 124 L223 124 L223 0 L102 0 Z M435 0 L435 124 L556 124 L556 0 L435 0 Z M768 0 L768 124 L889 124 L889 0 L768 0 Z " />
<glyph glyph-name="Agrave" unicode="&#xc0;" horiz-adv-x="617" d="M460 0 L421 142 L190 142 L150 0 L28 0 L251 710 L364 710 L588 0 L460 0 Z M343 428 Q334 461 324 497.5 Q314 534 307 570 L305 570 Q298 534 288.5 497.5 Q279 461 270 427 L217 239 L394 239 L343 428 Z M176 863 L219 951 L436 811 L412 765 L176 863 Z " />
<glyph glyph-name="Atilde" unicode="&#xc3;" horiz-adv-x="617" d="M460 0 L421 142 L190 142 L150 0 L28 0 L251 710 L364 710 L588 0 L460 0 Z M343 428 Q334 461 324 497.5 Q314 534 307 570 L305 570 Q298 534 288.5 497.5 Q279 461 270 427 L217 239 L394 239 L343 428 Z M247 830 Q230 830 220.5 819.5 Q211 809 211 789 L147 789 Q147 839 174.5 872.5 Q202 906 247 906 Q270 906 287 898 Q304 890 318 879 Q331 870 341 865 Q351 860 364 860 Q381 860 390.5 871 Q400 882 400 901 L464 901 Q464 851 436.5 818 Q409 785 364 785 Q340 785 323 792.5 Q306 800 292 811 Q280 820 270 825 Q260 830 247 830 Z " />
<glyph glyph-name="OE" unicode="&#x152;" horiz-adv-x="850" d="M421 0 Q404 -7 380.5 -11 Q357 -15 333 -15 Q271 -15 220.5 9 Q170 33 135 79.5 Q100 126 81 195 Q62 264 62 355 Q62 446 81 515 Q100 584 135 630.5 Q170 677 220.5 700.5 Q271 724 333 724 Q384 724 421 710 L804 710 L804 611 L520 611 L520 413 L748 413 L748 317 L520 317 L520 99 L804 99 L804 0 L421 0 Z M402 615 Q373 626 336 626 Q305 626 277 612.5 Q249 599 228 567.5 Q207 536 194.5 484 Q182 432 182 355 Q182 278 194.5 226 Q207 174 228 142 Q249 110 277 96.5 Q305 83 336 83 Q356 83 372.5 85.5 Q389 88 402 93 L402 615 Z " />
<glyph glyph-name="oe" unicode="&#x153;" horiz-adv-x="871" d="M802 136 Q796 110 782 83.5 Q768 57 744.5 35.5 Q721 14 687 0.5 Q653 -13 607 -13 Q551 -13 511 9 Q471 31 442 70 Q413 30 372.5 8.5 Q332 -13 278 -13 Q229 -13 188 4.5 Q147 22 118 55 Q89 88 72.5 136 Q56 184 56 245 Q56 306 72.5 354 Q89 402 118 435 Q147 468 188 485.5 Q229 503 278 503 Q336 503 375.5 480 Q415 457 442 418 Q469 459 510.5 481 Q552 503 606 503 Q653 503 692 486 Q731 469 758.5 438 Q786 407 801.5 362 Q817 317 817 262 Q817 234 814 212 L496 212 Q496 141 528 106 Q560 71 609 71 Q645 71 670.5 91 Q696 111 706 150 L802 136 Z M708 288 Q706 351 680.5 385 Q655 419 603 419 Q555 419 527 384 Q499 349 497 288 L708 288 Z M278 72 Q332 72 361 115 Q390 158 390 245 Q390 332 361 375 Q332 418 278 418 Q224 418 195 375 Q166 332 166 245 Q166 158 195 115 Q224 72 278 72 Z " />
<glyph glyph-name="endash" unicode="&#x2013;" horiz-adv-x="600" d="M50 241 L50 333 L550 333 L550 241 L50 241 Z " />
<glyph glyph-name="emdash" unicode="&#x2014;" horiz-adv-x="987" d="M123 241 L123 333 L863 333 L863 241 L123 241 Z " />
<glyph glyph-name="quotedblleft" unicode="&#x201c;" horiz-adv-x="471" d="M80 564 Q80 640 106 676.5 Q132 713 194 720 L194 669 Q161 664 150.5 645.5 Q140 627 140 583 L140 577 L201 577 L201 453 L80 453 L80 564 Z M270 564 Q270 640 296 676.5 Q322 713 384 720 L384 669 Q351 664 340.5 645.5 Q330 627 330 583 L330 577 L391 577 L391 453 L270 453 L270 564 Z " />
<glyph glyph-name="quotedblright" unicode="&#x201d;" horiz-adv-x="471" d="M391 598 Q391 520 364.5 484 Q338 448 277 443 L277 493 Q312 500 321 520 Q330 540 330 581 L330 586 L270 586 L270 710 L391 710 L391 598 Z M201 598 Q201 520 174.5 484 Q148 448 87 443 L87 493 Q122 500 131 520 Q140 540 140 581 L140 586 L80 586 L80 710 L201 710 L201 598 Z " />
<glyph glyph-name="quoteleft" unicode="&#x2018;" horiz-adv-x="326" d="M103 564 Q103 640 129 676.5 Q155 713 217 720 L217 669 Q184 664 173.5 645.5 Q163 627 163 583 L163 577 L224 577 L224 453 L103 453 L103 564 Z " />
<glyph glyph-name="quoteright" unicode="&#x2019;" horiz-adv-x="326" d="M223 598 Q223 520 196.5 484 Q170 448 109 443 L109 493 Q144 500 153 520 Q162 540 162 581 L162 586 L102 586 L102 710 L223 710 L223 598 Z " />
<glyph glyph-name="ydieresis" unicode="&#xff;" horiz-adv-x="509" d="M270 -92 Q260 -119 247.5 -141 Q235 -163 217.5 -178.5 Q200 -194 175 -202.5 Q150 -211 114 -211 Q54 -211 -6 -175 L25 -102 Q49 -114 66.5 -120 Q84 -126 109 -126 Q130 -126 144 -115 Q158 -104 168 -86.5 Q178 -69 185.5 -46 Q193 -23 201 1 L19 491 L137 491 L223 233 Q236 192 242 170 Q248 148 253 129 L255 129 Q260 154 269 183.5 Q278 213 288 242 L369 491 L485 491 L270 -92 Z M296 582 L296 699 L402 699 L402 582 L296 582 Z M105 582 L105 699 L211 699 L211 582 L105 582 Z " />
<glyph glyph-name="Ydieresis" unicode="&#x178;" horiz-adv-x="588" d="M356 297 L356 0 L237 0 L237 297 L17 710 L156 710 L297 427 L438 710 L571 710 L356 297 Z M340 797 L340 914 L446 914 L446 797 L340 797 Z M149 797 L149 914 L255 914 L255 797 L149 797 Z " />
<glyph glyph-name="guilsinglleft" unicode="&#x2039;" horiz-adv-x="317" d="M141 252 Q170 210 198.5 170.5 Q227 131 256 89 L200 50 L47 252 L200 453 L256 414 L141 252 Z " />
<glyph glyph-name="guilsinglright" unicode="&#x203a;" horiz-adv-x="317" d="M60 414 L117 453 L269 252 L117 50 L60 89 L176 252 L60 414 Z " />
<glyph glyph-name="fi" unicode="&#xfb01;" horiz-adv-x="667" d="M470 0 L470 408 L233 408 L233 0 L126 0 L126 408 L28 408 L28 491 L126 491 L126 555 Q126 588 131.5 623 Q137 658 162 685 Q200 726 276 726 Q314 726 340.5 716.5 Q367 707 390 695 L362 624 Q346 632 330 636 Q314 640 294 640 Q274 640 262 633 Q250 626 243 615 Q237 604 235 585.5 Q233 567 233 542 L233 491 L577 491 L577 0 L470 0 Z M469 587 L469 705 L579 705 L579 587 L469 587 Z " />
<glyph glyph-name="fl" unicode="&#xfb02;" horiz-adv-x="667" d="M577 0 L470 0 L470 626 Q428 628 390.5 634 Q353 640 306 640 Q284 640 270 635.5 Q256 631 247.5 620 Q239 609 236 590 Q233 571 233 542 L233 491 L367 491 L367 408 L233 408 L233 0 L126 0 L126 408 L28 408 L28 491 L126 491 L126 555 Q126 583 131 613 Q136 643 153 668 Q170 693 202 709.5 Q234 726 289 726 Q323 726 352.5 722 Q382 718 414 713.5 Q446 709 485 704.5 Q524 700 577 700 L577 0 Z " />
<glyph glyph-name="quotesinglbase" unicode="&#x201a;" horiz-adv-x="326" d="M223 12 Q223 -65 196.5 -101 Q170 -137 109 -143 L109 -92 Q143 -87 152.5 -67.5 Q162 -48 162 -4 L162 0 L102 0 L102 124 L223 124 L223 12 Z " />
<glyph glyph-name="quotedblbase" unicode="&#x201e;" horiz-adv-x="471" d="M201 12 Q201 -65 174.5 -101 Q148 -137 87 -143 L87 -92 Q121 -87 130.5 -67.5 Q140 -48 140 -4 L140 0 L80 0 L80 124 L201 124 L201 12 Z M391 12 Q391 -65 364.5 -101 Q338 -137 277 -143 L277 -92 Q311 -87 320.5 -67.5 Q330 -48 330 -4 L330 0 L270 0 L270 124 L391 124 L391 12 Z " />
<glyph glyph-name="perthousand" unicode="&#x2030;" horiz-adv-x="1247" d="M809 184 Q809 134 797 98 Q785 62 764.5 39 Q744 16 717.5 5 Q691 -6 662 -6 Q633 -6 606.5 5 Q580 16 560 39 Q540 62 528 98 Q516 134 516 184 Q516 234 528 269.5 Q540 305 560 328 Q580 351 606.5 361.5 Q633 372 662 372 Q691 372 717.5 361.5 Q744 351 764.5 328 Q785 305 797 269.5 Q809 234 809 184 Z M731 184 Q731 252 712.5 279.5 Q694 307 662 307 Q630 307 611.5 279.5 Q593 252 593 184 Q593 116 611.5 87.5 Q630 59 662 59 Q694 59 712.5 87.5 Q731 116 731 184 Z M368 513 Q368 463 356 427 Q344 391 324 368 Q304 345 277.5 334 Q251 323 222 323 Q193 323 166 334 Q139 345 119 368 Q99 391 87 427 Q75 463 75 513 Q75 563 87 598.5 Q99 634 119 657 Q139 680 166 690.5 Q193 701 222 701 Q251 701 277.5 690.5 Q304 680 324 657 Q344 634 356 598.5 Q368 563 368 513 Z M291 513 Q291 581 272.5 608.5 Q254 636 222 636 Q190 636 171.5 608.5 Q153 581 153 513 Q153 445 171.5 416.5 Q190 388 222 388 Q254 388 272.5 416.5 Q291 445 291 513 Z M1160 184 Q1160 134 1148 98 Q1136 62 1115.5 39 Q1095 16 1068.5 5 Q1042 -6 1013 -6 Q984 -6 957.5 5 Q931 16 911 39 Q891 62 879 98 Q867 134 867 184 Q867 234 879 269.5 Q891 305 911 328 Q931 351 957.5 361.5 Q984 372 1013 372 Q1042 372 1068.5 361.5 Q1095 351 1115.5 328 Q1136 305 1148 269.5 Q1160 234 1160 184 Z M1082 184 Q1082 252 1063.5 279.5 Q1045 307 1013 307 Q981 307 962.5 279.5 Q944 252 944 184 Q944 116 962.5 87.5 Q981 59 1013 59 Q1045 59 1063.5 87.5 Q1082 116 1082 184 Z M685 698 Q576 513 468 330.5 Q360 148 251 -37 L192 -4 L628 732 L685 698 Z " />
<glyph glyph-name="Acircumflex" unicode="&#xc2;" horiz-adv-x="617" d="M460 0 L421 142 L190 142 L150 0 L28 0 L251 710 L364 710 L588 0 L460 0 Z M343 428 Q334 461 324 497.5 Q314 534 307 570 L305 570 Q298 534 288.5 497.5 Q279 461 270 427 L217 239 L394 239 L343 428 Z M186 766 L145 813 L306 948 L466 814 L426 766 L306 851 L186 766 Z " />
<glyph glyph-name="Ecircumflex" unicode="&#xca;" horiz-adv-x="563" d="M98 0 L98 710 L517 710 L517 610 L217 610 L217 413 L461 413 L461 317 L217 317 L217 99 L517 99 L517 0 L98 0 Z M189 766 L148 813 L309 948 L469 814 L429 766 L309 851 L189 766 Z " />
<glyph glyph-name="Aacute" unicode="&#xc1;" horiz-adv-x="617" d="M460 0 L421 142 L190 142 L150 0 L28 0 L251 710 L364 710 L588 0 L460 0 Z M343 428 Q334 461 324 497.5 Q314 534 307 570 L305 570 Q298 534 288.5 497.5 Q279 461 270 427 L217 239 L394 239 L343 428 Z M200 765 L176 811 L394 951 L436 863 L200 765 Z " />
<glyph glyph-name="Edieresis" unicode="&#xcb;" horiz-adv-x="563" d="M98 0 L98 710 L517 710 L517 610 L217 610 L217 413 L461 413 L461 317 L217 317 L217 99 L517 99 L517 0 L98 0 Z M349 797 L349 914 L455 914 L455 797 L349 797 Z M158 797 L158 914 L264 914 L264 797 L158 797 Z " />
<glyph glyph-name="Egrave" unicode="&#xc8;" horiz-adv-x="563" d="M98 0 L98 710 L517 710 L517 610 L217 610 L217 413 L461 413 L461 317 L217 317 L217 99 L517 99 L517 0 L98 0 Z M179 863 L222 951 L439 811 L415 765 L179 863 Z " />
<glyph glyph-name="Iacute" unicode="&#xcd;" horiz-adv-x="319" d="M100 0 L100 710 L219 710 L219 0 L100 0 Z M56 765 L32 811 L250 951 L292 863 L56 765 Z " />
<glyph glyph-name="Icircumflex" unicode="&#xce;" horiz-adv-x="319" d="M100 0 L100 710 L219 710 L219 0 L100 0 Z M39 767 L-2 814 L159 949 L319 815 L279 767 L159 852 L39 767 Z " />
<glyph glyph-name="Idieresis" unicode="&#xcf;" horiz-adv-x="319" d="M100 0 L100 710 L219 710 L219 0 L100 0 Z M202 797 L202 914 L308 914 L308 797 L202 797 Z M11 797 L11 914 L117 914 L117 797 L11 797 Z " />
<glyph glyph-name="Igrave" unicode="&#xcc;" horiz-adv-x="319" d="M100 0 L100 710 L219 710 L219 0 L100 0 Z M27 863 L70 951 L287 811 L263 765 L27 863 Z " />
<glyph glyph-name="Oacute" unicode="&#xd3;" horiz-adv-x="659" d="M597 355 Q597 268 579.5 199.5 Q562 131 528.5 83 Q495 35 445 9.5 Q395 -16 329 -16 Q263 -16 213.5 9.5 Q164 35 130 83 Q96 131 79 199.5 Q62 268 62 355 Q62 442 79 511 Q96 580 130 627.5 Q164 675 213.5 700.5 Q263 726 329 726 Q395 726 445 700.5 Q495 675 528.5 627.5 Q562 580 579.5 511 Q597 442 597 355 Z M476 355 Q476 430 465.5 481.5 Q455 533 436 565 Q417 597 389.5 611.5 Q362 626 329 626 Q296 626 268.5 611.5 Q241 597 222 565 Q203 533 192.5 481.5 Q182 430 182 355 Q182 281 192.5 229 Q203 177 222 145 Q241 113 268.5 98.5 Q296 84 329 84 Q362 84 389.5 98.5 Q417 113 436 145 Q455 177 465.5 229 Q476 281 476 355 Z M218 765 L194 811 L412 951 L454 863 L218 765 Z " />
<glyph glyph-name="Ocircumflex" unicode="&#xd4;" horiz-adv-x="659" d="M597 355 Q597 268 579.5 199.5 Q562 131 528.5 83 Q495 35 445 9.5 Q395 -16 329 -16 Q263 -16 213.5 9.5 Q164 35 130 83 Q96 131 79 199.5 Q62 268 62 355 Q62 442 79 511 Q96 580 130 627.5 Q164 675 213.5 700.5 Q263 726 329 726 Q395 726 445 700.5 Q495 675 528.5 627.5 Q562 580 579.5 511 Q597 442 597 355 Z M476 355 Q476 430 465.5 481.5 Q455 533 436 565 Q417 597 389.5 611.5 Q362 626 329 626 Q296 626 268.5 611.5 Q241 597 222 565 Q203 533 192.5 481.5 Q182 430 182 355 Q182 281 192.5 229 Q203 177 222 145 Q241 113 268.5 98.5 Q296 84 329 84 Q362 84 389.5 98.5 Q417 113 436 145 Q455 177 465.5 229 Q476 281 476 355 Z M209 767 L168 814 L329 949 L489 815 L449 767 L329 852 L209 767 Z " />
<glyph glyph-name="uniF8FF" unicode="&#xf8ff;" horiz-adv-x="823" d="M40 361 Q40 438 69 505.5 Q98 573 148.5 623.5 Q199 674 266.5 703.5 Q334 733 411 733 Q488 733 555.5 703.5 Q623 674 673.5 623.5 Q724 573 753.5 505.5 Q783 438 783 361 Q783 284 753.5 216.5 Q724 149 673.5 98.5 Q623 48 555.5 19 Q488 -10 411 -10 Q334 -10 266.5 19 Q199 48 148.5 98.5 Q98 149 69 216.5 Q40 284 40 361 Z " />
<glyph glyph-name="Ograve" unicode="&#xd2;" horiz-adv-x="659" d="M597 355 Q597 268 579.5 199.5 Q562 131 528.5 83 Q495 35 445 9.5 Q395 -16 329 -16 Q263 -16 213.5 9.5 Q164 35 130 83 Q96 131 79 199.5 Q62 268 62 355 Q62 442 79 511 Q96 580 130 627.5 Q164 675 213.5 700.5 Q263 726 329 726 Q395 726 445 700.5 Q495 675 528.5 627.5 Q562 580 579.5 511 Q597 442 597 355 Z M476 355 Q476 430 465.5 481.5 Q455 533 436 565 Q417 597 389.5 611.5 Q362 626 329 626 Q296 626 268.5 611.5 Q241 597 222 565 Q203 533 192.5 481.5 Q182 430 182 355 Q182 281 192.5 229 Q203 177 222 145 Q241 113 268.5 98.5 Q296 84 329 84 Q362 84 389.5 98.5 Q417 113 436 145 Q455 177 465.5 229 Q476 281 476 355 Z M202 863 L245 951 L462 811 L438 765 L202 863 Z " />
<glyph glyph-name="Uacute" unicode="&#xda;" horiz-adv-x="661" d="M330 -16 Q275 -16 230 1 Q185 18 153 50 Q124 79 109.5 120 Q95 161 95 221 L95 710 L214 710 L214 226 Q214 153 239 121 Q269 83 330 83 Q391 83 421 121 Q435 138 440.5 163.5 Q446 189 446 226 L446 710 L566 710 L566 221 Q566 161 551 120 Q536 79 508 50 Q476 18 430.5 1 Q385 -16 330 -16 Z M222 765 L198 811 L416 951 L458 863 L222 765 Z " />
<glyph glyph-name="Ucircumflex" unicode="&#xdb;" horiz-adv-x="661" d="M330 -16 Q275 -16 230 1 Q185 18 153 50 Q124 79 109.5 120 Q95 161 95 221 L95 710 L214 710 L214 226 Q214 153 239 121 Q269 83 330 83 Q391 83 421 121 Q435 138 440.5 163.5 Q446 189 446 226 L446 710 L566 710 L566 221 Q566 161 551 120 Q536 79 508 50 Q476 18 430.5 1 Q385 -16 330 -16 Z M211 765 L170 812 L331 947 L491 813 L451 765 L331 850 L211 765 Z " />
<glyph glyph-name="Ugrave" unicode="&#xd9;" horiz-adv-x="661" d="M330 -16 Q275 -16 230 1 Q185 18 153 50 Q124 79 109.5 120 Q95 161 95 221 L95 710 L214 710 L214 226 Q214 153 239 121 Q269 83 330 83 Q391 83 421 121 Q435 138 440.5 163.5 Q446 189 446 226 L446 710 L566 710 L566 221 Q566 161 551 120 Q536 79 508 50 Q476 18 430.5 1 Q385 -16 330 -16 Z M204 863 L247 951 L464 811 L440 765 L204 863 Z " />
<glyph glyph-name="dotlessi" unicode="&#x131;" horiz-adv-x="285" d="M89 0 L89 491 L196 491 L196 0 L89 0 Z " />
<glyph glyph-name="circumflex" unicode="&#x2c6;" horiz-adv-x="244" d="M2 547 L-39 594 L122 729 L282 595 L242 547 L122 632 L2 547 Z " />
<glyph glyph-name="tilde" unicode="&#x2dc;" horiz-adv-x="244" d="M63 619 Q46 619 36.5 608.5 Q27 598 27 578 L-37 578 Q-37 628 -9.5 661.5 Q18 695 63 695 Q86 695 103 687 Q120 679 134 668 Q147 659 157 654 Q167 649 180 649 Q197 649 206.5 660 Q216 671 216 690 L280 690 Q280 640 252.5 607 Q225 574 180 574 Q156 574 139 581.5 Q122 589 108 600 Q96 609 86 614 Q76 619 63 619 Z " />
<glyph glyph-name="cedilla" unicode="&#xb8;" horiz-adv-x="238" d="M97 0 L140 0 L104 -57 L105 -58 Q112 -55 121 -53 Q130 -51 144 -51 Q157 -51 170 -55 Q183 -59 193.5 -67.5 Q204 -76 210.5 -88 Q217 -100 217 -116 Q217 -158 189 -178.5 Q161 -199 110 -199 Q82 -199 58.5 -192 Q35 -185 19 -175 L36 -136 Q49 -144 67 -149.5 Q85 -155 102 -155 Q122 -155 132 -146 Q142 -137 142 -123 Q142 -106 132.5 -98.5 Q123 -91 109 -91 Q99 -91 91 -93.5 Q83 -96 75 -104 L49 -83 L97 0 Z " />
<glyph glyph-name="caron" unicode="&#x2c7;" horiz-adv-x="244" d="M122 645 L242 730 L282 682 L122 548 L-39 683 L2 730 L122 645 Z " />
<glyph glyph-name="Eth" unicode="&#xd0;" horiz-adv-x="657" d="M595 362 Q595 284 581 217.5 Q567 151 533.5 102.5 Q500 54 445 27 Q390 0 308 0 L98 0 L98 311 L19 311 L19 398 L98 398 L98 710 L315 710 Q393 710 446.5 681 Q500 652 533 603.5 Q566 555 580.5 492 Q595 429 595 362 Z M474 355 Q474 404 466.5 450.5 Q459 497 440 533 Q421 569 388.5 591 Q356 613 305 613 L216 613 L216 398 L344 398 L344 311 L216 311 L216 96 L312 96 Q358 96 389 116 Q420 136 439 170.5 Q458 205 466 252.5 Q474 300 474 355 Z " />
<glyph glyph-name="Lslash" unicode="&#x141;" horiz-adv-x="536" d="M100 0 L100 264 L31 222 L31 304 L100 346 L100 710 L219 710 L219 420 L395 529 L395 447 L219 338 L219 100 L512 100 L512 0 L100 0 Z " />
<glyph glyph-name="onequarter" unicode="&#xbc;" horiz-adv-x="866" d="M271 695 L271 329 L191 329 L191 596 Q171 576 149.5 557.5 Q128 539 95 513 Q84 527 73 540 Q62 553 51 567 Q86 594 126 629 Q166 664 198 695 L271 695 Z M706 78 L706 0 L631 0 L631 78 L473 78 L473 132 L635 366 L706 366 L706 138 L760 138 L760 78 L706 78 Z M631 219 Q631 235 631 243 Q631 251 632 268 L630 268 Q623 254 614.5 241.5 Q606 229 597 216 L543 138 L631 138 L631 219 Z M668 698 Q559 513 451 330.5 Q343 148 234 -37 L175 -4 L611 732 L668 698 Z " />
<glyph glyph-name="onesuperior" unicode="&#xb9;" horiz-adv-x="369" d="M274 695 L274 329 L195 329 L195 595 Q175 575 152 555.5 Q129 536 96 510 L52 566 Q87 593 128.5 628.5 Q170 664 202 695 L274 695 Z " />
<glyph glyph-name="threesuperior" unicode="&#xb3;" horiz-adv-x="416" d="M344 438 Q344 386 305 354.5 Q266 323 205 323 Q145 323 107.5 349.5 Q70 376 65 429 L143 438 Q148 386 206 386 Q231 386 248.5 399.5 Q266 413 266 439 Q266 465 249.5 481 Q233 497 186 497 L159 497 L159 550 L186 550 Q207 550 220.5 554.5 Q234 559 241.5 565.5 Q249 572 251.5 581 Q254 590 254 599 Q254 616 239 627 Q224 638 203 638 Q180 638 165 626.5 Q150 615 148 593 L71 600 Q72 624 83.5 642.5 Q95 661 113 674 Q131 687 154 694 Q177 701 202 701 Q262 701 297.5 673 Q333 645 333 604 Q333 572 314.5 554 Q296 536 270 530 L270 527 Q298 519 321 498 Q344 477 344 438 Z " />
<glyph glyph-name="twosuperior" unicode="&#xb2;" horiz-adv-x="400" d="M334 593 Q334 577 332 562.5 Q330 548 323.5 533.5 Q317 519 304.5 503 Q292 487 271 469 Q245 446 221 430.5 Q197 415 165 395 Q179 396 194 396.5 Q209 397 223 397 L331 397 L331 329 L66 329 L66 398 Q109 426 141 449 Q173 472 208 503 Q226 519 235.5 531.5 Q245 544 249.5 554.5 Q254 565 255 573.5 Q256 582 256 590 Q256 609 242.5 622.5 Q229 636 204 636 Q179 636 160.5 621 Q142 606 142 570 L65 576 Q65 606 76 629 Q87 652 105.5 668 Q124 684 149 692.5 Q174 701 203 701 Q263 701 298.5 671 Q334 641 334 593 Z " />
<glyph glyph-name="brokenbar" unicode="&#xa6;" horiz-adv-x="285" d="M100 443 L100 840 L185 840 L185 443 L100 443 Z M100 -187 L100 209 L185 209 L185 -187 L100 -187 Z " />
<glyph glyph-name="dollar" unicode="&#x24;" horiz-adv-x="575" d="M265 -15 Q207 -12 165.5 6 Q124 24 97.5 54 Q71 84 58.5 123.5 Q46 163 46 210 L159 230 Q159 158 185.5 123 Q212 88 265 82 L265 325 L205 352 Q135 383 100 426.5 Q65 470 65 542 Q65 584 80 616.5 Q95 649 121.5 672 Q148 695 184.5 708 Q221 721 265 724 L265 812 L319 812 L319 725 Q374 720 411.5 701 Q449 682 472 654.5 Q495 627 505 594 Q515 561 515 528 L403 511 Q401 562 381 590.5 Q361 619 319 625 L319 417 L379 390 Q459 354 494.5 307.5 Q530 261 530 190 Q530 99 473.5 46.5 Q417 -6 319 -14 L319 -105 L265 -105 L265 -15 Z M414 182 Q414 220 393.5 248.5 Q373 277 319 301 L319 82 Q364 87 389 113.5 Q414 140 414 182 Z M181 548 Q181 509 200 484.5 Q219 460 265 440 L265 626 Q226 621 203.5 601 Q181 581 181 548 Z " />
<glyph glyph-name="asciicircum" unicode="&#x5e;" horiz-adv-x="643" d="M574 299 L504 261 L321 596 L319 596 L137 261 L67 299 L291 710 L348 710 L574 299 Z " />
<glyph glyph-name="braceleft" unicode="&#x7b;" horiz-adv-x="396" d="M53 303 Q100 304 117.5 325 Q135 346 135 402 L135 557 Q135 601 142 633 Q149 665 167 685.5 Q185 706 215 716 Q245 726 291 726 L340 726 L340 641 L303 641 Q283 641 271 635.5 Q259 630 253 619.5 Q247 609 245 593.5 Q243 578 243 557 L243 392 Q243 333 222.5 304 Q202 275 157 264 L157 262 Q200 251 221.5 223 Q243 195 243 134 L243 -31 Q243 -52 245 -68 Q247 -84 253 -94.5 Q259 -105 271 -110 Q283 -115 303 -115 L340 -115 L340 -200 L279 -200 Q236 -200 208 -188.5 Q180 -177 164 -155.5 Q148 -134 141.5 -102.5 Q135 -71 135 -31 L135 124 Q135 152 131 171 Q127 190 117.5 201 Q108 212 92.5 217 Q77 222 53 223 L53 303 Z " />
<glyph glyph-name="braceright" unicode="&#x7d;" horiz-adv-x="396" d="M343 223 Q319 222 303 217 Q287 212 278 201 Q269 190 265 171 Q261 152 261 124 L261 -31 Q261 -76 253.5 -108 Q246 -140 228 -160.5 Q210 -181 180 -190.5 Q150 -200 105 -200 L56 -200 L56 -115 L93 -115 Q133 -115 143 -95 Q153 -75 153 -31 L153 134 Q153 195 174 223 Q195 251 239 262 L239 264 Q195 274 174 302.5 Q153 331 153 392 L153 557 Q153 578 151 593.5 Q149 609 143 619.5 Q137 630 125 635.5 Q113 641 93 641 L56 641 L56 726 L117 726 Q160 726 187.5 714.5 Q215 703 231.5 681.5 Q248 660 254.5 628.5 Q261 597 261 557 L261 402 Q261 346 278 325 Q295 304 343 303 L343 223 Z " />
<glyph glyph-name="asciitilde" unicode="&#x7e;" horiz-adv-x="644" d="M272 231 Q257 241 244 245 Q231 249 214 249 Q193 249 174.5 233 Q156 217 131 173 L67 208 Q80 233 94.5 255 Q109 277 127 293.5 Q145 310 167 320 Q189 330 217 330 Q235 330 250.5 327 Q266 324 283 316.5 Q300 309 321 296 Q342 283 372 264 Q387 254 399.5 250 Q412 246 430 246 Q450 246 469 262 Q488 278 512 322 L576 287 Q564 262 549 240 Q534 218 516 201.5 Q498 185 476 175 Q454 165 427 165 Q409 165 393.5 168 Q378 171 361 178.5 Q344 186 323 198.5 Q302 211 272 231 Z " />
<glyph glyph-name="fraction" unicode="&#x2044;" horiz-adv-x="196" d="M-89 -37 L-148 -4 L287 732 L344 698 L-89 -37 Z " />
<glyph glyph-name="dagger" unicode="&#x2020;" horiz-adv-x="524" d="M215 -108 L215 409 Q207 409 187.5 409 Q168 409 143 408.5 Q118 408 91 408 Q64 408 41 408 L41 491 Q67 491 98 490.5 Q129 490 155 490 Q186 489 215 489 L215 709 L311 709 L311 489 Q319 489 340.5 489.5 Q362 490 388.5 490.5 Q415 491 441 491 Q467 491 485 491 L485 408 L371 408 Q340 408 311 409 L311 -108 L215 -108 Z " />
<glyph glyph-name="daggerdbl" unicode="&#x2021;" horiz-adv-x="499" d="M293 709 L293 489 Q301 489 322.5 489.5 Q344 490 370.5 490.5 Q397 491 423 491 Q449 491 467 491 L467 408 L353 408 Q322 408 293 409 L293 81 Q301 81 320.5 81.5 Q340 82 365 82.5 Q390 83 417 83 Q444 83 467 83 L467 0 L359 0 Q326 0 293 1 L293 -218 L197 -218 L197 1 Q189 1 169.5 1 Q150 1 125 0.5 Q100 0 73 0 Q46 0 23 0 L23 83 Q49 83 80 82.5 Q111 82 137 82 Q168 81 197 81 L197 409 Q189 409 169.5 409 Q150 409 125 408.5 Q100 408 73 408 Q46 408 23 408 L23 491 Q49 491 80 490.5 Q111 490 137 490 Q168 489 197 489 L197 709 L293 709 Z " />
<glyph glyph-name="cent" unicode="&#xa2;" horiz-adv-x="575" d="M406 173 Q432 170 457.5 167 Q483 164 509 162 Q504 133 493 103.5 Q482 74 461 50 Q440 26 408 9 Q376 -8 330 -12 L330 -76 L277 -76 L277 -12 Q232 -8 195 12.5 Q158 33 132 66.5 Q106 100 91.5 146.5 Q77 193 77 249 Q77 355 130.5 423 Q184 491 277 502 L277 567 L330 567 L330 502 Q371 499 402 484.5 Q433 470 454 448.5 Q475 427 487 400 Q499 373 503 344 Q477 340 452 337 Q427 334 402 331 Q397 367 378 388 Q359 409 330 415 L330 75 Q366 82 383.5 107.5 Q401 133 406 173 Z M187 246 Q187 168 212 127 Q237 86 277 76 L277 414 Q235 403 211 360.5 Q187 318 187 246 Z " />
<glyph glyph-name="sterling" unicode="&#xa3;" horiz-adv-x="575" d="M225 523 Q225 500 227.5 475.5 Q230 451 234 430 L396 430 L396 359 L247 359 Q252 329 255.5 297.5 Q259 266 259 238 Q259 217 255.5 194.5 Q252 172 244.5 151.5 Q237 131 224.5 113.5 Q212 96 194 86 Q221 87 250.5 87.5 Q280 88 318 88 L520 88 L520 0 L66 0 L66 86 Q93 90 109.5 103 Q126 116 135.5 134.5 Q145 153 148 176.5 Q151 200 151 224 Q151 259 146 293.5 Q141 328 135 359 L56 359 L56 430 L121 430 Q113 468 113 520 Q113 564 126 602 Q139 640 166 667.5 Q193 695 234 710.5 Q275 726 331 726 Q383 726 420.5 712.5 Q458 699 482 675 Q506 651 517 618 Q528 585 528 547 Q528 537 527 527 Q526 517 524 506 L424 496 Q427 514 427 533 Q427 581 404 609 Q381 637 329 637 Q284 637 254.5 611.5 Q225 586 225 523 Z " />
<glyph glyph-name="bullet" unicode="&#x2022;" horiz-adv-x="491" d="M417 362 Q417 327 403.5 295.5 Q390 264 367 240.5 Q344 217 313 203.5 Q282 190 246 190 Q210 190 179 203.5 Q148 217 124.5 240.5 Q101 264 87.5 295 Q74 326 74 362 Q74 398 87.5 429 Q101 460 124.5 483 Q148 506 179.5 519.5 Q211 533 246 533 Q281 533 312 519.5 Q343 506 366.5 482.5 Q390 459 403.5 428 Q417 397 417 362 Z " />
<glyph glyph-name="germandbls" unicode="&#xdf;" horiz-adv-x="612" d="M90 529 Q90 571 103.5 607 Q117 643 143.5 669.5 Q170 696 209 711 Q248 726 298 726 Q352 726 392.5 712.5 Q433 699 460 676 Q487 653 500.5 620.5 Q514 588 514 551 Q514 523 505.5 498.5 Q497 474 481 454.5 Q465 435 443.5 422 Q422 409 396 405 L396 403 Q427 397 453.5 382 Q480 367 499 344 Q518 321 529 289.5 Q540 258 540 221 Q540 108 486 48 Q432 -12 326 -12 Q306 -12 285 -8.5 Q264 -5 250 0 Q254 20 258 40 Q262 60 267 80 Q277 76 290 74.5 Q303 73 313 73 Q376 73 403 111.5 Q430 150 430 217 Q430 288 392.5 324 Q355 360 289 360 L265 360 L265 439 L289 439 Q321 439 343 447 Q365 455 378.5 469 Q392 483 398 501.5 Q404 520 404 540 Q404 585 379.5 612.5 Q355 640 302 640 Q254 640 225.5 611 Q197 582 197 525 L197 0 L90 0 L90 529 Z " />
<glyph glyph-name="trademark" unicode="&#x2122;" horiz-adv-x="838" d="M236 649 L236 318 L168 318 L168 649 L58 649 L58 710 L348 710 L348 649 L236 649 Z M693 318 L693 507 Q693 527 693 553 Q693 579 695 611 L693 611 Q685 580 678 555 Q671 530 663 508 L603 318 L553 318 L489 509 Q481 533 473.5 556.5 Q466 580 458 612 L456 612 Q458 579 458 553 Q458 527 458 507 L458 318 L396 318 L396 710 L488 710 L552 501 Q560 475 565 457 Q570 439 576 415 L578 415 Q583 439 588 457 Q593 475 601 501 L661 710 L756 710 L756 318 L693 318 Z " />
<glyph glyph-name="notequal" unicode="&#x2260;" horiz-adv-x="575" d="M387 387 L525 387 L525 306 L353 306 L310 208 L525 208 L525 127 L276 127 L222 0 L148 33 L187 127 L51 127 L51 208 L222 208 L264 306 L51 306 L51 387 L299 387 Q313 419 326.5 450.5 Q340 482 354 514 Q373 506 391.5 498 Q410 490 429 482 L387 387 Z " />
<glyph glyph-name="Oslash" unicode="&#xd8;" horiz-adv-x="659" d="M544 601 Q597 509 597 355 Q597 268 579.5 199.5 Q562 131 528.5 83 Q495 35 445 9.5 Q395 -16 329 -16 Q270 -16 224.5 4.5 Q179 25 146 63 L104 6 L60 37 L113 110 Q87 156 74.5 218 Q62 280 62 355 Q62 442 79 511 Q96 580 130 627.5 Q164 675 213.5 700.5 Q263 726 329 726 Q444 726 511 648 L555 707 L599 675 L544 601 Z M182 355 Q182 314 185.5 280.5 Q189 247 195 220 L442 554 Q422 593 393.5 610 Q365 627 329 627 Q296 627 268.5 612.5 Q241 598 222 565.5 Q203 533 192.5 481.5 Q182 430 182 355 Z M476 355 Q476 397 472.5 430.5 Q469 464 463 491 L216 157 Q235 118 264 100.5 Q293 83 329 83 Q362 83 389.5 97.5 Q417 112 436 144.5 Q455 177 465.5 229 Q476 281 476 355 Z " />
<glyph glyph-name="oslash" unicode="&#xf8;" horiz-adv-x="561" d="M504 245 Q504 184 487.5 136 Q471 88 441.5 55 Q412 22 371 4.5 Q330 -13 280 -13 Q210 -13 157 21 L100 -55 L59 -26 L119 55 Q89 88 73 135.5 Q57 183 57 245 Q57 306 73.5 354 Q90 402 119 435 Q148 468 189 485.5 Q230 503 280 503 Q360 503 416 458 L461 518 L502 488 L452 422 Q477 389 490.5 344.5 Q504 300 504 245 Z M167 245 Q167 213 171 188 Q175 163 183 143 L359 381 Q330 418 280 418 Q226 418 196.5 375 Q167 332 167 245 Z M393 245 Q393 269 390.5 289.5 Q388 310 383 327 L212 96 Q239 72 280 72 Q334 72 363.5 115 Q393 158 393 245 Z " />
<glyph glyph-name="infinity" unicode="&#x221e;" horiz-adv-x="575" d="M145 189 Q173 189 198 209.5 Q223 230 246 256 L234 269 Q214 291 191 308.5 Q168 326 143 326 Q120 326 106 306.5 Q92 287 92 257 Q92 225 106.5 207 Q121 189 145 189 Z M481 257 Q481 289 466.5 308 Q452 327 428 327 Q401 327 375 304.5 Q349 282 327 256 Q349 230 375 209.5 Q401 189 429 189 Q452 189 466.5 207 Q481 225 481 257 Z M561 260 Q561 227 551.5 200 Q542 173 525.5 153 Q509 133 485 122 Q461 111 433 111 Q389 111 354.5 136 Q320 161 288 202 Q256 161 221.5 136 Q187 111 144 111 Q86 111 49.5 150.5 Q13 190 13 259 Q13 291 22.5 318 Q32 345 48.5 365 Q65 385 88.5 396 Q112 407 141 407 Q183 407 219.5 380 Q256 353 288 311 Q320 353 353 380.5 Q386 408 430 408 Q488 408 524.5 368 Q561 328 561 260 Z " />
<glyph glyph-name="plusminus" unicode="&#xb1;" horiz-adv-x="575" d="M329 261 L329 116 L247 116 L247 261 L51 261 L51 342 L247 342 L247 488 L329 488 L329 342 L525 342 L525 261 L329 261 Z M525 81 L525 0 L51 0 L51 81 L525 81 Z " />
<glyph glyph-name="lessequal" unicode="&#x2264;" horiz-adv-x="575" d="M521 33 L521 -48 L47 -48 L47 33 L521 33 Z M47 334 L495 522 L528 445 L282 346 Q250 332 217 320 Q184 308 151 300 L151 298 Q170 293 188 287 Q206 281 225 274 L282 253 Q344 227 405 203 Q466 179 528 153 L495 77 Q382 124 270.5 170.5 Q159 217 47 264 L47 334 Z " />
<glyph glyph-name="greaterequal" unicode="&#x2265;" horiz-adv-x="575" d="M528 33 L528 -48 L54 -48 L54 33 L528 33 Z M528 264 Q415 217 303.5 170.5 Q192 124 80 77 L47 153 Q140 191 235 231.5 Q330 272 423 298 L423 300 Q399 307 373.5 315.5 Q348 324 323 334 L47 445 L80 522 L528 334 L528 264 Z " />
<glyph glyph-name="yen" unicode="&#xa5;" horiz-adv-x="575" d="M77 384 L199 384 L15 710 L151 710 L291 448 L431 710 L561 710 L380 384 L503 384 L503 311 L348 311 L348 247 L503 247 L503 174 L348 174 L348 0 L233 0 L233 174 L77 174 L77 247 L233 247 L233 311 L77 311 L77 384 Z " />
<glyph glyph-name="mu" unicode="&#xb5;" horiz-adv-x="585" d="M272 -13 Q250 -13 228 -3.5 Q206 6 195 21 L193 21 Q193 12 193.5 -11.5 Q194 -35 194 -61 L194 -200 L88 -200 L88 491 L195 491 L195 187 Q195 127 217 102 Q239 77 282 77 Q328 77 358.5 108 Q389 139 389 210 L389 491 L496 491 L496 154 Q496 118 497.5 77.5 Q499 37 501 0 L398 0 L394 66 L392 66 Q378 34 349 10.5 Q320 -13 272 -13 Z " />
<glyph glyph-name="partialdiff" unicode="&#x2202;" horiz-adv-x="535" d="M149 206 Q149 140 177 107 Q205 74 250 74 Q313 74 345 129.5 Q377 185 377 285 Q360 319 327.5 338.5 Q295 358 263 358 Q210 358 179.5 319.5 Q149 281 149 206 Z M92 658 Q124 688 163.5 706.5 Q203 725 248 725 Q306 725 343.5 706.5 Q381 688 404 656 Q428 624 443.5 584.5 Q459 545 468 501.5 Q477 458 480.5 414 Q484 370 484 330 Q484 276 478.5 235.5 Q473 195 464 164 Q437 69 381 26.5 Q325 -16 251 -16 Q204 -16 165.5 0 Q127 16 100 44.5 Q73 73 58 113.5 Q43 154 43 203 Q43 255 57.5 299.5 Q72 344 98.5 376 Q125 408 163.5 426.5 Q202 445 250 445 Q292 445 324.5 430.5 Q357 416 377 394 Q377 406 375.5 421.5 Q374 437 371.5 454.5 Q369 472 366 489 Q363 506 359 521 Q343 579 317 607.5 Q291 636 248 636 Q219 636 194.5 624.5 Q170 613 144 592 L92 658 Z " />
<glyph glyph-name="summation" unicode="&#x2211;" horiz-adv-x="479" d="M27 -218 L27 -129 L291 311 L27 753 L27 840 L455 840 L455 745 L155 745 L415 311 L155 -123 L455 -123 L455 -218 L27 -218 Z " />
<glyph glyph-name="product" unicode="&#x220f;" horiz-adv-x="619" d="M549 840 L549 -218 L443 -218 L443 745 L186 745 L186 -218 L80 -218 L80 840 L549 840 Z " />
<glyph glyph-name="pi" unicode="&#x3c0;" horiz-adv-x="585" d="M121 0 L121 409 L23 409 L23 491 L547 491 L547 409 L444 409 L444 117 Q444 88 453.5 77.5 Q463 67 483 67 Q497 67 507 69.5 Q517 72 530 80 L561 15 Q523 -11 469 -11 Q412 -11 381.5 22 Q351 55 351 112 L351 409 L214 409 L214 0 L121 0 Z " />
<glyph glyph-name="integral" unicode="&#x222b;" horiz-adv-x="501" d="M284 -90 Q284 -153 251 -186 Q218 -219 165 -219 Q123 -219 94 -204 Q65 -189 40 -162 L90 -99 Q115 -123 144 -123 Q182 -123 182 -79 L182 710 Q182 773 214.5 806.5 Q247 840 300 840 Q342 840 371.5 824.5 Q401 809 425 782 L376 719 Q362 731 350 737 Q338 743 321 743 Q284 743 284 700 L284 -90 Z " />
<glyph glyph-name="ordfeminine" unicode="&#xaa;" horiz-adv-x="398" d="M368 347 Q326 347 300 360.5 Q274 374 266 410 Q248 382 217.5 363 Q187 344 145 344 Q97 344 65.5 371.5 Q34 399 34 450 Q34 491 58 516.5 Q82 542 133 556 L236 580 Q253 585 257 590.5 Q261 596 261 606 L261 615 Q261 633 247.5 648 Q234 663 194 663 Q158 663 140 648 Q122 633 122 607 L46 612 Q46 659 84 690.5 Q122 722 194 722 Q267 722 301 691 Q335 660 335 616 L335 459 Q335 430 342 417 Q349 404 375 400 L368 347 Z M261 541 Q256 536 250.5 533 Q245 530 234 527 Q227 525 216.5 522 Q206 519 194.5 515.5 Q183 512 172.5 509 Q162 506 154 503 Q130 495 120.5 482 Q111 469 111 452 Q111 432 123 420 Q135 408 158 408 Q182 408 211 424 Q240 440 261 479 L261 541 Z " />
<glyph glyph-name="Omega" unicode="&#x2126;" horiz-adv-x="609" d="M306 635 Q235 635 191.5 584.5 Q148 534 148 424 Q148 338 175 285 Q202 232 266 208 L266 0 L62 0 L62 81 L186 81 L186 164 Q120 197 83 260 Q46 323 46 428 Q46 498 64.5 553 Q83 608 117.5 646 Q152 684 199.5 704 Q247 724 306 724 Q365 724 413 704 Q461 684 495 646 Q529 608 547.5 553 Q566 498 566 428 Q566 323 529 260 Q492 197 426 164 L426 81 L550 81 L550 0 L347 0 L347 208 Q411 232 437.5 285 Q464 338 464 424 Q464 479 452.5 519 Q441 559 420 584.5 Q399 610 370 622.5 Q341 635 306 635 Z " />
<glyph glyph-name="questiondown" unicode="&#xbf;" horiz-adv-x="530" d="M50 167 Q50 210 62.5 243 Q75 276 97.5 300.5 Q120 325 149.5 340.5 Q179 356 214 364 L214 516 L316 516 L316 307 Q234 299 197 262 Q160 225 160 174 Q160 129 185.5 101 Q211 73 258 73 Q305 73 331 101.5 Q357 130 358 183 L464 171 Q464 131 449.5 97 Q435 63 408.5 38 Q382 13 344 -1.5 Q306 -16 259 -16 Q208 -16 169 -1 Q130 14 103.5 39 Q77 64 63.5 97 Q50 130 50 167 Z M325 710 L325 586 L204 586 L204 710 L325 710 Z " />
<glyph glyph-name="exclamdown" unicode="&#xa1;" horiz-adv-x="365" d="M125 0 Q127 122 130 218.5 Q133 315 138 383 Q142 462 149 523 L215 523 Q222 462 227 383 Q232 315 236 218.5 Q240 122 242 0 L125 0 Z M246 710 L246 587 L119 587 L119 710 L246 710 Z " />
<glyph glyph-name="logicalnot" unicode="&#xac;" horiz-adv-x="575" d="M445 145 L445 299 L38 299 L38 387 L536 387 L536 145 L445 145 Z " />
<glyph glyph-name="radical" unicode="&#x221a;" horiz-adv-x="523" d="M309 -217 L229 -217 L76 91 L4 57 L-32 131 L126 208 L247 -42 L435 840 L540 840 L309 -217 Z " />
<glyph glyph-name="florin" unicode="&#x192;" horiz-adv-x="575" d="M253 370 L146 370 L163 460 L271 460 L294 583 Q308 654 345.5 690 Q383 726 452 726 Q491 726 526 709.5 Q561 693 584 673 L542 600 Q522 614 503 621 Q484 628 462 628 Q436 628 421.5 611 Q407 594 401 562 L382 460 L505 460 L488 370 L363 370 L277 -43 Q262 -114 225 -150 Q188 -186 119 -186 Q80 -186 44.5 -170 Q9 -154 -14 -133 L28 -61 Q48 -75 67 -81.5 Q86 -88 109 -88 Q134 -88 148 -71 Q162 -54 169 -22 L253 370 Z " />
<glyph glyph-name="approxequal" unicode="&#x2248;" horiz-adv-x="575" d="M270 311 Q248 323 234 330.5 Q220 338 209.5 342 Q199 346 190 347 Q181 348 170 348 Q138 348 125.5 333 Q113 318 113 297 L38 297 Q38 331 49 356 Q60 381 78.5 396.5 Q97 412 121.5 419.5 Q146 427 173 427 Q189 427 202.5 425 Q216 423 231 418 Q246 413 264 404 Q282 395 307 381 Q329 369 343 361.5 Q357 354 367.5 350 Q378 346 387 345 Q396 344 407 344 Q439 344 451.5 359 Q464 374 464 395 L538 395 Q538 360 527.5 335.5 Q517 311 498.5 295.5 Q480 280 455.5 272.5 Q431 265 404 265 Q388 265 374.5 267 Q361 269 346 274 Q331 279 313 288 Q295 297 270 311 Z M270 133 Q248 145 234 152.5 Q220 160 209.5 164 Q199 168 190 169 Q181 170 170 170 Q138 170 125.5 155 Q113 140 113 119 L38 119 Q38 153 49 178 Q60 203 78.5 218.5 Q97 234 121.5 241.5 Q146 249 173 249 Q189 249 202.5 247 Q216 245 231 240 Q246 235 264 226 Q282 217 307 203 Q329 191 343 183.5 Q357 176 367.5 172 Q378 168 387 167 Q396 166 407 166 Q439 166 451.5 181 Q464 196 464 217 L538 217 Q538 182 527.5 157.5 Q517 133 498.5 117.5 Q480 102 455.5 94.5 Q431 87 404 87 Q388 87 374.5 89 Q361 91 346 96 Q331 101 313 110 Q295 119 270 133 Z " />
<glyph glyph-name="Delta" unicode="&#x2206;" horiz-adv-x="614" d="M5 -1 L255 710 L338 710 L592 -1 L5 -1 Z M297 540 L145 91 L451 91 L297 540 Z " />
<glyph glyph-name="divide" unicode="&#xf7;" horiz-adv-x="575" d="M51 216 L51 297 L525 297 L525 216 L51 216 Z M227 374 L227 498 L348 498 L348 374 L227 374 Z M227 17 L227 141 L348 141 L348 17 L227 17 Z " />
<glyph glyph-name="lozenge" unicode="&#x25ca;" horiz-adv-x="589" d="M336 -22 L239 -22 L73 357 L239 735 L336 735 L505 356 L336 -22 Z M288 616 L178 356 L288 95 L400 357 L288 616 Z " />
<glyph glyph-name="Euro" unicode="&#x20ac;" horiz-adv-x="575" d="M559 172 Q554 133 538.5 99 Q523 65 496.5 39.5 Q470 14 431 -0.5 Q392 -15 340 -15 Q232 -15 171.5 60 Q111 135 97 272 L28 272 Q32 287 35.5 302 Q39 317 42 332 L93 332 L93 351 Q93 359 93 368.5 Q93 378 94 386 L30 386 Q33 401 36.5 416.5 Q40 432 44 447 L99 447 Q107 511 127 563 Q147 615 178 651 Q209 687 251 706.5 Q293 726 346 726 Q395 726 431.5 712.5 Q468 699 493 675.5 Q518 652 533.5 621 Q549 590 557 554 L447 527 Q432 629 345 629 Q289 629 257 582 Q225 535 214 447 L434 447 L418 386 L209 386 L209 332 L406 332 L390 272 L212 272 Q220 178 251 129.5 Q282 81 343 81 Q386 81 413.5 104.5 Q441 128 448 185 L559 172 Z " />
<glyph glyph-name="periodcentered" unicode="&#xb7;" horiz-adv-x="276" d="M70 202 L70 326 L191 326 L191 202 L70 202 Z " />
<glyph glyph-name="macron" unicode="&#xaf;" horiz-adv-x="241" d="M-16 602 L-16 672 L257 672 L257 602 L-16 602 Z " />
<glyph glyph-name="breve" unicode="&#x2d8;" horiz-adv-x="242" d="M121 574 Q60 574 20 604.5 Q-20 635 -22 703 L26 703 Q34 665 60 653 Q86 641 121 641 Q156 641 182 653 Q208 665 216 703 L263 703 Q261 635 221 604.5 Q181 574 121 574 Z " />
<glyph glyph-name="dotaccent" unicode="&#x2d9;" horiz-adv-x="234" d="M62 587 L62 705 L172 705 L172 587 L62 587 Z " />
<glyph glyph-name="ring" unicode="&#x2da;" horiz-adv-x="239" d="M65 653 Q65 630 81 614 Q97 598 120 598 Q143 598 158.5 614 Q174 630 174 653 Q174 676 158.5 691.5 Q143 707 120 707 Q97 707 81 691.5 Q65 676 65 653 Z M14 653 Q14 675 22.5 694 Q31 713 45 727 Q59 741 78.5 749.5 Q98 758 120 758 Q142 758 161.5 749.5 Q181 741 195 727 Q209 713 217.5 694 Q226 675 226 653 Q226 631 217.5 611.5 Q209 592 194.5 577.5 Q180 563 161 554.5 Q142 546 120 546 Q98 546 79 554.5 Q60 563 45.5 577.5 Q31 592 22.5 611.5 Q14 631 14 653 Z " />
<glyph glyph-name="hungarumlaut" unicode="&#x2dd;" horiz-adv-x="251" d="M168 546 L141 589 L325 732 L372 649 L168 546 Z M-50 546 L-77 589 L107 732 L154 649 L-50 546 Z " />
<glyph glyph-name="ogonek" unicode="&#x2db;" horiz-adv-x="238" d="M214 -147 Q194 -172 168 -183 Q142 -194 110 -194 Q68 -194 40 -176 Q12 -158 12 -117 Q12 -79 38 -50.5 Q64 -22 99 0 L160 0 Q127 -23 107.5 -48 Q88 -73 88 -102 Q88 -121 100 -131.5 Q112 -142 126 -142 Q158 -142 181 -116 L214 -147 Z " />
<glyph glyph-name="currency" unicode="&#xa4;" horiz-adv-x="578" d="M290 553 Q325 553 356.5 543 Q388 533 415 515 Q431 532 447 547.5 Q463 563 480 580 L538 520 L475 457 Q493 430 503 398.5 Q513 367 513 332 Q513 296 503 264 Q493 232 474 206 L538 141 L479 82 L415 147 Q388 129 356.5 119 Q325 109 290 109 Q255 109 223 119 Q191 129 165 147 Q149 130 132 113.5 Q115 97 100 82 L40 141 L106 206 Q66 258 66 332 Q66 367 76 398 Q86 429 104 456 Q88 472 72.5 488 Q57 504 40 520 L100 580 L165 515 Q220 553 290 553 Z M157 331 Q157 302 167 277.5 Q177 253 194.5 235 Q212 217 236 207 Q260 197 289 197 Q317 197 341.5 207 Q366 217 384 235 Q402 253 412 277.5 Q422 302 422 331 Q422 359 412 383.5 Q402 408 384 426 Q366 444 341.5 454.5 Q317 465 289 465 Q260 465 236 454.5 Q212 444 194.5 426 Q177 408 167 383.5 Q157 359 157 331 Z " />
<glyph glyph-name="Otilde" unicode="&#xd5;" horiz-adv-x="659" d="M597 355 Q597 268 579.5 199.5 Q562 131 528.5 83 Q495 35 445 9.5 Q395 -16 329 -16 Q263 -16 213.5 9.5 Q164 35 130 83 Q96 131 79 199.5 Q62 268 62 355 Q62 442 79 511 Q96 580 130 627.5 Q164 675 213.5 700.5 Q263 726 329 726 Q395 726 445 700.5 Q495 675 528.5 627.5 Q562 580 579.5 511 Q597 442 597 355 Z M476 355 Q476 430 465.5 481.5 Q455 533 436 565 Q417 597 389.5 611.5 Q362 626 329 626 Q296 626 268.5 611.5 Q241 597 222 565 Q203 533 192.5 481.5 Q182 430 182 355 Q182 281 192.5 229 Q203 177 222 145 Q241 113 268.5 98.5 Q296 84 329 84 Q362 84 389.5 98.5 Q417 113 436 145 Q455 177 465.5 229 Q476 281 476 355 Z M271 830 Q254 830 244.5 819.5 Q235 809 235 789 L171 789 Q171 839 198.5 872.5 Q226 906 271 906 Q294 906 311 898 Q328 890 342 879 Q355 870 365 865 Q375 860 388 860 Q405 860 414.5 871 Q424 882 424 901 L488 901 Q488 851 460.5 818 Q433 785 388 785 Q364 785 347 792.5 Q330 800 316 811 Q304 820 294 825 Q284 830 271 830 Z " />
<glyph glyph-name="Ccedilla" unicode="&#xc7;" horiz-adv-x="620" d="M306 -15 Q245 -12 199.5 15.5 Q154 43 123.5 91 Q93 139 77.5 205 Q62 271 62 352 Q62 437 78.5 506.5 Q95 576 128.5 624.5 Q162 673 212 699.5 Q262 726 330 726 Q387 726 428.5 708.5 Q470 691 498 661.5 Q526 632 541.5 593.5 Q557 555 561 514 L448 494 Q440 563 410 594.5 Q380 626 329 626 Q254 626 218 557 Q182 488 182 354 Q182 223 218 153.5 Q254 84 327 84 Q360 84 382.5 95.5 Q405 107 420 127.5 Q435 148 442.5 176 Q450 204 452 238 L567 222 Q563 178 550 137.5 Q537 97 511.5 64.5 Q486 32 446 11 Q406 -10 349 -14 L317 -65 L318 -66 Q325 -63 334 -61 Q343 -59 357 -59 Q370 -59 383 -63 Q396 -67 406.5 -75.5 Q417 -84 423.5 -96.5 Q430 -109 430 -125 Q430 -166 402 -187 Q374 -208 323 -208 Q295 -208 271.5 -201 Q248 -194 232 -184 L249 -144 Q262 -152 280 -157.5 Q298 -163 315 -163 Q335 -163 345 -154 Q355 -145 355 -131 Q355 -114 345.5 -106.5 Q336 -99 322 -99 Q304 -99 288 -112 L262 -91 L306 -15 Z " />
<glyph glyph-name="ccedilla" unicode="&#xe7;" horiz-adv-x="529" d="M208 -82 Q219 -65 229 -47 Q239 -29 249 -11 Q204 -7 168 13.5 Q132 34 107.5 67.5 Q83 101 69.5 147 Q56 193 56 249 Q56 306 71.5 352.5 Q87 399 116.5 432.5 Q146 466 187.5 484.5 Q229 503 281 503 Q328 503 363 489.5 Q398 476 421.5 454 Q445 432 458 403.5 Q471 375 476 344 Q450 340 425 337 Q400 334 375 331 Q363 418 281 418 Q227 418 196.5 374.5 Q166 331 166 246 Q166 156 197.5 114.5 Q229 73 279 73 Q329 73 351.5 98.5 Q374 124 379 172 L482 162 Q477 132 466 102 Q455 72 433 47 Q411 22 376.5 5.5 Q342 -11 291 -13 Q283 -24 277 -34.5 Q271 -45 263 -56 L264 -57 Q271 -54 280 -52 Q289 -50 303 -50 Q316 -50 329 -54 Q342 -58 352.5 -66.5 Q363 -75 369.5 -87.5 Q376 -100 376 -116 Q376 -157 348 -178 Q320 -199 269 -199 Q241 -199 217.5 -192 Q194 -185 178 -175 L195 -135 Q208 -143 226 -148.5 Q244 -154 261 -154 Q281 -154 291 -145 Q301 -136 301 -122 Q301 -105 291.5 -97.5 Q282 -90 268 -90 Q250 -90 234 -103 L208 -82 Z " />
<glyph glyph-name="eth" unicode="&#xf0;" horiz-adv-x="600" d="M490 671 Q465 659 441.5 646.5 Q418 634 393 622 Q453 567 486 481.5 Q519 396 519 293 Q519 230 506.5 174 Q494 118 466 76.5 Q438 35 394.5 10.5 Q351 -14 288 -14 Q232 -14 190 6 Q148 26 120.5 59 Q93 92 79 135.5 Q65 179 65 227 Q65 277 79.5 320 Q94 363 121 394.5 Q148 426 185.5 443.5 Q223 461 269 461 Q359 461 404 398 Q405 398 405 398.5 Q405 399 406 399 Q388 507 312 580 L181 513 L153 569 Q179 582 204.5 595 Q230 608 256 621 Q236 633 212 645 Q188 657 164 667 L193 737 Q234 725 273 706 Q312 687 342 665 L462 727 L490 671 Z M403 232 Q403 261 395.5 287 Q388 313 373.5 333 Q359 353 338 364.5 Q317 376 290 376 Q233 376 202.5 336 Q172 296 172 230 Q172 152 205 114.5 Q238 77 287 77 Q317 77 339 89 Q361 101 375 122 Q389 143 396 171.5 Q403 200 403 232 Z " />
<glyph glyph-name="uni00AD" unicode="&#xad;" horiz-adv-x="451" d="M76 241 L76 333 L375 333 L375 241 L76 241 Z " />
<glyph glyph-name="uni03A9" unicode="&#x3a9;" horiz-adv-x="609" d="M306 635 Q235 635 191.5 584.5 Q148 534 148 424 Q148 338 175 285 Q202 232 266 208 L266 0 L62 0 L62 81 L186 81 L186 164 Q120 197 83 260 Q46 323 46 428 Q46 498 64.5 553 Q83 608 117.5 646 Q152 684 199.5 704 Q247 724 306 724 Q365 724 413 704 Q461 684 495 646 Q529 608 547.5 553 Q566 498 566 428 Q566 323 529 260 Q492 197 426 164 L426 81 L550 81 L550 0 L347 0 L347 208 Q411 232 437.5 285 Q464 338 464 424 Q464 479 452.5 519 Q441 559 420 584.5 Q399 610 370 622.5 Q341 635 306 635 Z " />
<glyph glyph-name="commaaccent" unicode="&#xf6c3;" horiz-adv-x="326" d="M223 -152 Q223 -209 197 -234 Q171 -259 119 -269 L109 -225 Q137 -219 150.5 -208 Q164 -197 164 -170 L102 -170 L102 -74 L223 -74 L223 -152 Z " />
<glyph glyph-name="Amacron" unicode="&#x100;" horiz-adv-x="617" d="M460 0 L421 142 L190 142 L150 0 L28 0 L251 710 L364 710 L588 0 L460 0 Z M343 428 Q334 461 324 497.5 Q314 534 307 570 L305 570 Q298 534 288.5 497.5 Q279 461 270 427 L217 239 L394 239 L343 428 Z M170 816 L170 886 L443 886 L443 816 L170 816 Z " />
<glyph glyph-name="amacron" unicode="&#x101;" horiz-adv-x="556" d="M506 -8 Q474 -8 450 -3.5 Q426 1 409.5 11 Q393 21 382 37.5 Q371 54 364 78 Q341 40 304.5 13.5 Q268 -13 211 -13 Q179 -13 151 -4.5 Q123 4 102 22 Q81 40 69 67 Q57 94 57 131 Q57 188 93 224 Q129 260 207 281 Q214 283 229.5 287 Q245 291 262 295 Q279 299 293.5 302.5 Q308 306 313 308 Q339 315 345.5 322.5 Q352 330 352 344 L352 353 Q352 384 335 403.5 Q318 423 269 423 Q222 423 201.5 402 Q181 381 181 344 L73 353 Q74 419 124 461 Q174 503 269 503 Q321 503 357.5 492 Q394 481 416.5 461.5 Q439 442 449 414.5 Q459 387 459 354 L459 136 Q459 100 470 85 Q481 70 516 65 L506 -8 Z M352 256 Q346 250 338.5 246 Q331 242 315 237 L235 212 Q205 201 186 183.5 Q167 166 167 134 Q167 102 185 85 Q203 68 234 68 Q273 68 302 93.5 Q331 119 352 158 L352 256 Z M137 602 L137 672 L410 672 L410 602 L137 602 Z " />
<glyph glyph-name="Abreve" unicode="&#x102;" horiz-adv-x="617" d="M460 0 L421 142 L190 142 L150 0 L28 0 L251 710 L364 710 L588 0 L460 0 Z M343 428 Q334 461 324 497.5 Q314 534 307 570 L305 570 Q298 534 288.5 497.5 Q279 461 270 427 L217 239 L394 239 L343 428 Z M307 783 Q246 783 206 813.5 Q166 844 164 912 L212 912 Q220 874 246 862 Q272 850 307 850 Q342 850 368 862 Q394 874 402 912 L449 912 Q447 844 407 813.5 Q367 783 307 783 Z " />
<glyph glyph-name="abreve" unicode="&#x103;" horiz-adv-x="556" d="M506 -8 Q474 -8 450 -3.5 Q426 1 409.5 11 Q393 21 382 37.5 Q371 54 364 78 Q341 40 304.5 13.5 Q268 -13 211 -13 Q179 -13 151 -4.5 Q123 4 102 22 Q81 40 69 67 Q57 94 57 131 Q57 188 93 224 Q129 260 207 281 Q214 283 229.5 287 Q245 291 262 295 Q279 299 293.5 302.5 Q308 306 313 308 Q339 315 345.5 322.5 Q352 330 352 344 L352 353 Q352 384 335 403.5 Q318 423 269 423 Q222 423 201.5 402 Q181 381 181 344 L73 353 Q74 419 124 461 Q174 503 269 503 Q321 503 357.5 492 Q394 481 416.5 461.5 Q439 442 449 414.5 Q459 387 459 354 L459 136 Q459 100 470 85 Q481 70 516 65 L506 -8 Z M352 256 Q346 250 338.5 246 Q331 242 315 237 L235 212 Q205 201 186 183.5 Q167 166 167 134 Q167 102 185 85 Q203 68 234 68 Q273 68 302 93.5 Q331 119 352 158 L352 256 Z M275 574 Q214 574 174 604.5 Q134 635 132 703 L180 703 Q188 665 214 653 Q240 641 275 641 Q310 641 336 653 Q362 665 370 703 L417 703 Q415 635 375 604.5 Q335 574 275 574 Z " />
<glyph glyph-name="Aogonek" unicode="&#x104;" horiz-adv-x="617" d="M575 -147 Q555 -172 529.5 -183 Q504 -194 472 -194 Q430 -194 401.5 -176 Q373 -158 373 -117 Q373 -79 399 -50.5 Q425 -22 460 0 L421 142 L190 142 L150 0 L28 0 L251 710 L364 710 L588 0 L522 0 Q488 -23 469 -48 Q450 -73 450 -102 Q450 -121 461.5 -131.5 Q473 -142 488 -142 Q521 -142 542 -116 L575 -147 Z M343 428 Q334 461 324 497.5 Q314 534 307 570 L305 570 Q298 534 288.5 497.5 Q279 461 270 427 L217 239 L394 239 L343 428 Z " />
<glyph glyph-name="aogonek" unicode="&#x105;" horiz-adv-x="556" d="M543 -147 Q523 -172 497.5 -182.5 Q472 -193 440 -193 Q396 -193 368.5 -175 Q341 -157 341 -117 Q341 -79 367 -50 Q393 -21 429 1 Q403 10 387.5 28.5 Q372 47 364 78 Q341 40 304.5 13.5 Q268 -13 211 -13 Q179 -13 151 -4.5 Q123 4 102 22 Q81 40 69 67 Q57 94 57 131 Q57 188 93 224.5 Q129 261 207 281 L313 308 Q339 314 345.5 321.5 Q352 329 352 344 L352 353 Q352 384 335 403.5 Q318 423 269 423 Q222 423 201.5 402 Q181 381 181 344 L73 353 Q74 419 124 461 Q174 503 269 503 Q321 503 357.5 492 Q394 481 416.5 461.5 Q439 442 449 414.5 Q459 387 459 354 L459 136 Q459 100 470 85 Q481 70 516 65 L506 -8 Q498 -8 491.5 -7.5 Q485 -7 479 -7 Q450 -28 433.5 -51.5 Q417 -75 417 -102 Q417 -121 429 -131 Q441 -141 455 -141 Q488 -141 510 -115 L543 -147 Z M352 256 Q346 250 338.5 246 Q331 242 315 237 L249 216 Q209 203 188 186.5 Q167 170 167 134 Q167 102 185 85 Q203 68 234 68 Q273 68 302 93.5 Q331 119 352 158 L352 256 Z " />
<glyph glyph-name="Cacute" unicode="&#x106;" horiz-adv-x="620" d="M567 222 Q563 176 549 133 Q535 90 506.5 57 Q478 24 433 4 Q388 -16 324 -16 Q259 -16 210 10 Q161 36 128 84 Q95 132 78.5 200 Q62 268 62 352 Q62 437 78.5 506.5 Q95 576 128.5 624.5 Q162 673 212 699.5 Q262 726 330 726 Q387 726 428.5 708.5 Q470 691 498 661.5 Q526 632 541.5 593.5 Q557 555 561 514 L448 494 Q440 563 410 594.5 Q380 626 329 626 Q254 626 218 557 Q182 488 182 354 Q182 223 218 153.5 Q254 84 327 84 Q360 84 382.5 95.5 Q405 107 420 127.5 Q435 148 442.5 176 Q450 204 452 238 L567 222 Z M220 764 L196 810 L414 950 L456 862 L220 764 Z " />
<glyph glyph-name="cacute" unicode="&#x107;" horiz-adv-x="529" d="M482 162 Q477 132 465 100.5 Q453 69 430 44 Q407 19 369.5 3 Q332 -13 276 -13 Q225 -13 184.5 5.5 Q144 24 115.5 58 Q87 92 71.5 140.5 Q56 189 56 249 Q56 306 71.5 352.5 Q87 399 116.5 432.5 Q146 466 187.5 484.5 Q229 503 281 503 Q328 503 363 489.5 Q398 476 421.5 454 Q445 432 458 403.5 Q471 375 476 344 L375 331 Q363 418 281 418 Q227 418 196.5 374.5 Q166 331 166 246 Q166 156 197.5 114.5 Q229 73 279 73 Q329 73 351.5 98.5 Q374 124 379 172 L482 162 Z M168 550 L144 596 L362 736 L404 648 L168 550 Z " />
<glyph glyph-name="Ccircumflex" unicode="&#x108;" horiz-adv-x="620" d="M567 222 Q563 176 549 133 Q535 90 506.5 57 Q478 24 433 4 Q388 -16 324 -16 Q259 -16 210 10 Q161 36 128 84 Q95 132 78.5 200 Q62 268 62 352 Q62 437 78.5 506.5 Q95 576 128.5 624.5 Q162 673 212 699.5 Q262 726 330 726 Q387 726 428.5 708.5 Q470 691 498 661.5 Q526 632 541.5 593.5 Q557 555 561 514 L448 494 Q440 563 410 594.5 Q380 626 329 626 Q254 626 218 557 Q182 488 182 354 Q182 223 218 153.5 Q254 84 327 84 Q360 84 382.5 95.5 Q405 107 420 127.5 Q435 148 442.5 176 Q450 204 452 238 L567 222 Z M209 766 L168 813 L329 948 L489 814 L449 766 L329 851 L209 766 Z " />
<glyph glyph-name="ccircumflex" unicode="&#x109;" horiz-adv-x="529" d="M482 162 Q477 132 465 100.5 Q453 69 430 44 Q407 19 369.5 3 Q332 -13 276 -13 Q225 -13 184.5 5.5 Q144 24 115.5 58 Q87 92 71.5 140.5 Q56 189 56 249 Q56 306 71.5 352.5 Q87 399 116.5 432.5 Q146 466 187.5 484.5 Q229 503 281 503 Q328 503 363 489.5 Q398 476 421.5 454 Q445 432 458 403.5 Q471 375 476 344 L375 331 Q363 418 281 418 Q227 418 196.5 374.5 Q166 331 166 246 Q166 156 197.5 114.5 Q229 73 279 73 Q329 73 351.5 98.5 Q374 124 379 172 L482 162 Z M162 547 L121 594 L282 729 L442 595 L402 547 L282 632 L162 547 Z " />
<glyph glyph-name="Cdotaccent" unicode="&#x10a;" horiz-adv-x="620" d="M567 222 Q563 176 549 133 Q535 90 506.5 57 Q478 24 433 4 Q388 -16 324 -16 Q259 -16 210 10 Q161 36 128 84 Q95 132 78.5 200 Q62 268 62 352 Q62 437 78.5 506.5 Q95 576 128.5 624.5 Q162 673 212 699.5 Q262 726 330 726 Q387 726 428.5 708.5 Q470 691 498 661.5 Q526 632 541.5 593.5 Q557 555 561 514 L448 494 Q440 563 410 594.5 Q380 626 329 626 Q254 626 218 557 Q182 488 182 354 Q182 223 218 153.5 Q254 84 327 84 Q360 84 382.5 95.5 Q405 107 420 127.5 Q435 148 442.5 176 Q450 204 452 238 L567 222 Z M271 801 L271 919 L381 919 L381 801 L271 801 Z " />
<glyph glyph-name="cdotaccent" unicode="&#x10b;" horiz-adv-x="529" d="M482 162 Q477 132 465 100.5 Q453 69 430 44 Q407 19 369.5 3 Q332 -13 276 -13 Q225 -13 184.5 5.5 Q144 24 115.5 58 Q87 92 71.5 140.5 Q56 189 56 249 Q56 306 71.5 352.5 Q87 399 116.5 432.5 Q146 466 187.5 484.5 Q229 503 281 503 Q328 503 363 489.5 Q398 476 421.5 454 Q445 432 458 403.5 Q471 375 476 344 L375 331 Q363 418 281 418 Q227 418 196.5 374.5 Q166 331 166 246 Q166 156 197.5 114.5 Q229 73 279 73 Q329 73 351.5 98.5 Q374 124 379 172 L482 162 Z M223 587 L223 705 L333 705 L333 587 L223 587 Z " />
<glyph glyph-name="Ccaron" unicode="&#x10c;" horiz-adv-x="620" d="M567 222 Q563 176 549 133 Q535 90 506.5 57 Q478 24 433 4 Q388 -16 324 -16 Q259 -16 210 10 Q161 36 128 84 Q95 132 78.5 200 Q62 268 62 352 Q62 437 78.5 506.5 Q95 576 128.5 624.5 Q162 673 212 699.5 Q262 726 330 726 Q387 726 428.5 708.5 Q470 691 498 661.5 Q526 632 541.5 593.5 Q557 555 561 514 L448 494 Q440 563 410 594.5 Q380 626 329 626 Q254 626 218 557 Q182 488 182 354 Q182 223 218 153.5 Q254 84 327 84 Q360 84 382.5 95.5 Q405 107 420 127.5 Q435 148 442.5 176 Q450 204 452 238 L567 222 Z M329 863 L449 948 L489 900 L329 766 L168 901 L209 948 L329 863 Z " />
<glyph glyph-name="ccaron" unicode="&#x10d;" horiz-adv-x="529" d="M482 162 Q477 132 465 100.5 Q453 69 430 44 Q407 19 369.5 3 Q332 -13 276 -13 Q225 -13 184.5 5.5 Q144 24 115.5 58 Q87 92 71.5 140.5 Q56 189 56 249 Q56 306 71.5 352.5 Q87 399 116.5 432.5 Q146 466 187.5 484.5 Q229 503 281 503 Q328 503 363 489.5 Q398 476 421.5 454 Q445 432 458 403.5 Q471 375 476 344 L375 331 Q363 418 281 418 Q227 418 196.5 374.5 Q166 331 166 246 Q166 156 197.5 114.5 Q229 73 279 73 Q329 73 351.5 98.5 Q374 124 379 172 L482 162 Z M278 645 L398 730 L438 682 L278 548 L117 683 L158 730 L278 645 Z " />
<glyph glyph-name="Dcaron" unicode="&#x10e;" horiz-adv-x="657" d="M595 362 Q595 297 585.5 241 Q576 185 554 140 Q532 95 497 62.5 Q462 30 410 14 Q387 6 361.5 3 Q336 0 307 0 L98 0 L98 710 L314 710 Q369 710 411 695 Q461 678 496 644.5 Q531 611 553 567 Q575 523 585 470 Q595 417 595 362 Z M474 355 Q474 404 466.5 450.5 Q459 497 440 533 Q421 569 388.5 591 Q356 613 305 613 L216 613 L216 97 L312 97 Q358 97 389 116.5 Q420 136 439 170.5 Q458 205 466 252.5 Q474 300 474 355 Z M319 863 L439 948 L479 900 L319 766 L158 901 L199 948 L319 863 Z " />
<glyph glyph-name="dcaron" unicode="&#x10f;" horiz-adv-x="710" d="M166 244 Q166 156 197 114 Q228 72 280 72 Q336 72 362 119.5 Q388 167 388 246 Q388 327 360.5 372.5 Q333 418 278 418 Q227 418 196.5 377.5 Q166 337 166 244 Z M397 0 Q395 15 394 32 Q393 49 392 65 L390 65 Q376 33 344 10 Q312 -13 259 -13 Q219 -13 182.5 2.5 Q146 18 118 50.5 Q90 83 73 132 Q56 181 56 248 Q56 312 71.5 359.5 Q87 407 114.5 439 Q142 471 179.5 487 Q217 503 260 503 Q303 503 336.5 482.5 Q370 462 387 427 L389 427 Q388 438 387.5 461.5 Q387 485 387 507 L387 710 L494 710 L494 162 Q494 120 495.5 80.5 Q497 41 499 0 L397 0 Z M620 518 L569 536 L619 730 L710 693 L620 518 Z " />
<glyph glyph-name="Dcroat" unicode="&#x110;" horiz-adv-x="661" d="M599 362 Q599 284 585 217.5 Q571 151 537.5 102.5 Q504 54 449 27 Q394 0 312 0 L102 0 L102 311 L23 311 L23 398 L102 398 L102 710 L319 710 Q397 710 450.5 681 Q504 652 537 603.5 Q570 555 584.5 492 Q599 429 599 362 Z M478 355 Q478 404 470.5 450.5 Q463 497 444 533 Q425 569 392.5 591 Q360 613 309 613 L220 613 L220 398 L348 398 L348 311 L220 311 L220 96 L316 96 Q362 96 393 116 Q424 136 443 170.5 Q462 205 470 252.5 Q478 300 478 355 Z " />
<glyph glyph-name="dcroat" unicode="&#x111;" horiz-adv-x="593" d="M494 562 L494 162 Q494 120 495.5 80.5 Q497 41 499 0 L397 0 Q395 15 394 31.5 Q393 48 392 65 L390 65 Q376 33 344 10 Q312 -13 259 -13 Q219 -13 182.5 2.5 Q146 18 118 50.5 Q90 83 73 132 Q56 181 56 248 Q56 312 71.5 359.5 Q87 407 114.5 439 Q142 471 179.5 487 Q217 503 260 503 Q303 503 336.5 482.5 Q370 462 387 427 L389 427 Q388 438 387.5 461.5 Q387 485 387 507 L387 562 L268 562 L268 632 L387 632 L387 710 L494 710 L494 632 L573 632 L573 562 L494 562 Z M166 244 Q166 156 197 114 Q228 72 280 72 Q336 72 362 119.5 Q388 167 388 246 Q388 327 360.5 372.5 Q333 418 278 418 Q227 418 196.5 377.5 Q166 337 166 244 Z " />
<glyph glyph-name="Emacron" unicode="&#x112;" horiz-adv-x="563" d="M98 0 L98 710 L517 710 L517 610 L217 610 L217 413 L461 413 L461 317 L217 317 L217 99 L517 99 L517 0 L98 0 Z M173 816 L173 886 L446 886 L446 816 L173 816 Z " />
<glyph glyph-name="emacron" unicode="&#x113;" horiz-adv-x="544" d="M476 135 Q470 109 456 83 Q442 57 418.5 35.5 Q395 14 360.5 0.5 Q326 -13 280 -13 Q226 -13 184 5.5 Q142 24 113.5 58 Q85 92 70.5 140 Q56 188 56 247 Q56 305 71.5 352.5 Q87 400 116 433.5 Q145 467 186 485 Q227 503 278 503 Q325 503 364 486 Q403 469 431 438 Q459 407 474.5 362 Q490 317 490 262 Q490 248 489.5 235 Q489 222 488 211 L166 211 Q169 142 197.5 106.5 Q226 71 281 71 Q359 71 379 150 L476 135 Z M381 288 Q380 351 353.5 385 Q327 419 275 419 Q227 419 198 383 Q169 347 167 288 L381 288 Z M140 602 L140 672 L413 672 L413 602 L140 602 Z " />
<glyph glyph-name="Ebreve" unicode="&#x114;" horiz-adv-x="563" d="M98 0 L98 710 L517 710 L517 610 L217 610 L217 413 L461 413 L461 317 L217 317 L217 99 L517 99 L517 0 L98 0 Z M305 783 Q244 783 204 813.5 Q164 844 162 912 L210 912 Q218 874 244 862 Q270 850 305 850 Q340 850 366 862 Q392 874 400 912 L447 912 Q445 844 405 813.5 Q365 783 305 783 Z " />
<glyph glyph-name="ebreve" unicode="&#x115;" horiz-adv-x="544" d="M476 135 Q470 109 456 83 Q442 57 418.5 35.5 Q395 14 360.5 0.5 Q326 -13 280 -13 Q226 -13 184 5.5 Q142 24 113.5 58 Q85 92 70.5 140 Q56 188 56 247 Q56 305 71.5 352.5 Q87 400 116 433.5 Q145 467 186 485 Q227 503 278 503 Q325 503 364 486 Q403 469 431 438 Q459 407 474.5 362 Q490 317 490 262 Q490 248 489.5 235 Q489 222 488 211 L166 211 Q169 142 197.5 106.5 Q226 71 281 71 Q359 71 379 150 L476 135 Z M381 288 Q380 351 353.5 385 Q327 419 275 419 Q227 419 198 383 Q169 347 167 288 L381 288 Z M277 574 Q216 574 176 604.5 Q136 635 134 703 L182 703 Q190 665 216 653 Q242 641 277 641 Q312 641 338 653 Q364 665 372 703 L419 703 Q417 635 377 604.5 Q337 574 277 574 Z " />
<glyph glyph-name="Edotaccent" unicode="&#x116;" horiz-adv-x="563" d="M98 0 L98 710 L517 710 L517 610 L217 610 L217 413 L461 413 L461 317 L217 317 L217 99 L517 99 L517 0 L98 0 Z M249 796 L249 914 L359 914 L359 796 L249 796 Z " />
<glyph glyph-name="edotaccent" unicode="&#x117;" horiz-adv-x="544" d="M476 135 Q470 109 456 83 Q442 57 418.5 35.5 Q395 14 360.5 0.5 Q326 -13 280 -13 Q226 -13 184 5.5 Q142 24 113.5 58 Q85 92 70.5 140 Q56 188 56 247 Q56 305 71.5 352.5 Q87 400 116 433.5 Q145 467 186 485 Q227 503 278 503 Q325 503 364 486 Q403 469 431 438 Q459 407 474.5 362 Q490 317 490 262 Q490 248 489.5 235 Q489 222 488 211 L166 211 Q169 142 197.5 106.5 Q226 71 281 71 Q359 71 379 150 L476 135 Z M381 288 Q380 351 353.5 385 Q327 419 275 419 Q227 419 198 383 Q169 347 167 288 L381 288 Z M222 587 L222 705 L332 705 L332 587 L222 587 Z " />
<glyph glyph-name="Eogonek" unicode="&#x118;" horiz-adv-x="563" d="M570 -147 Q550 -172 524.5 -183 Q499 -194 467 -194 Q425 -194 396.5 -176 Q368 -158 368 -117 Q368 -79 394 -50.5 Q420 -22 455 0 L98 0 L98 710 L517 710 L517 610 L217 610 L217 413 L461 413 L461 317 L217 317 L217 99 L517 99 L517 0 Q483 -23 464 -48 Q445 -73 445 -102 Q445 -121 456.5 -131.5 Q468 -142 483 -142 Q516 -142 537 -116 L570 -147 Z " />
<glyph glyph-name="eogonek" unicode="&#x119;" horiz-adv-x="544" d="M476 135 Q466 94 436 54 Q406 14 348 -3 Q317 -25 299 -49.5 Q281 -74 281 -102 Q281 -121 293 -131 Q305 -141 319 -141 Q352 -141 374 -115 L407 -147 Q369 -194 303 -194 Q261 -194 233 -176 Q205 -158 205 -117 Q205 -84 224 -58 Q243 -32 272 -12 Q220 -12 179.5 6.5 Q139 25 111.5 59.5 Q84 94 70 142 Q56 190 56 247 Q56 305 71.5 352.5 Q87 400 116 433.5 Q145 467 186 485 Q227 503 278 503 Q325 503 364 486 Q403 469 431 438 Q459 407 474.5 362 Q490 317 490 262 Q490 248 489.5 235 Q489 222 488 211 L166 211 Q169 142 197.5 106.5 Q226 71 281 71 Q359 71 379 150 L476 135 Z M381 288 Q380 351 353.5 385 Q327 419 275 419 Q227 419 198 383 Q169 347 167 288 L381 288 Z " />
<glyph glyph-name="Ecaron" unicode="&#x11a;" horiz-adv-x="563" d="M98 0 L98 710 L517 710 L517 610 L217 610 L217 413 L461 413 L461 317 L217 317 L217 99 L517 99 L517 0 L98 0 Z M309 863 L429 948 L469 900 L309 766 L148 901 L189 948 L309 863 Z " />
<glyph glyph-name="ecaron" unicode="&#x11b;" horiz-adv-x="544" d="M476 135 Q470 109 456 83 Q442 57 418.5 35.5 Q395 14 360.5 0.5 Q326 -13 280 -13 Q226 -13 184 5.5 Q142 24 113.5 58 Q85 92 70.5 140 Q56 188 56 247 Q56 305 71.5 352.5 Q87 400 116 433.5 Q145 467 186 485 Q227 503 278 503 Q325 503 364 486 Q403 469 431 438 Q459 407 474.5 362 Q490 317 490 262 Q490 248 489.5 235 Q489 222 488 211 L166 211 Q169 142 197.5 106.5 Q226 71 281 71 Q359 71 379 150 L476 135 Z M381 288 Q380 351 353.5 385 Q327 419 275 419 Q227 419 198 383 Q169 347 167 288 L381 288 Z M276 645 L396 730 L436 682 L276 548 L115 683 L156 730 L276 645 Z " />
<glyph glyph-name="Gcircumflex" unicode="&#x11c;" horiz-adv-x="660" d="M498 0 L485 88 L483 88 Q465 43 423.5 13.5 Q382 -16 325 -16 Q268 -16 220 6.5 Q172 29 137 75 Q102 121 82 191 Q62 261 62 355 Q62 442 80.5 511 Q99 580 134 628 Q169 676 220 701 Q271 726 337 726 Q397 726 439 707 Q481 688 508 659 Q535 630 548.5 593.5 Q562 557 565 523 L450 505 Q444 563 417 594.5 Q390 626 334 626 Q301 626 273.5 611.5 Q246 597 226 564.5 Q206 532 195 480.5 Q184 429 184 355 Q184 281 195 229 Q206 177 226 145 Q246 113 274 98.5 Q302 84 335 84 Q398 84 430.5 134.5 Q463 185 463 266 L463 301 L326 301 L326 391 L569 391 L569 0 L498 0 Z M218 766 L177 813 L338 948 L498 814 L458 766 L338 851 L218 766 Z " />
<glyph glyph-name="gcircumflex" unicode="&#x11d;" horiz-adv-x="581" d="M166 247 Q166 160 194.5 118 Q223 76 274 76 Q332 76 360 121.5 Q388 167 388 248 Q388 332 358.5 375 Q329 418 279 418 Q225 418 195.5 377 Q166 336 166 247 Z M386 -3 Q386 11 386 27 Q386 43 388 65 L386 65 Q380 51 369 38 Q358 25 341.5 14 Q325 3 302.5 -3.5 Q280 -10 252 -10 Q214 -10 178.5 5.5 Q143 21 116 53 Q89 85 72.5 133 Q56 181 56 246 Q56 311 72.5 359 Q89 407 116.5 439 Q144 471 180.5 487 Q217 503 256 503 Q284 503 305 496.5 Q326 490 342 479 Q358 468 369 454 Q380 440 387 425 L389 425 Q390 442 391 459 Q392 476 394 491 L496 491 Q494 448 492.5 407.5 Q491 367 491 329 L491 6 Q491 -46 480.5 -86.5 Q470 -127 446 -157 Q425 -183 385.5 -200.5 Q346 -218 276 -218 Q190 -218 138.5 -181 Q87 -144 79 -73 L180 -62 Q185 -107 212 -124.5 Q239 -142 281 -142 Q312 -142 333.5 -132 Q355 -122 367 -105 Q380 -87 383 -62.5 Q386 -38 386 -3 Z M168 547 L127 594 L288 729 L448 595 L408 547 L288 632 L168 547 Z " />
<glyph glyph-name="Gbreve" unicode="&#x11e;" horiz-adv-x="660" d="M498 0 L485 88 L483 88 Q465 43 423.5 13.5 Q382 -16 325 -16 Q268 -16 220 6.5 Q172 29 137 75 Q102 121 82 191 Q62 261 62 355 Q62 442 80.5 511 Q99 580 134 628 Q169 676 220 701 Q271 726 337 726 Q397 726 439 707 Q481 688 508 659 Q535 630 548.5 593.5 Q562 557 565 523 L450 505 Q444 563 417 594.5 Q390 626 334 626 Q301 626 273.5 611.5 Q246 597 226 564.5 Q206 532 195 480.5 Q184 429 184 355 Q184 281 195 229 Q206 177 226 145 Q246 113 274 98.5 Q302 84 335 84 Q398 84 430.5 134.5 Q463 185 463 266 L463 301 L326 301 L326 391 L569 391 L569 0 L498 0 Z M337 783 Q276 783 236 813.5 Q196 844 194 912 L242 912 Q250 874 276 862 Q302 850 337 850 Q372 850 398 862 Q424 874 432 912 L479 912 Q477 844 437 813.5 Q397 783 337 783 Z " />
<glyph glyph-name="gbreve" unicode="&#x11f;" horiz-adv-x="581" d="M166 247 Q166 160 194.5 118 Q223 76 274 76 Q332 76 360 121.5 Q388 167 388 248 Q388 332 358.5 375 Q329 418 279 418 Q225 418 195.5 377 Q166 336 166 247 Z M386 -3 Q386 11 386 27 Q386 43 388 65 L386 65 Q380 51 369 38 Q358 25 341.5 14 Q325 3 302.5 -3.5 Q280 -10 252 -10 Q214 -10 178.5 5.5 Q143 21 116 53 Q89 85 72.5 133 Q56 181 56 246 Q56 311 72.5 359 Q89 407 116.5 439 Q144 471 180.5 487 Q217 503 256 503 Q284 503 305 496.5 Q326 490 342 479 Q358 468 369 454 Q380 440 387 425 L389 425 Q390 442 391 459 Q392 476 394 491 L496 491 Q494 448 492.5 407.5 Q491 367 491 329 L491 6 Q491 -46 480.5 -86.5 Q470 -127 446 -157 Q425 -183 385.5 -200.5 Q346 -218 276 -218 Q190 -218 138.5 -181 Q87 -144 79 -73 L180 -62 Q185 -107 212 -124.5 Q239 -142 281 -142 Q312 -142 333.5 -132 Q355 -122 367 -105 Q380 -87 383 -62.5 Q386 -38 386 -3 Z M287 574 Q226 574 186 604.5 Q146 635 144 703 L192 703 Q200 665 226 653 Q252 641 287 641 Q322 641 348 653 Q374 665 382 703 L429 703 Q427 635 387 604.5 Q347 574 287 574 Z " />
<glyph glyph-name="Gdotaccent" unicode="&#x120;" horiz-adv-x="660" d="M498 0 L485 88 L483 88 Q465 43 423.5 13.5 Q382 -16 325 -16 Q268 -16 220 6.5 Q172 29 137 75 Q102 121 82 191 Q62 261 62 355 Q62 442 80.5 511 Q99 580 134 628 Q169 676 220 701 Q271 726 337 726 Q397 726 439 707 Q481 688 508 659 Q535 630 548.5 593.5 Q562 557 565 523 L450 505 Q444 563 417 594.5 Q390 626 334 626 Q301 626 273.5 611.5 Q246 597 226 564.5 Q206 532 195 480.5 Q184 429 184 355 Q184 281 195 229 Q206 177 226 145 Q246 113 274 98.5 Q302 84 335 84 Q398 84 430.5 134.5 Q463 185 463 266 L463 301 L326 301 L326 391 L569 391 L569 0 L498 0 Z M282 801 L282 919 L392 919 L392 801 L282 801 Z " />
<glyph glyph-name="gdotaccent" unicode="&#x121;" horiz-adv-x="581" d="M166 247 Q166 160 194.5 118 Q223 76 274 76 Q332 76 360 121.5 Q388 167 388 248 Q388 332 358.5 375 Q329 418 279 418 Q225 418 195.5 377 Q166 336 166 247 Z M386 -3 Q386 11 386 27 Q386 43 388 65 L386 65 Q380 51 369 38 Q358 25 341.5 14 Q325 3 302.5 -3.5 Q280 -10 252 -10 Q214 -10 178.5 5.5 Q143 21 116 53 Q89 85 72.5 133 Q56 181 56 246 Q56 311 72.5 359 Q89 407 116.5 439 Q144 471 180.5 487 Q217 503 256 503 Q284 503 305 496.5 Q326 490 342 479 Q358 468 369 454 Q380 440 387 425 L389 425 Q390 442 391 459 Q392 476 394 491 L496 491 Q494 448 492.5 407.5 Q491 367 491 329 L491 6 Q491 -46 480.5 -86.5 Q470 -127 446 -157 Q425 -183 385.5 -200.5 Q346 -218 276 -218 Q190 -218 138.5 -181 Q87 -144 79 -73 L180 -62 Q185 -107 212 -124.5 Q239 -142 281 -142 Q312 -142 333.5 -132 Q355 -122 367 -105 Q380 -87 383 -62.5 Q386 -38 386 -3 Z M236 587 L236 705 L346 705 L346 587 L236 587 Z " />
<glyph glyph-name="Gcommaaccent" unicode="&#x122;" horiz-adv-x="660" d="M498 0 L485 88 L483 88 Q465 43 423.5 13.5 Q382 -16 325 -16 Q268 -16 220 6.5 Q172 29 137 75 Q102 121 82 191 Q62 261 62 355 Q62 442 80.5 511 Q99 580 134 628 Q169 676 220 701 Q271 726 337 726 Q397 726 439 707 Q481 688 508 659 Q535 630 548.5 593.5 Q562 557 565 523 L450 505 Q444 563 417 594.5 Q390 626 334 626 Q301 626 273.5 611.5 Q246 597 226 564.5 Q206 532 195 480.5 Q184 429 184 355 Q184 281 195 229 Q206 177 226 145 Q246 113 274 98.5 Q302 84 335 84 Q398 84 430.5 134.5 Q463 185 463 266 L463 301 L326 301 L326 391 L569 391 L569 0 L498 0 Z M391 -152 Q391 -209 365 -234 Q339 -259 287 -269 L277 -225 Q305 -219 318.5 -208 Q332 -197 332 -170 L270 -170 L270 -74 L391 -74 L391 -152 Z " />
<glyph glyph-name="gcommaaccent" unicode="&#x123;" horiz-adv-x="581" d="M166 247 Q166 160 194.5 118 Q223 76 274 76 Q332 76 360 121.5 Q388 167 388 248 Q388 332 358.5 375 Q329 418 279 418 Q225 418 195.5 377 Q166 336 166 247 Z M386 -3 Q386 11 386 27 Q386 43 388 65 L386 65 Q380 51 369 38 Q358 25 341.5 14 Q325 3 302.5 -3.5 Q280 -10 252 -10 Q214 -10 178.5 5.5 Q143 21 116 53 Q89 85 72.5 133 Q56 181 56 246 Q56 311 72.5 359 Q89 407 116.5 439 Q144 471 180.5 487 Q217 503 256 503 Q284 503 305 496.5 Q326 490 342 479 Q358 468 369 454 Q380 440 387 425 L389 425 Q390 442 391 459 Q392 476 394 491 L496 491 Q494 448 492.5 407.5 Q491 367 491 329 L491 6 Q491 -46 480.5 -86.5 Q470 -127 446 -157 Q425 -183 385.5 -200.5 Q346 -218 276 -218 Q190 -218 138.5 -181 Q87 -144 79 -73 L180 -62 Q185 -107 212 -124.5 Q239 -142 281 -142 Q312 -142 333.5 -132 Q355 -122 367 -105 Q380 -87 383 -62.5 Q386 -38 386 -3 Z M223 691 Q223 720 229.5 740 Q236 760 248.5 773.5 Q261 787 280.5 795 Q300 803 326 808 L337 764 Q309 759 295 747.5 Q281 736 281 710 L344 710 L344 613 L223 613 L223 691 Z " />
<glyph glyph-name="Hcircumflex" unicode="&#x124;" horiz-adv-x="657" d="M440 0 L440 313 L217 313 L217 0 L98 0 L98 710 L217 710 L217 414 L440 414 L440 710 L559 710 L559 0 L440 0 Z M208 766 L167 813 L328 948 L488 814 L448 766 L328 851 L208 766 Z " />
<glyph glyph-name="hcircumflex" unicode="&#x125;" horiz-adv-x="573" d="M385 0 L385 297 Q385 324 381.5 346 Q378 368 368 382 Q348 413 300 413 Q280 413 261.5 405 Q243 397 229 380.5 Q215 364 206 338.5 Q197 313 197 277 L197 0 L90 0 L90 710 L197 710 L197 513 Q197 493 197 471 Q197 449 195 428 L197 428 Q214 460 249 481.5 Q284 503 329 503 Q377 503 409.5 487 Q442 471 461 443 Q477 419 484.5 386.5 Q492 354 492 315 L492 0 L385 0 Z M24 762 L-17 809 L144 944 L304 810 L264 762 L144 847 L24 762 Z " />
<glyph glyph-name="Hbar" unicode="&#x126;" horiz-adv-x="657" d="M440 0 L440 313 L217 313 L217 0 L98 0 L98 710 L217 710 L217 553 L440 553 L440 710 L559 710 L559 0 L440 0 Z M440 414 L440 483 L217 483 L217 414 L440 414 Z " />
<glyph glyph-name="hbar" unicode="&#x127;" horiz-adv-x="573" d="M385 0 L385 297 Q385 354 366.5 383.5 Q348 413 300 413 Q281 413 262.5 405 Q244 397 229 380.5 Q214 364 205 338.5 Q196 313 196 277 L196 0 L90 0 L90 562 L11 562 L11 632 L90 632 L90 710 L197 710 L197 632 L319 632 L319 562 L197 562 L197 513 Q197 493 197 471 Q197 449 195 428 L197 428 Q214 460 249 481.5 Q284 503 329 503 Q375 503 406 489 Q437 475 456 449.5 Q475 424 483.5 389.5 Q492 355 492 315 L492 0 L385 0 Z " />
<glyph glyph-name="Itilde" unicode="&#x128;" horiz-adv-x="319" d="M100 0 L100 710 L219 710 L219 0 L100 0 Z M100 838 Q83 838 73.5 827.5 Q64 817 64 797 L0 797 Q0 847 27.5 880.5 Q55 914 100 914 Q123 914 140 906 Q157 898 171 887 Q184 878 194 873 Q204 868 217 868 Q234 868 243.5 879 Q253 890 253 909 L317 909 Q317 859 289.5 826 Q262 793 217 793 Q193 793 176 800.5 Q159 808 145 819 Q133 828 123 833 Q113 838 100 838 Z " />
<glyph glyph-name="itilde" unicode="&#x129;" horiz-adv-x="285" d="M83 619 Q66 619 56.5 608.5 Q47 598 47 578 L-17 578 Q-17 628 10.5 661.5 Q38 695 83 695 Q106 695 123 687 Q140 679 154 668 Q167 659 177 654 Q187 649 200 649 Q217 649 226.5 660 Q236 671 236 690 L300 690 Q300 640 272.5 607 Q245 574 200 574 Q176 574 159 581.5 Q142 589 128 600 Q116 609 106 614 Q96 619 83 619 Z M89 0 L89 491 L196 491 L196 0 L89 0 Z " />
<glyph glyph-name="imacron" unicode="&#x12b;" horiz-adv-x="285" d="M6 602 L6 672 L279 672 L279 602 L6 602 Z M89 0 L89 491 L196 491 L196 0 L89 0 Z " />
<glyph glyph-name="Ibreve" unicode="&#x12c;" horiz-adv-x="319" d="M100 0 L100 710 L219 710 L219 0 L100 0 Z M159 783 Q98 783 58 813.5 Q18 844 16 912 L64 912 Q72 874 98 862 Q124 850 159 850 Q194 850 220 862 Q246 874 254 912 L301 912 Q299 844 259 813.5 Q219 783 159 783 Z " />
<glyph glyph-name="ibreve" unicode="&#x12d;" horiz-adv-x="285" d="M143 574 Q82 574 42 604.5 Q2 635 0 703 L48 703 Q56 665 82 653 Q108 641 143 641 Q178 641 204 653 Q230 665 238 703 L285 703 Q283 635 243 604.5 Q203 574 143 574 Z M89 0 L89 491 L196 491 L196 0 L89 0 Z " />
<glyph glyph-name="Iogonek" unicode="&#x12e;" horiz-adv-x="319" d="M272 -147 Q252 -172 226.5 -183 Q201 -194 169 -194 Q127 -194 98.5 -176 Q70 -158 70 -117 Q70 -79 96 -50.5 Q122 -22 157 0 L100 0 L100 710 L219 710 L219 0 Q185 -23 166 -48 Q147 -73 147 -102 Q147 -121 158.5 -131.5 Q170 -142 185 -142 Q218 -142 239 -116 L272 -147 Z " />
<glyph glyph-name="iogonek" unicode="&#x12f;" horiz-adv-x="285" d="M196 0 Q162 -23 143 -48 Q124 -73 124 -102 Q124 -121 135.5 -131.5 Q147 -142 162 -142 Q195 -142 216 -116 L249 -147 Q229 -172 203.5 -183 Q178 -194 146 -194 Q104 -194 75.5 -176 Q47 -158 47 -117 Q47 -79 73 -50.5 Q99 -22 134 0 L89 0 L89 491 L196 491 L196 0 Z M87 587 L87 705 L197 705 L197 587 L87 587 Z " />
<glyph glyph-name="Idotaccent" unicode="&#x130;" horiz-adv-x="319" d="M100 0 L100 710 L219 710 L219 0 L100 0 Z M104 801 L104 919 L214 919 L214 801 L104 801 Z " />
<glyph glyph-name="IJ" unicode="&#x132;" horiz-adv-x="877" d="M100 0 L100 710 L219 710 L219 0 L100 0 Z M787 206 Q787 156 776 115 Q765 74 739.5 45 Q714 16 672 0.5 Q630 -15 567 -15 Q521 -15 483 -4 Q445 7 417.5 30 Q390 53 374.5 88 Q359 123 359 171 Q359 181 359 188.5 Q359 196 361 207 Q390 211 419 214.5 Q448 218 477 221 Q475 213 475 203.5 Q475 194 475 186 Q475 84 572 84 Q624 84 646 114 Q668 144 668 196 L668 710 L787 710 L787 206 Z " />
<glyph glyph-name="ij" unicode="&#x133;" horiz-adv-x="598" d="M89 0 L89 491 L196 491 L196 0 L89 0 Z M87 587 L87 705 L197 705 L197 587 L87 587 Z M402 491 L509 491 L509 -36 Q509 -74 502 -108.5 Q495 -143 472 -169 Q454 -189 425.5 -200 Q397 -211 356 -211 Q311 -211 282 -201.5 Q253 -192 230 -180 L261 -106 Q281 -115 300 -120.5 Q319 -126 339 -126 Q360 -126 372 -119.5 Q384 -113 392 -102 Q399 -91 400.5 -71.5 Q402 -52 402 -27 L402 491 Z M401 587 L401 705 L511 705 L511 587 L401 587 Z " />
<glyph glyph-name="Jcircumflex" unicode="&#x134;" horiz-adv-x="561" d="M471 206 Q471 156 460 115 Q449 74 423.5 45 Q398 16 356 0.5 Q314 -15 251 -15 Q205 -15 167 -4 Q129 7 101.5 30 Q74 53 58.5 88 Q43 123 43 171 Q43 181 43 188.5 Q43 196 45 207 Q74 211 103 214.5 Q132 218 161 221 Q159 213 159 203.5 Q159 194 159 186 Q159 84 256 84 Q308 84 330 114 Q352 144 352 196 L352 710 L471 710 L471 206 Z M290 766 L249 813 L410 948 L570 814 L530 766 L410 851 L290 766 Z " />
<glyph glyph-name="jcircumflex" unicode="&#x135;" horiz-adv-x="298" d="M102 491 L209 491 L209 -36 Q209 -74 202 -108.5 Q195 -143 172 -169 Q154 -189 125.5 -200 Q97 -211 56 -211 Q11 -211 -18 -201.5 Q-47 -192 -70 -180 L-39 -106 Q-19 -115 0 -120.5 Q19 -126 39 -126 Q60 -126 72 -119.5 Q84 -113 92 -102 Q99 -91 100.5 -71.5 Q102 -52 102 -27 L102 491 Z M35 547 L-6 594 L155 729 L315 595 L275 547 L155 632 L35 547 Z " />
<glyph glyph-name="Kcommaaccent" unicode="&#x136;" horiz-adv-x="630" d="M464 0 L287 330 L217 242 L217 0 L98 0 L98 710 L217 710 L217 407 L447 710 L595 710 L361 420 L606 0 L464 0 Z M375 -152 Q375 -209 349 -234 Q323 -259 271 -269 L261 -225 Q289 -219 302.5 -208 Q316 -197 316 -170 L254 -170 L254 -74 L375 -74 L375 -152 Z " />
<glyph glyph-name="kcommaaccent" unicode="&#x137;" horiz-adv-x="547" d="M397 0 L256 216 L197 156 L197 0 L90 0 L90 710 L197 710 L197 290 L379 491 L517 491 L327 290 L528 0 L397 0 Z M335 -152 Q335 -209 309 -234 Q283 -259 231 -269 L221 -225 Q249 -219 262.5 -208 Q276 -197 276 -170 L214 -170 L214 -74 L335 -74 L335 -152 Z " />
<glyph glyph-name="kgreenlandic" unicode="&#x138;" horiz-adv-x="547" d="M397 0 L256 216 L196 155 L196 0 L90 0 L90 491 L196 491 L196 289 L307 411 Q328 435 346 450.5 Q364 466 384.5 475 Q405 484 431.5 487.5 Q458 491 497 491 L497 397 L478 397 Q447 397 428 386.5 Q409 376 384 350 L327 290 L528 0 L397 0 Z " />
<glyph glyph-name="Lacute" unicode="&#x139;" horiz-adv-x="534" d="M98 0 L98 710 L217 710 L217 100 L510 100 L510 0 L98 0 Z M55 764 L31 810 L249 950 L291 862 L55 764 Z " />
<glyph glyph-name="lacute" unicode="&#x13a;" horiz-adv-x="288" d="M90 710 L197 710 L197 0 L90 0 L90 710 Z M38 759 L14 805 L232 945 L274 857 L38 759 Z " />
<glyph glyph-name="Lcommaaccent" unicode="&#x13b;" horiz-adv-x="534" d="M98 0 L98 710 L217 710 L217 100 L510 100 L510 0 L98 0 Z M362 -152 Q362 -209 336 -234 Q310 -259 258 -269 L248 -225 Q276 -219 289.5 -208 Q303 -197 303 -170 L241 -170 L241 -74 L362 -74 L362 -152 Z " />
<glyph glyph-name="lcommaaccent" unicode="&#x13c;" horiz-adv-x="288" d="M90 710 L197 710 L197 0 L90 0 L90 710 Z M205 -152 Q205 -209 179 -234 Q153 -259 101 -269 L91 -225 Q119 -219 132.5 -208 Q146 -197 146 -170 L84 -170 L84 -74 L205 -74 L205 -152 Z " />
<glyph glyph-name="Lcaron" unicode="&#x13d;" horiz-adv-x="534" d="M98 0 L98 710 L217 710 L217 100 L510 100 L510 0 L98 0 Z M356 518 L305 536 L355 730 L446 693 L356 518 Z " />
<glyph glyph-name="lcaron" unicode="&#x13e;" horiz-adv-x="423" d="M90 710 L197 710 L197 0 L90 0 L90 710 Z M333 518 L282 536 L332 730 L423 693 L333 518 Z " />
<glyph glyph-name="Ldot" unicode="&#x13f;" horiz-adv-x="534" d="M320 372 L320 498 L437 498 L437 372 L320 372 Z M98 0 L98 710 L217 710 L217 100 L510 100 L510 0 L98 0 Z " />
<glyph glyph-name="ldot" unicode="&#x140;" horiz-adv-x="491" d="M281 372 L281 498 L398 498 L398 372 L281 372 Z M90 710 L197 710 L197 0 L90 0 L90 710 Z " />
<glyph glyph-name="Nacute" unicode="&#x143;" horiz-adv-x="682" d="M244 710 L411 335 Q426 301 439.5 266 Q453 231 466 192 L468 192 Q467 234 466 270.5 Q465 307 465 352 L465 710 L584 710 L584 0 L440 0 L271 374 Q255 409 242 442.5 Q229 476 215 517 L213 517 Q215 475 215.5 436 Q216 397 216 356 L216 0 L98 0 L98 710 L244 710 Z M248 764 L224 810 L442 950 L484 862 L248 764 Z " />
<glyph glyph-name="nacute" unicode="&#x144;" horiz-adv-x="580" d="M188 491 Q190 475 190.5 458 Q191 441 192 424 L194 424 Q209 456 245.5 479.5 Q282 503 336 503 Q417 503 458 454 Q499 405 499 319 L499 0 L392 0 L392 301 Q392 353 372.5 383 Q353 413 304 413 Q283 413 263.5 405 Q244 397 229 380.5 Q214 364 205.5 338.5 Q197 313 197 277 L197 0 L90 0 L90 335 Q90 371 89 411 Q88 451 85 491 L188 491 Z M181 550 L157 596 L375 736 L417 648 L181 550 Z " />
<glyph glyph-name="Ncommaaccent" unicode="&#x145;" horiz-adv-x="682" d="M244 710 L411 335 Q426 301 439.5 266 Q453 231 466 192 L468 192 Q467 234 466 270.5 Q465 307 465 352 L465 710 L584 710 L584 0 L440 0 L271 374 Q255 409 242 442.5 Q229 476 215 517 L213 517 Q215 475 215.5 436 Q216 397 216 356 L216 0 L98 0 L98 710 L244 710 Z M406 -152 Q406 -209 380 -234 Q354 -259 302 -269 L292 -225 Q320 -219 333.5 -208 Q347 -197 347 -170 L285 -170 L285 -74 L406 -74 L406 -152 Z " />
<glyph glyph-name="ncommaaccent" unicode="&#x146;" horiz-adv-x="580" d="M188 491 Q190 475 190.5 458 Q191 441 192 424 L194 424 Q209 456 245.5 479.5 Q282 503 336 503 Q417 503 458 454 Q499 405 499 319 L499 0 L392 0 L392 301 Q392 353 372.5 383 Q353 413 304 413 Q283 413 263.5 405 Q244 397 229 380.5 Q214 364 205.5 338.5 Q197 313 197 277 L197 0 L90 0 L90 335 Q90 371 89 411 Q88 451 85 491 L188 491 Z M351 -152 Q351 -209 325 -234 Q299 -259 247 -269 L237 -225 Q265 -219 278.5 -208 Q292 -197 292 -170 L230 -170 L230 -74 L351 -74 L351 -152 Z " />
<glyph glyph-name="Ncaron" unicode="&#x147;" horiz-adv-x="682" d="M244 710 L411 335 Q426 301 439.5 266 Q453 231 466 192 L468 192 Q467 234 466 270.5 Q465 307 465 352 L465 710 L584 710 L584 0 L440 0 L271 374 Q255 409 242 442.5 Q229 476 215 517 L213 517 Q215 475 215.5 436 Q216 397 216 356 L216 0 L98 0 L98 710 L244 710 Z M341 863 L461 948 L501 900 L341 766 L180 901 L221 948 L341 863 Z " />
<glyph glyph-name="ncaron" unicode="&#x148;" horiz-adv-x="580" d="M188 491 Q190 475 190.5 458 Q191 441 192 424 L194 424 Q209 456 245.5 479.5 Q282 503 336 503 Q417 503 458 454 Q499 405 499 319 L499 0 L392 0 L392 301 Q392 353 372.5 383 Q353 413 304 413 Q283 413 263.5 405 Q244 397 229 380.5 Q214 364 205.5 338.5 Q197 313 197 277 L197 0 L90 0 L90 335 Q90 371 89 411 Q88 451 85 491 L188 491 Z M291 645 L411 730 L451 682 L291 548 L130 683 L171 730 L291 645 Z " />
<glyph glyph-name="napostrophe" unicode="&#x149;" horiz-adv-x="580" d="M188 491 Q190 475 190.5 458 Q191 441 192 424 L194 424 Q209 456 245.5 479.5 Q282 503 336 503 Q417 503 458 454 Q499 405 499 319 L499 0 L392 0 L392 301 Q392 353 372.5 383 Q353 413 304 413 Q283 413 263.5 405 Q244 397 229 380.5 Q214 364 205.5 338.5 Q197 313 197 277 L197 0 L90 0 L90 335 Q90 371 89 411 Q88 451 85 491 L188 491 Z M208 721 Q208 664 182 639 Q156 614 104 604 L94 648 Q122 654 135.5 665 Q149 676 149 703 L87 703 L87 799 L208 799 L208 721 Z " />
<glyph glyph-name="Eng" unicode="&#x14a;" horiz-adv-x="682" d="M218 710 L404 358 Q423 323 436.5 294.5 Q450 266 465 231 L467 231 Q467 252 466.5 268 Q466 284 465.5 300 Q465 316 465 332.5 Q465 349 465 372 L465 710 L584 710 L584 -2 Q584 -52 573.5 -91.5 Q563 -131 540 -158 Q517 -185 478.5 -199.5 Q440 -214 385 -214 Q347 -214 318 -206 Q289 -198 268 -185 Q247 -172 233 -155.5 Q219 -139 211 -121 L305 -72 Q313 -89 334 -103 Q355 -117 388 -117 Q429 -117 447 -91 Q465 -65 465 -15 L465 0 L277 353 Q259 387 244 419.5 Q229 452 215 484 L213 484 Q214 442 215 409 Q216 376 216 336 L216 0 L98 0 L98 710 L218 710 Z " />
<glyph glyph-name="eng" unicode="&#x14b;" horiz-adv-x="580" d="M392 301 Q392 326 387.5 346.5 Q383 367 373 382 Q363 397 346 405 Q329 413 304 413 Q283 413 263.5 405 Q244 397 229 380.5 Q214 364 205.5 338.5 Q197 313 197 277 L197 0 L90 0 L90 335 Q90 371 89 411 Q88 451 85 491 L188 491 Q190 475 190.5 458 Q191 441 192 424 L194 424 Q209 456 245.5 479.5 Q282 503 336 503 Q417 503 458 454 Q499 405 499 319 L499 -35 Q499 -70 493 -101.5 Q487 -133 470 -157.5 Q453 -182 423 -196.5 Q393 -211 345 -211 Q301 -211 272 -201 Q243 -191 220 -179 Q228 -161 235.5 -142.5 Q243 -124 251 -106 Q271 -115 289.5 -120 Q308 -125 328 -125 Q350 -125 362.5 -119 Q375 -113 381.5 -101 Q388 -89 390 -70.5 Q392 -52 392 -26 L392 301 Z " />
<glyph glyph-name="Omacron" unicode="&#x14c;" horiz-adv-x="659" d="M597 355 Q597 268 579.5 199.5 Q562 131 528.5 83 Q495 35 445 9.5 Q395 -16 329 -16 Q263 -16 213.5 9.5 Q164 35 130 83 Q96 131 79 199.5 Q62 268 62 355 Q62 442 79 511 Q96 580 130 627.5 Q164 675 213.5 700.5 Q263 726 329 726 Q395 726 445 700.5 Q495 675 528.5 627.5 Q562 580 579.5 511 Q597 442 597 355 Z M476 355 Q476 430 465.5 481.5 Q455 533 436 565 Q417 597 389.5 611.5 Q362 626 329 626 Q296 626 268.5 611.5 Q241 597 222 565 Q203 533 192.5 481.5 Q182 430 182 355 Q182 281 192.5 229 Q203 177 222 145 Q241 113 268.5 98.5 Q296 84 329 84 Q362 84 389.5 98.5 Q417 113 436 145 Q455 177 465.5 229 Q476 281 476 355 Z M193 816 L193 886 L466 886 L466 816 L193 816 Z " />
<glyph glyph-name="omacron" unicode="&#x14d;" horiz-adv-x="561" d="M504 245 Q504 184 487.5 136 Q471 88 441.5 55 Q412 22 371 4.5 Q330 -13 280 -13 Q230 -13 189 4.5 Q148 22 119 55 Q90 88 73.5 136 Q57 184 57 245 Q57 306 73.5 354 Q90 402 119 435 Q148 468 189 485.5 Q230 503 280 503 Q330 503 371 485.5 Q412 468 441.5 435 Q471 402 487.5 354 Q504 306 504 245 Z M393 245 Q393 332 363.5 375 Q334 418 280 418 Q226 418 196.5 375 Q167 332 167 245 Q167 158 196.5 115 Q226 72 280 72 Q334 72 363.5 115 Q393 158 393 245 Z M144 602 L144 672 L417 672 L417 602 L144 602 Z " />
<glyph glyph-name="Obreve" unicode="&#x14e;" horiz-adv-x="659" d="M597 355 Q597 268 579.5 199.5 Q562 131 528.5 83 Q495 35 445 9.5 Q395 -16 329 -16 Q263 -16 213.5 9.5 Q164 35 130 83 Q96 131 79 199.5 Q62 268 62 355 Q62 442 79 511 Q96 580 130 627.5 Q164 675 213.5 700.5 Q263 726 329 726 Q395 726 445 700.5 Q495 675 528.5 627.5 Q562 580 579.5 511 Q597 442 597 355 Z M476 355 Q476 430 465.5 481.5 Q455 533 436 565 Q417 597 389.5 611.5 Q362 626 329 626 Q296 626 268.5 611.5 Q241 597 222 565 Q203 533 192.5 481.5 Q182 430 182 355 Q182 281 192.5 229 Q203 177 222 145 Q241 113 268.5 98.5 Q296 84 329 84 Q362 84 389.5 98.5 Q417 113 436 145 Q455 177 465.5 229 Q476 281 476 355 Z M329 783 Q268 783 228 813.5 Q188 844 186 912 L234 912 Q242 874 268 862 Q294 850 329 850 Q364 850 390 862 Q416 874 424 912 L471 912 Q469 844 429 813.5 Q389 783 329 783 Z " />
<glyph glyph-name="obreve" unicode="&#x14f;" horiz-adv-x="561" d="M504 245 Q504 184 487.5 136 Q471 88 441.5 55 Q412 22 371 4.5 Q330 -13 280 -13 Q230 -13 189 4.5 Q148 22 119 55 Q90 88 73.5 136 Q57 184 57 245 Q57 306 73.5 354 Q90 402 119 435 Q148 468 189 485.5 Q230 503 280 503 Q330 503 371 485.5 Q412 468 441.5 435 Q471 402 487.5 354 Q504 306 504 245 Z M393 245 Q393 332 363.5 375 Q334 418 280 418 Q226 418 196.5 375 Q167 332 167 245 Q167 158 196.5 115 Q226 72 280 72 Q334 72 363.5 115 Q393 158 393 245 Z M280 574 Q219 574 179 604.5 Q139 635 137 703 L185 703 Q193 665 219 653 Q245 641 280 641 Q315 641 341 653 Q367 665 375 703 L422 703 Q420 635 380 604.5 Q340 574 280 574 Z " />
<glyph glyph-name="Ohungarumlaut" unicode="&#x150;" horiz-adv-x="659" d="M597 355 Q597 268 579.5 199.5 Q562 131 528.5 83 Q495 35 445 9.5 Q395 -16 329 -16 Q263 -16 213.5 9.5 Q164 35 130 83 Q96 131 79 199.5 Q62 268 62 355 Q62 442 79 511 Q96 580 130 627.5 Q164 675 213.5 700.5 Q263 726 329 726 Q395 726 445 700.5 Q495 675 528.5 627.5 Q562 580 579.5 511 Q597 442 597 355 Z M476 355 Q476 430 465.5 481.5 Q455 533 436 565 Q417 597 389.5 611.5 Q362 626 329 626 Q296 626 268.5 611.5 Q241 597 222 565 Q203 533 192.5 481.5 Q182 430 182 355 Q182 281 192.5 229 Q203 177 222 145 Q241 113 268.5 98.5 Q296 84 329 84 Q362 84 389.5 98.5 Q417 113 436 145 Q455 177 465.5 229 Q476 281 476 355 Z M373 765 L346 808 L530 951 L577 868 L373 765 Z M155 765 L128 808 L312 951 L359 868 L155 765 Z " />
<glyph glyph-name="ohungarumlaut" unicode="&#x151;" horiz-adv-x="561" d="M504 245 Q504 184 487.5 136 Q471 88 441.5 55 Q412 22 371 4.5 Q330 -13 280 -13 Q230 -13 189 4.5 Q148 22 119 55 Q90 88 73.5 136 Q57 184 57 245 Q57 306 73.5 354 Q90 402 119 435 Q148 468 189 485.5 Q230 503 280 503 Q330 503 371 485.5 Q412 468 441.5 435 Q471 402 487.5 354 Q504 306 504 245 Z M393 245 Q393 332 363.5 375 Q334 418 280 418 Q226 418 196.5 375 Q167 332 167 245 Q167 158 196.5 115 Q226 72 280 72 Q334 72 363.5 115 Q393 158 393 245 Z M330 546 L303 589 L487 732 L534 649 L330 546 Z M112 546 L85 589 L269 732 L316 649 L112 546 Z " />
<glyph glyph-name="Racute" unicode="&#x154;" horiz-adv-x="651" d="M584 509 Q584 458 570.5 422 Q557 386 532 362 Q516 347 500.5 337.5 Q485 328 465 319 L594 0 L462 0 L356 298 L217 298 L217 0 L98 0 L98 710 L352 710 Q460 710 519 657 Q550 629 567 591.5 Q584 554 584 509 Z M463 502 Q463 551 435.5 582.5 Q408 614 346 614 L217 614 L217 391 L347 391 Q404 391 433.5 421.5 Q463 452 463 502 Z M213 769 L189 815 L407 955 L449 867 L213 769 Z " />
<glyph glyph-name="racute" unicode="&#x155;" horiz-adv-x="419" d="M391 391 Q378 396 366.5 397.5 Q355 399 336 399 Q308 399 281 387.5 Q254 376 236 352 Q218 328 208 293.5 Q198 259 198 200 L198 0 L91 0 L91 332 Q91 367 89 411 Q87 455 85 491 L186 491 Q188 471 189 442.5 Q190 414 191 390 L193 390 Q215 444 253.5 473.5 Q292 503 345 503 Q360 503 371 501 Q382 499 391 496 L391 391 Z M112 550 L88 596 L306 736 L348 648 L112 550 Z " />
<glyph glyph-name="Rcommaaccent" unicode="&#x156;" horiz-adv-x="651" d="M584 509 Q584 458 570.5 422 Q557 386 532 362 Q516 347 500.5 337.5 Q485 328 465 319 L594 0 L462 0 L356 298 L217 298 L217 0 L98 0 L98 710 L352 710 Q460 710 519 657 Q550 629 567 591.5 Q584 554 584 509 Z M463 502 Q463 551 435.5 582.5 Q408 614 346 614 L217 614 L217 391 L347 391 Q404 391 433.5 421.5 Q463 452 463 502 Z M390 -152 Q390 -209 364 -234 Q338 -259 286 -269 L276 -225 Q304 -219 317.5 -208 Q331 -197 331 -170 L269 -170 L269 -74 L390 -74 L390 -152 Z " />
<glyph glyph-name="rcommaaccent" unicode="&#x157;" horiz-adv-x="419" d="M391 391 Q378 396 366.5 397.5 Q355 399 336 399 Q308 399 281 387.5 Q254 376 236 352 Q218 328 208 293.5 Q198 259 198 200 L198 0 L91 0 L91 332 Q91 367 89 411 Q87 455 85 491 L186 491 Q188 471 189 442.5 Q190 414 191 390 L193 390 Q215 444 253.5 473.5 Q292 503 345 503 Q360 503 371 501 Q382 499 391 496 L391 391 Z M213 -152 Q213 -209 187 -234 Q161 -259 109 -269 L99 -225 Q127 -219 140.5 -208 Q154 -197 154 -170 L92 -170 L92 -74 L213 -74 L213 -152 Z " />
<glyph glyph-name="Rcaron" unicode="&#x158;" horiz-adv-x="651" d="M584 509 Q584 458 570.5 422 Q557 386 532 362 Q516 347 500.5 337.5 Q485 328 465 319 L594 0 L462 0 L356 298 L217 298 L217 0 L98 0 L98 710 L352 710 Q460 710 519 657 Q550 629 567 591.5 Q584 554 584 509 Z M463 502 Q463 551 435.5 582.5 Q408 614 346 614 L217 614 L217 391 L347 391 Q404 391 433.5 421.5 Q463 452 463 502 Z M319 864 L439 949 L479 901 L319 767 L158 902 L199 949 L319 864 Z " />
<glyph glyph-name="rcaron" unicode="&#x159;" horiz-adv-x="419" d="M391 391 Q378 396 366.5 397.5 Q355 399 336 399 Q308 399 281 387.5 Q254 376 236 352 Q218 328 208 293.5 Q198 259 198 200 L198 0 L91 0 L91 332 Q91 367 89 411 Q87 455 85 491 L186 491 Q188 471 189 442.5 Q190 414 191 390 L193 390 Q215 444 253.5 473.5 Q292 503 345 503 Q360 503 371 501 Q382 499 391 496 L391 391 Z M221 645 L341 730 L381 682 L221 548 L60 683 L101 730 L221 645 Z " />
<glyph glyph-name="Sacute" unicode="&#x15a;" horiz-adv-x="619" d="M558 190 Q558 142 540.5 103.5 Q523 65 490 38.5 Q457 12 411 -2 Q365 -16 308 -16 Q245 -16 199 0 Q153 16 122.5 44.5 Q92 73 77 112.5 Q62 152 61 199 L176 224 Q178 143 214 112 Q250 81 314 81 Q370 81 405 107 Q440 133 440 182 Q440 220 417 247.5 Q394 275 343 298 L225 351 Q188 367 160.5 385.5 Q133 404 114.5 426.5 Q96 449 87 477.5 Q78 506 78 542 Q78 589 96.5 623.5 Q115 658 147 681 Q179 704 221.5 715 Q264 726 312 726 Q372 726 415 710 Q458 694 485.5 667.5 Q513 641 526.5 607.5 Q540 574 541 540 L427 516 Q423 576 394 602 Q365 628 308 628 Q260 628 228 608 Q196 588 196 548 Q196 508 217.5 485 Q239 462 287 442 L400 392 Q483 355 520.5 308.5 Q558 262 558 190 Z M200 764 L176 810 L394 950 L436 862 L200 764 Z " />
<glyph glyph-name="sacute" unicode="&#x15b;" horiz-adv-x="531" d="M470 145 Q470 66 418 26.5 Q366 -13 264 -13 Q208 -13 169.5 -0.5 Q131 12 107 33 Q83 54 71.5 82 Q60 110 57 141 L166 153 Q173 103 199.5 85 Q226 67 267 67 Q314 67 336.5 85 Q359 103 359 133 Q359 166 335.5 180 Q312 194 276 204 L210 222 Q182 229 156 239 Q130 249 110.5 264.5 Q91 280 79.5 303.5 Q68 327 68 363 Q68 429 119.5 466 Q171 503 264 503 Q352 503 401 465 Q450 427 455 366 L351 354 Q346 389 326 406.5 Q306 424 261 424 Q221 424 198.5 410.5 Q176 397 176 372 Q176 343 194 330.5 Q212 318 250 308 L319 290 Q352 281 380 270 Q408 259 428 242 Q448 225 459 201.5 Q470 178 470 145 Z M154 550 L130 596 L348 736 L390 648 L154 550 Z " />
<glyph glyph-name="Scircumflex" unicode="&#x15c;" horiz-adv-x="619" d="M558 190 Q558 142 540.5 103.5 Q523 65 490 38.5 Q457 12 411 -2 Q365 -16 308 -16 Q245 -16 199 0 Q153 16 122.5 44.5 Q92 73 77 112.5 Q62 152 61 199 L176 224 Q178 143 214 112 Q250 81 314 81 Q370 81 405 107 Q440 133 440 182 Q440 220 417 247.5 Q394 275 343 298 L225 351 Q188 367 160.5 385.5 Q133 404 114.5 426.5 Q96 449 87 477.5 Q78 506 78 542 Q78 589 96.5 623.5 Q115 658 147 681 Q179 704 221.5 715 Q264 726 312 726 Q372 726 415 710 Q458 694 485.5 667.5 Q513 641 526.5 607.5 Q540 574 541 540 L427 516 Q423 576 394 602 Q365 628 308 628 Q260 628 228 608 Q196 588 196 548 Q196 508 217.5 485 Q239 462 287 442 L400 392 Q483 355 520.5 308.5 Q558 262 558 190 Z M190 766 L149 813 L310 948 L470 814 L430 766 L310 851 L190 766 Z " />
<glyph glyph-name="scircumflex" unicode="&#x15d;" horiz-adv-x="531" d="M470 145 Q470 66 418 26.5 Q366 -13 264 -13 Q208 -13 169.5 -0.5 Q131 12 107 33 Q83 54 71.5 82 Q60 110 57 141 L166 153 Q173 103 199.5 85 Q226 67 267 67 Q314 67 336.5 85 Q359 103 359 133 Q359 166 335.5 180 Q312 194 276 204 L210 222 Q182 229 156 239 Q130 249 110.5 264.5 Q91 280 79.5 303.5 Q68 327 68 363 Q68 429 119.5 466 Q171 503 264 503 Q352 503 401 465 Q450 427 455 366 L351 354 Q346 389 326 406.5 Q306 424 261 424 Q221 424 198.5 410.5 Q176 397 176 372 Q176 343 194 330.5 Q212 318 250 308 L319 290 Q352 281 380 270 Q408 259 428 242 Q448 225 459 201.5 Q470 178 470 145 Z M144 547 L103 594 L264 729 L424 595 L384 547 L264 632 L144 547 Z " />
<glyph glyph-name="Scedilla" unicode="&#x15e;" horiz-adv-x="619" d="M280 -15 Q224 -11 183.5 6 Q143 23 116 51.5 Q89 80 75.5 117.5 Q62 155 61 199 L176 224 Q178 143 214 112 Q250 81 314 81 Q370 81 405 107 Q440 133 440 182 Q440 220 417 247.5 Q394 275 343 298 L225 351 Q188 367 160.5 385.5 Q133 404 114.5 426.5 Q96 449 87 477.5 Q78 506 78 542 Q78 589 96.5 623.5 Q115 658 147 681 Q179 704 221.5 715 Q264 726 312 726 Q372 726 415 710 Q458 694 485.5 667.5 Q513 641 526.5 607.5 Q540 574 541 540 L427 516 Q423 576 394 602 Q365 628 308 628 Q260 628 228 608 Q196 588 196 548 Q196 508 217.5 485 Q239 462 287 442 L400 392 Q483 355 520.5 308.5 Q558 262 558 190 Q558 95 494 41.5 Q430 -12 321 -16 L295 -57 L296 -58 Q303 -55 312 -53 Q321 -51 335 -51 Q348 -51 361 -55 Q374 -59 384.5 -67.5 Q395 -76 401.5 -88 Q408 -100 408 -116 Q408 -158 380 -178.5 Q352 -199 301 -199 Q273 -199 249.5 -192 Q226 -185 210 -175 L227 -136 Q240 -144 258 -149.5 Q276 -155 293 -155 Q313 -155 323 -146 Q333 -137 333 -123 Q333 -106 323.5 -98.5 Q314 -91 300 -91 Q290 -91 282 -93.5 Q274 -96 266 -104 L240 -83 L280 -15 Z " />
<glyph glyph-name="scedilla" unicode="&#x15f;" horiz-adv-x="531" d="M237 -12 Q189 -9 155.5 4.5 Q122 18 101 38.5 Q80 59 69.5 85.5 Q59 112 57 141 L166 153 Q173 103 199.5 85 Q226 67 267 67 Q314 67 336.5 85 Q359 103 359 133 Q359 166 335.5 180 Q312 194 276 204 L210 222 Q182 229 156 239 Q130 249 110.5 264.5 Q91 280 79.5 303.5 Q68 327 68 363 Q68 429 119.5 466 Q171 503 264 503 Q352 503 401 465 Q450 427 455 366 L351 354 Q346 389 326 406.5 Q306 424 261 424 Q221 424 198.5 410.5 Q176 397 176 372 Q176 343 194 330.5 Q212 318 250 308 L319 290 Q352 281 380 270 Q408 259 428 242 Q448 225 459 201.5 Q470 178 470 145 Q470 69 421.5 29.5 Q373 -10 279 -13 L251 -57 L252 -58 Q259 -55 268 -53 Q277 -51 291 -51 Q304 -51 317 -55 Q330 -59 340.5 -67.5 Q351 -76 357.5 -88 Q364 -100 364 -116 Q364 -158 336 -178.5 Q308 -199 257 -199 Q229 -199 205.5 -192 Q182 -185 166 -175 L183 -136 Q196 -144 214 -149.5 Q232 -155 249 -155 Q269 -155 279 -146 Q289 -137 289 -123 Q289 -106 279.5 -98.5 Q270 -91 256 -91 Q246 -91 238 -93.5 Q230 -96 222 -104 L196 -83 L237 -12 Z " />
<glyph glyph-name="uni0162" unicode="&#x162;" horiz-adv-x="541" d="M243 0 L211 0 L211 610 L31 610 L31 710 L509 710 L509 610 L330 610 L330 0 L286 0 L250 -57 L251 -58 Q258 -55 267 -53 Q276 -51 290 -51 Q303 -51 316 -55 Q329 -59 339.5 -67.5 Q350 -76 356.5 -88 Q363 -100 363 -116 Q363 -158 335 -178.5 Q307 -199 256 -199 Q228 -199 204.5 -192 Q181 -185 165 -175 L182 -136 Q195 -144 213 -149.5 Q231 -155 248 -155 Q268 -155 278 -146 Q288 -137 288 -123 Q288 -106 278.5 -98.5 Q269 -91 255 -91 Q245 -91 237 -93.5 Q229 -96 221 -104 L195 -83 L243 0 Z " />
<glyph glyph-name="uni0163" unicode="&#x163;" horiz-adv-x="420" d="M223 -6 Q192 2 173 19.5 Q154 37 144 59.5 Q134 82 131 107 Q128 132 128 156 L128 408 L28 408 L28 491 L128 491 L128 646 L235 692 L235 491 L364 491 L364 408 L235 408 L235 169 Q235 138 238.5 119 Q242 100 249.5 90 Q257 80 268.5 76.5 Q280 73 296 73 Q318 73 336 77.5 Q354 82 374 90 Q381 71 388 53 Q395 35 403 16 Q378 4 347 -4.5 Q316 -13 278 -13 Q267 -13 262 -12 L234 -57 L235 -58 Q242 -55 251 -53 Q260 -51 274 -51 Q287 -51 300 -55 Q313 -59 323.5 -67.5 Q334 -76 340.5 -88 Q347 -100 347 -116 Q347 -158 319 -178.5 Q291 -199 240 -199 Q212 -199 188.5 -192 Q165 -185 149 -175 L166 -136 Q179 -144 197 -149.5 Q215 -155 232 -155 Q252 -155 262 -146 Q272 -137 272 -123 Q272 -106 262.5 -98.5 Q253 -91 239 -91 Q229 -91 221 -93.5 Q213 -96 205 -104 L179 -83 L223 -6 Z " />
<glyph glyph-name="Tcaron" unicode="&#x164;" horiz-adv-x="541" d="M330 610 L330 0 L211 0 L211 610 L31 610 L31 710 L509 710 L509 610 L330 610 Z M270 859 L390 944 L430 896 L270 762 L109 897 L150 944 L270 859 Z " />
<glyph glyph-name="tcaron" unicode="&#x165;" horiz-adv-x="420" d="M374 90 Q381 71 388 53 Q395 35 403 16 Q378 4 347 -4.5 Q316 -13 278 -13 Q228 -13 198.5 3 Q169 19 153.5 43.5 Q138 68 133 98 Q128 128 128 156 L128 408 L28 408 L28 491 L128 491 L128 646 L235 692 L235 491 L364 491 L364 408 L235 408 L235 169 Q235 138 238.5 119 Q242 100 249.5 90 Q257 80 268.5 76.5 Q280 73 296 73 Q318 73 336 77.5 Q354 82 374 90 Z M347 518 L296 536 L346 730 L437 693 L347 518 Z " />
<glyph glyph-name="Tbar" unicode="&#x166;" horiz-adv-x="541" d="M330 610 L330 459 L457 459 L457 389 L330 389 L330 0 L211 0 L211 389 L84 389 L84 459 L211 459 L211 610 L31 610 L31 710 L509 710 L509 610 L330 610 Z " />
<glyph glyph-name="tbar" unicode="&#x167;" horiz-adv-x="421" d="M375 90 Q382 71 389 53 Q396 35 404 16 Q379 4 348 -4.5 Q317 -13 279 -13 Q236 -13 207.5 -0.5 Q179 12 161.5 33.5 Q144 55 136.5 82.5 Q129 110 129 140 L129 243 L14 243 L14 313 L129 313 L129 408 L29 408 L29 491 L129 491 L129 646 L236 692 L236 491 L365 491 L365 408 L236 408 L236 313 L377 313 L377 243 L236 243 L236 169 Q236 138 239.5 119 Q243 100 250.5 90 Q258 80 269.5 76.5 Q281 73 297 73 Q319 73 337 77.5 Q355 82 375 90 Z " />
<glyph glyph-name="Utilde" unicode="&#x168;" horiz-adv-x="661" d="M330 -16 Q275 -16 230 1 Q185 18 153 50 Q124 79 109.5 120 Q95 161 95 221 L95 710 L214 710 L214 226 Q214 153 239 121 Q269 83 330 83 Q391 83 421 121 Q435 138 440.5 163.5 Q446 189 446 226 L446 710 L566 710 L566 221 Q566 161 551 120 Q536 79 508 50 Q476 18 430.5 1 Q385 -16 330 -16 Z M271 829 Q254 829 244.5 818.5 Q235 808 235 788 L171 788 Q171 838 198.5 871.5 Q226 905 271 905 Q294 905 311 897 Q328 889 342 878 Q355 869 365 864 Q375 859 388 859 Q405 859 414.5 870 Q424 881 424 900 L488 900 Q488 850 460.5 817 Q433 784 388 784 Q364 784 347 791.5 Q330 799 316 810 Q304 819 294 824 Q284 829 271 829 Z " />
<glyph glyph-name="utilde" unicode="&#x169;" horiz-adv-x="582" d="M394 0 Q392 13 391.5 31.5 Q391 50 390 67 L388 67 Q374 35 339.5 11.5 Q305 -12 252 -12 Q169 -12 126.5 36 Q84 84 84 169 L84 491 L191 491 L191 188 Q191 134 211 105.5 Q231 77 278 77 Q300 77 319.5 84.5 Q339 92 353.5 108.5 Q368 125 376.5 151.5 Q385 178 385 215 L385 491 L492 491 L492 155 Q492 119 493.5 78 Q495 37 497 0 L394 0 Z M232 619 Q215 619 205.5 608.5 Q196 598 196 578 L132 578 Q132 628 159.5 661.5 Q187 695 232 695 Q255 695 272 687 Q289 679 303 668 Q316 659 326 654 Q336 649 349 649 Q366 649 375.5 660 Q385 671 385 690 L449 690 Q449 640 421.5 607 Q394 574 349 574 Q325 574 308 581.5 Q291 589 277 600 Q265 609 255 614 Q245 619 232 619 Z " />
<glyph glyph-name="Umacron" unicode="&#x16a;" horiz-adv-x="661" d="M330 -16 Q275 -16 230 1 Q185 18 153 50 Q124 79 109.5 120 Q95 161 95 221 L95 710 L214 710 L214 226 Q214 153 239 121 Q269 83 330 83 Q391 83 421 121 Q435 138 440.5 163.5 Q446 189 446 226 L446 710 L566 710 L566 221 Q566 161 551 120 Q536 79 508 50 Q476 18 430.5 1 Q385 -16 330 -16 Z M194 816 L194 886 L467 886 L467 816 L194 816 Z " />
<glyph glyph-name="umacron" unicode="&#x16b;" horiz-adv-x="582" d="M394 0 Q392 13 391.5 31.5 Q391 50 390 67 L388 67 Q374 35 339.5 11.5 Q305 -12 252 -12 Q169 -12 126.5 36 Q84 84 84 169 L84 491 L191 491 L191 188 Q191 134 211 105.5 Q231 77 278 77 Q300 77 319.5 84.5 Q339 92 353.5 108.5 Q368 125 376.5 151.5 Q385 178 385 215 L385 491 L492 491 L492 155 Q492 119 493.5 78 Q495 37 497 0 L394 0 Z M154 602 L154 672 L427 672 L427 602 L154 602 Z " />
<glyph glyph-name="Ubreve" unicode="&#x16c;" horiz-adv-x="661" d="M330 -16 Q275 -16 230 1 Q185 18 153 50 Q124 79 109.5 120 Q95 161 95 221 L95 710 L214 710 L214 226 Q214 153 239 121 Q269 83 330 83 Q391 83 421 121 Q435 138 440.5 163.5 Q446 189 446 226 L446 710 L566 710 L566 221 Q566 161 551 120 Q536 79 508 50 Q476 18 430.5 1 Q385 -16 330 -16 Z M330 783 Q269 783 229 813.5 Q189 844 187 912 L235 912 Q243 874 269 862 Q295 850 330 850 Q365 850 391 862 Q417 874 425 912 L472 912 Q470 844 430 813.5 Q390 783 330 783 Z " />
<glyph glyph-name="ubreve" unicode="&#x16d;" horiz-adv-x="582" d="M394 0 Q392 13 391.5 31.5 Q391 50 390 67 L388 67 Q374 35 339.5 11.5 Q305 -12 252 -12 Q169 -12 126.5 36 Q84 84 84 169 L84 491 L191 491 L191 188 Q191 134 211 105.5 Q231 77 278 77 Q300 77 319.5 84.5 Q339 92 353.5 108.5 Q368 125 376.5 151.5 Q385 178 385 215 L385 491 L492 491 L492 155 Q492 119 493.5 78 Q495 37 497 0 L394 0 Z M290 574 Q229 574 189 604.5 Q149 635 147 703 L195 703 Q203 665 229 653 Q255 641 290 641 Q325 641 351 653 Q377 665 385 703 L432 703 Q430 635 390 604.5 Q350 574 290 574 Z " />
<glyph glyph-name="Uring" unicode="&#x16e;" horiz-adv-x="661" d="M330 -16 Q275 -16 230 1 Q185 18 153 50 Q124 79 109.5 120 Q95 161 95 221 L95 710 L214 710 L214 226 Q214 153 239 121 Q269 83 330 83 Q391 83 421 121 Q435 138 440.5 163.5 Q446 189 446 226 L446 710 L566 710 L566 221 Q566 161 551 120 Q536 79 508 50 Q476 18 430.5 1 Q385 -16 330 -16 Z M276 857 Q276 834 292 818 Q308 802 331 802 Q354 802 369.5 818 Q385 834 385 857 Q385 880 369.5 895.5 Q354 911 331 911 Q308 911 292 895.5 Q276 880 276 857 Z M225 857 Q225 879 233.5 898 Q242 917 256 931 Q270 945 289.5 953.5 Q309 962 331 962 Q353 962 372.5 953.5 Q392 945 406 931 Q420 917 428.5 898 Q437 879 437 857 Q437 835 428.5 815.5 Q420 796 405.5 781.5 Q391 767 372 758.5 Q353 750 331 750 Q309 750 290 758.5 Q271 767 256.5 781.5 Q242 796 233.5 815.5 Q225 835 225 857 Z " />
<glyph glyph-name="uring" unicode="&#x16f;" horiz-adv-x="582" d="M394 0 Q392 13 391.5 31.5 Q391 50 390 67 L388 67 Q374 35 339.5 11.5 Q305 -12 252 -12 Q169 -12 126.5 36 Q84 84 84 169 L84 491 L191 491 L191 188 Q191 134 211 105.5 Q231 77 278 77 Q300 77 319.5 84.5 Q339 92 353.5 108.5 Q368 125 376.5 151.5 Q385 178 385 215 L385 491 L492 491 L492 155 Q492 119 493.5 78 Q495 37 497 0 L394 0 Z M235 653 Q235 630 251 614 Q267 598 290 598 Q313 598 328.5 614 Q344 630 344 653 Q344 676 328.5 691.5 Q313 707 290 707 Q267 707 251 691.5 Q235 676 235 653 Z M184 653 Q184 675 192.5 694 Q201 713 215 727 Q229 741 248.5 749.5 Q268 758 290 758 Q312 758 331.5 749.5 Q351 741 365 727 Q379 713 387.5 694 Q396 675 396 653 Q396 631 387.5 611.5 Q379 592 364.5 577.5 Q350 563 331 554.5 Q312 546 290 546 Q268 546 249 554.5 Q230 563 215.5 577.5 Q201 592 192.5 611.5 Q184 631 184 653 Z " />
<glyph glyph-name="Uhungarumlaut" unicode="&#x170;" horiz-adv-x="661" d="M330 -16 Q275 -16 230 1 Q185 18 153 50 Q124 79 109.5 120 Q95 161 95 221 L95 710 L214 710 L214 226 Q214 153 239 121 Q269 83 330 83 Q391 83 421 121 Q435 138 440.5 163.5 Q446 189 446 226 L446 710 L566 710 L566 221 Q566 161 551 120 Q536 79 508 50 Q476 18 430.5 1 Q385 -16 330 -16 Z M385 764 L358 807 L542 950 L589 867 L385 764 Z M167 764 L140 807 L324 950 L371 867 L167 764 Z " />
<glyph glyph-name="uhungarumlaut" unicode="&#x171;" horiz-adv-x="582" d="M394 0 Q392 13 391.5 31.5 Q391 50 390 67 L388 67 Q374 35 339.5 11.5 Q305 -12 252 -12 Q169 -12 126.5 36 Q84 84 84 169 L84 491 L191 491 L191 188 Q191 134 211 105.5 Q231 77 278 77 Q300 77 319.5 84.5 Q339 92 353.5 108.5 Q368 125 376.5 151.5 Q385 178 385 215 L385 491 L492 491 L492 155 Q492 119 493.5 78 Q495 37 497 0 L394 0 Z M342 546 L315 589 L499 732 L546 649 L342 546 Z M124 546 L97 589 L281 732 L328 649 L124 546 Z " />
<glyph glyph-name="Uogonek" unicode="&#x172;" horiz-adv-x="661" d="M448 -147 Q428 -172 402.5 -183 Q377 -194 345 -194 Q303 -194 274.5 -176 Q246 -158 246 -117 Q246 -85 264.5 -60 Q283 -35 311 -15 Q261 -12 221.5 4 Q182 20 153 50 Q124 79 109.5 120 Q95 161 95 221 L95 710 L214 710 L214 226 Q214 153 239 121 Q269 83 330 83 Q391 83 421 121 Q435 138 440.5 163.5 Q446 189 446 226 L446 710 L566 710 L566 221 Q566 161 551 120 Q536 79 508 50 Q460 0 378 -12 Q352 -32 337.5 -54.5 Q323 -77 323 -102 Q323 -121 334.5 -131.5 Q346 -142 361 -142 Q394 -142 415 -116 L448 -147 Z " />
<glyph glyph-name="uogonek" unicode="&#x173;" horiz-adv-x="582" d="M394 0 Q392 13 391.5 31.5 Q391 50 390 67 L388 67 Q374 35 339.5 11.5 Q305 -12 252 -12 Q171 -12 127.5 35 Q84 82 84 169 L84 491 L191 491 L191 188 Q191 134 210 105.5 Q229 77 278 77 Q300 77 319.5 84.5 Q339 92 353.5 108.5 Q368 125 376.5 151.5 Q385 178 385 215 L385 491 L492 491 L492 155 Q492 119 493.5 78 Q495 37 497 0 Q463 -23 444 -48 Q425 -73 425 -102 Q425 -121 436.5 -131 Q448 -141 463 -141 Q497 -141 517 -115 L550 -147 Q512 -194 447 -194 Q405 -194 376.5 -176 Q348 -158 348 -117 Q348 -78 374 -50 Q400 -22 435 0 L394 0 Z " />
<glyph glyph-name="Wcircumflex" unicode="&#x174;" horiz-adv-x="891" d="M678 0 L555 0 L475 387 Q467 424 460 466.5 Q453 509 446 554 L444 554 Q438 509 431 468 Q424 427 416 387 L336 0 L210 0 L47 710 L168 710 L252 293 Q259 257 264 225 Q269 193 276 149 L278 149 Q284 193 289.5 225 Q295 257 302 294 L382 710 L509 710 L591 294 Q599 257 603.5 225 Q608 193 614 149 L616 149 Q622 193 627.5 225 Q633 257 640 294 L724 710 L844 710 L678 0 Z M325 766 L284 813 L445 948 L605 814 L565 766 L445 851 L325 766 Z " />
<glyph glyph-name="wcircumflex" unicode="&#x175;" horiz-adv-x="724" d="M565 0 L442 0 L387 246 Q384 259 380.5 275.5 Q377 292 374 310 Q371 328 368.5 346 Q366 364 364 379 L362 379 Q360 364 357 346 Q354 328 351 310 Q348 292 344.5 275.5 Q341 259 338 246 L285 0 L159 0 L38 491 L149 491 L205 223 Q211 194 216 165 Q221 136 225 106 L227 106 Q230 136 234.5 165 Q239 194 245 223 L298 491 L427 491 L483 223 Q489 196 493.5 166.5 Q498 137 502 105 L504 105 Q511 167 522 224 L576 491 L686 491 L565 0 Z M242 547 L201 594 L362 729 L522 595 L482 547 L362 632 L242 547 Z " />
<glyph glyph-name="Ycircumflex" unicode="&#x176;" horiz-adv-x="588" d="M356 297 L356 0 L237 0 L237 297 L17 710 L156 710 L297 427 L438 710 L571 710 L356 297 Z M174 765 L133 812 L294 947 L454 813 L414 765 L294 850 L174 765 Z " />
<glyph glyph-name="ycircumflex" unicode="&#x177;" horiz-adv-x="509" d="M270 -92 Q260 -119 247.5 -141 Q235 -163 217.5 -178.5 Q200 -194 175 -202.5 Q150 -211 114 -211 Q54 -211 -6 -175 L25 -102 Q49 -114 66.5 -120 Q84 -126 109 -126 Q130 -126 144 -115 Q158 -104 168 -86.5 Q178 -69 185.5 -46 Q193 -23 201 1 L19 491 L137 491 L223 233 Q236 192 242 170 Q248 148 253 129 L255 129 Q260 154 269 183.5 Q278 213 288 242 L369 491 L485 491 L270 -92 Z M135 547 L94 594 L255 729 L415 595 L375 547 L255 632 L135 547 Z " />
<glyph glyph-name="Zacute" unicode="&#x179;" horiz-adv-x="583" d="M55 0 L55 97 L385 611 Q367 610 348 610 L271 610 L68 610 L68 710 L519 710 L519 612 L188 99 L221 99 Q236 99 255 99.5 Q274 100 294 100 L532 100 L532 0 L55 0 Z M186 764 L162 810 L380 950 L422 862 L186 764 Z " />
<glyph glyph-name="zacute" unicode="&#x17a;" horiz-adv-x="506" d="M46 0 L46 73 L314 409 Q300 408 284 408 Q270 407 253 407 Q236 407 219 407 L65 407 L65 491 L455 491 L455 418 L188 82 Q203 82 220 83 Q234 83 250.5 83.5 Q267 84 284 84 L464 84 L464 0 L46 0 Z M148 550 L124 596 L342 736 L384 648 L148 550 Z " />
<glyph glyph-name="Zdotaccent" unicode="&#x17b;" horiz-adv-x="583" d="M55 0 L55 97 L385 611 Q367 610 348 610 L271 610 L68 610 L68 710 L519 710 L519 612 L188 99 L221 99 Q236 99 255 99.5 Q274 100 294 100 L532 100 L532 0 L55 0 Z M241 801 L241 919 L351 919 L351 801 L241 801 Z " />
<glyph glyph-name="zdotaccent" unicode="&#x17c;" horiz-adv-x="506" d="M46 0 L46 73 L314 409 Q300 408 284 408 Q270 407 253 407 Q236 407 219 407 L65 407 L65 491 L455 491 L455 418 L188 82 Q203 82 220 83 Q234 83 250.5 83.5 Q267 84 284 84 L464 84 L464 0 L46 0 Z M203 587 L203 705 L313 705 L313 587 L203 587 Z " />
<glyph glyph-name="longs" unicode="&#x17f;" horiz-adv-x="407" d="M369 623 Q349 632 333 636 Q317 640 294 640 Q274 640 262 633.5 Q250 627 243 615 Q237 604 235 585.5 Q233 567 233 542 L233 0 L126 0 L126 408 L28 408 L28 491 L126 491 L126 555 Q126 588 131.5 623 Q137 658 162 685 Q200 726 276 726 Q315 726 343.5 717 Q372 708 396 697 L369 623 Z " />
<glyph glyph-name="uniFB03" unicode="&#xfb03;" horiz-adv-x="1011" d="M815 0 L815 408 L577 408 L577 0 L470 0 L470 408 L233 408 L233 0 L126 0 L126 408 L28 408 L28 491 L126 491 L126 555 Q126 588 131.5 623 Q137 658 162 685 Q200 726 276 726 Q315 726 343.5 717 Q372 708 396 697 L369 623 Q349 632 333 636 Q317 640 294 640 Q274 640 262 633.5 Q250 627 243 615 Q237 604 235 585.5 Q233 567 233 542 L233 491 L470 491 L470 555 Q470 588 475.5 623 Q481 658 507 685 Q545 726 620 726 Q658 726 685 716.5 Q712 707 735 695 L707 624 Q690 632 674 636 Q658 640 638 640 Q618 640 606 633 Q594 626 587 615 Q581 604 579 585.5 Q577 567 577 542 L577 491 L922 491 L922 0 L815 0 Z M813 587 L813 705 L923 705 L923 587 L813 587 Z " />
<glyph glyph-name="uniFB04" unicode="&#xfb04;" horiz-adv-x="1012" d="M921 0 L814 0 L814 626 Q772 628 734.5 634 Q697 640 650 640 Q628 640 614 635.5 Q600 631 591.5 620 Q583 609 580 590 Q577 571 577 542 L577 491 L711 491 L711 408 L577 408 L577 0 L470 0 L470 408 L233 408 L233 0 L126 0 L126 408 L28 408 L28 491 L126 491 L126 555 Q126 583 130.5 613.5 Q135 644 151 669 Q167 694 196.5 710 Q226 726 276 726 Q315 726 343.5 717 Q372 708 396 697 L369 623 Q349 632 333 636 Q317 640 294 640 Q256 640 244.5 617.5 Q233 595 233 542 L233 491 L470 491 L470 555 Q470 583 475.5 613.5 Q481 644 498 669 Q515 694 547 710 Q579 726 633 726 Q667 726 696.5 722 Q726 718 758 713.5 Q790 709 829 704.5 Q868 700 921 700 L921 0 Z " />
<glyph glyph-name="uniFB00" unicode="&#xfb00;" horiz-adv-x="756" d="M577 408 L577 0 L470 0 L470 408 L233 408 L233 0 L126 0 L126 408 L28 408 L28 491 L126 491 L126 555 Q126 584 130.5 614.5 Q135 645 151 669.5 Q167 694 196.5 710 Q226 726 276 726 Q315 726 343.5 717 Q372 708 396 697 L369 623 Q349 632 333 636 Q317 640 294 640 Q256 640 244.5 617.5 Q233 595 233 542 L233 491 L470 491 L470 555 Q470 583 475 613.5 Q480 644 496 669 Q512 694 541.5 710 Q571 726 620 726 Q662 726 691.5 715.5 Q721 705 745 693 L718 622 Q698 631 680 635.5 Q662 640 638 640 Q600 640 588.5 617.5 Q577 595 577 542 L577 491 L714 491 L714 408 L577 408 Z " />
<glyph glyph-name="uni0218" unicode="&#x218;" horiz-adv-x="619" d="M558 190 Q558 142 540.5 103.5 Q523 65 490 38.5 Q457 12 411 -2 Q365 -16 308 -16 Q245 -16 199 0 Q153 16 122.5 44.5 Q92 73 77 112.5 Q62 152 61 199 L176 224 Q178 143 214 112 Q250 81 314 81 Q370 81 405 107 Q440 133 440 182 Q440 220 417 247.5 Q394 275 343 298 L225 351 Q188 367 160.5 385.5 Q133 404 114.5 426.5 Q96 449 87 477.5 Q78 506 78 542 Q78 589 96.5 623.5 Q115 658 147 681 Q179 704 221.5 715 Q264 726 312 726 Q372 726 415 710 Q458 694 485.5 667.5 Q513 641 526.5 607.5 Q540 574 541 540 L427 516 Q423 576 394 602 Q365 628 308 628 Q260 628 228 608 Q196 588 196 548 Q196 508 217.5 485 Q239 462 287 442 L400 392 Q483 355 520.5 308.5 Q558 262 558 190 Z M374 -152 Q374 -209 348 -234 Q322 -259 270 -269 L260 -225 Q288 -219 301.5 -208 Q315 -197 315 -170 L253 -170 L253 -74 L374 -74 L374 -152 Z " />
<glyph glyph-name="uni0219" unicode="&#x219;" horiz-adv-x="531" d="M470 145 Q470 66 418 26.5 Q366 -13 264 -13 Q208 -13 169.5 -0.5 Q131 12 107 33 Q83 54 71.5 82 Q60 110 57 141 L166 153 Q173 103 199.5 85 Q226 67 267 67 Q314 67 336.5 85 Q359 103 359 133 Q359 166 335.5 180 Q312 194 276 204 L210 222 Q182 229 156 239 Q130 249 110.5 264.5 Q91 280 79.5 303.5 Q68 327 68 363 Q68 429 119.5 466 Q171 503 264 503 Q352 503 401 465 Q450 427 455 366 L351 354 Q346 389 326 406.5 Q306 424 261 424 Q221 424 198.5 410.5 Q176 397 176 372 Q176 343 194 330.5 Q212 318 250 308 L319 290 Q352 281 380 270 Q408 259 428 242 Q448 225 459 201.5 Q470 178 470 145 Z M326 -152 Q326 -209 300 -234 Q274 -259 222 -269 L212 -225 Q240 -219 253.5 -208 Q267 -197 267 -170 L205 -170 L205 -74 L326 -74 L326 -152 Z " />
<glyph glyph-name="estimated" unicode="&#x212e;" horiz-adv-x="642" d="M187 246 L187 73 Q241 17 325 17 Q385 17 429.5 44 Q474 71 509 131 L542 112 Q520 78 497.5 54 Q475 30 449 14.5 Q423 -1 392.5 -8.5 Q362 -16 325 -16 Q269 -16 224 4.5 Q179 25 147 60.5 Q115 96 97.5 143.5 Q80 191 80 246 Q80 301 97.5 349 Q115 397 147 432 Q179 467 224 487.5 Q269 508 325 508 Q380 508 425 488.5 Q470 469 502.5 434.5 Q535 400 553 352 Q571 304 571 246 L187 246 Z M464 280 L464 419 Q405 476 324 476 Q242 476 187 419 L187 280 L464 280 Z " />
<glyph glyph-name="afii61289" unicode="&#x2113;" horiz-adv-x="427" d="M23 196 Q43 211 62.5 226.5 Q82 242 101 258 L101 543 Q101 588 113 621 Q125 654 145.5 676 Q166 698 194.5 709 Q223 720 256 720 Q291 720 316 709 Q341 698 357.5 679.5 Q374 661 381.5 635.5 Q389 610 389 582 Q389 535 374.5 491.5 Q360 448 333.5 407 Q307 366 270.5 327.5 Q234 289 191 252 L191 159 Q191 111 203.5 84.5 Q216 58 261 58 Q287 58 304 64 Q321 70 341 84 L374 36 Q354 22 324 6 Q294 -10 247 -10 Q203 -10 175 4.5 Q147 19 130.5 43 Q114 67 107.5 97 Q101 127 101 158 L101 182 L58 151 L23 196 Z M312 573 Q312 599 298.5 620 Q285 641 254 641 Q225 641 208 619.5 Q191 598 191 544 L191 342 Q245 399 278.5 457.5 Q312 516 312 573 Z " />
<glyph glyph-name="uni021A" unicode="&#x21a;" horiz-adv-x="541" d="M330 610 L330 0 L211 0 L211 610 L31 610 L31 710 L509 710 L509 610 L330 610 Z M331 -152 Q331 -209 305 -234 Q279 -259 227 -269 L217 -225 Q245 -219 258.5 -208 Q272 -197 272 -170 L210 -170 L210 -74 L331 -74 L331 -152 Z " />
<glyph glyph-name="uni021B" unicode="&#x21b;" horiz-adv-x="420" d="M374 90 Q381 71 388 53 Q395 35 403 16 Q378 4 347 -4.5 Q316 -13 278 -13 Q228 -13 198.5 3 Q169 19 153.5 43.5 Q138 68 133 98 Q128 128 128 156 L128 408 L28 408 L28 491 L128 491 L128 646 L235 692 L235 491 L364 491 L364 408 L235 408 L235 169 Q235 138 238.5 119 Q242 100 249.5 90 Q257 80 268.5 76.5 Q280 73 296 73 Q318 73 336 77.5 Q354 82 374 90 Z M285 -152 Q285 -209 259 -234 Q233 -259 181 -269 L171 -225 Q199 -219 212.5 -208 Q226 -197 226 -170 L164 -170 L164 -74 L285 -74 L285 -152 Z " />
<glyph glyph-name="wgrave" unicode="&#x1e81;" horiz-adv-x="724" d="M565 0 L442 0 L387 246 Q384 259 380.5 275.5 Q377 292 374 310 Q371 328 368.5 346 Q366 364 364 379 L362 379 Q360 364 357 346 Q354 328 351 310 Q348 292 344.5 275.5 Q341 259 338 246 L285 0 L159 0 L38 491 L149 491 L205 223 Q211 194 216 165 Q221 136 225 106 L227 106 Q230 136 234.5 165 Q239 194 245 223 L298 491 L427 491 L483 223 Q489 196 493.5 166.5 Q498 137 502 105 L504 105 Q511 167 522 224 L576 491 L686 491 L565 0 Z M232 648 L275 736 L492 596 L468 550 L232 648 Z " />
<glyph glyph-name="wacute" unicode="&#x1e83;" horiz-adv-x="724" d="M565 0 L442 0 L387 246 Q384 259 380.5 275.5 Q377 292 374 310 Q371 328 368.5 346 Q366 364 364 379 L362 379 Q360 364 357 346 Q354 328 351 310 Q348 292 344.5 275.5 Q341 259 338 246 L285 0 L159 0 L38 491 L149 491 L205 223 Q211 194 216 165 Q221 136 225 106 L227 106 Q230 136 234.5 165 Q239 194 245 223 L298 491 L427 491 L483 223 Q489 196 493.5 166.5 Q498 137 502 105 L504 105 Q511 167 522 224 L576 491 L686 491 L565 0 Z M255 550 L231 596 L449 736 L491 648 L255 550 Z " />
<glyph glyph-name="oslashacute" unicode="&#x1ff;" horiz-adv-x="561" d="M171 550 L147 596 L365 736 L407 648 L171 550 Z M503 245 Q503 184 486.5 136 Q470 88 440.5 55 Q411 22 370 4.5 Q329 -13 279 -13 Q209 -13 156 21 L99 -55 L58 -26 L118 55 Q88 88 72 135.5 Q56 183 56 245 Q56 306 72.5 354 Q89 402 118 435 Q147 468 188 485.5 Q229 503 279 503 Q359 503 415 458 L460 518 L501 488 L451 422 Q476 389 489.5 344.5 Q503 300 503 245 Z M166 245 Q166 213 170 188 Q174 163 182 143 L358 381 Q329 418 279 418 Q225 418 195.5 375 Q166 332 166 245 Z M392 245 Q392 269 389.5 289.5 Q387 310 382 327 L211 96 Q238 72 279 72 Q333 72 362.5 115 Q392 158 392 245 Z " />
<glyph glyph-name="wdieresis" unicode="&#x1e85;" horiz-adv-x="724" d="M565 0 L442 0 L387 246 Q384 259 380.5 275.5 Q377 292 374 310 Q371 328 368.5 346 Q366 364 364 379 L362 379 Q360 364 357 346 Q354 328 351 310 Q348 292 344.5 275.5 Q341 259 338 246 L285 0 L159 0 L38 491 L149 491 L205 223 Q211 194 216 165 Q221 136 225 106 L227 106 Q230 136 234.5 165 Q239 194 245 223 L298 491 L427 491 L483 223 Q489 196 493.5 166.5 Q498 137 502 105 L504 105 Q511 167 522 224 L576 491 L686 491 L565 0 Z M404 582 L404 699 L510 699 L510 582 L404 582 Z M213 582 L213 699 L319 699 L319 582 L213 582 Z " />
<glyph glyph-name="ygrave" unicode="&#x1ef3;" horiz-adv-x="509" d="M270 -92 Q260 -119 247.5 -141 Q235 -163 217.5 -178.5 Q200 -194 175 -202.5 Q150 -211 114 -211 Q54 -211 -6 -175 L25 -102 Q49 -114 66.5 -120 Q84 -126 109 -126 Q130 -126 144 -115 Q158 -104 168 -86.5 Q178 -69 185.5 -46 Q193 -23 201 1 L19 491 L137 491 L223 233 Q236 192 242 170 Q248 148 253 129 L255 129 Q260 154 269 183.5 Q278 213 288 242 L369 491 L485 491 L270 -92 Z M126 648 L169 736 L386 596 L362 550 L126 648 Z " />
<glyph glyph-name="aringacute" unicode="&#x1fb;" horiz-adv-x="556" d="M506 -8 Q474 -8 450 -3.5 Q426 1 409.5 11 Q393 21 382 37.5 Q371 54 364 78 Q341 40 304.5 13.5 Q268 -13 211 -13 Q179 -13 151 -4.5 Q123 4 102 22 Q81 40 69 67 Q57 94 57 131 Q57 188 93 224 Q129 260 207 281 Q214 283 229.5 287 Q245 291 262 295 Q279 299 293.5 302.5 Q308 306 313 308 Q339 315 345.5 322.5 Q352 330 352 344 L352 353 Q352 384 335 403.5 Q318 423 269 423 Q222 423 201.5 402 Q181 381 181 344 L73 353 Q74 419 124 461 Q174 503 269 503 Q321 503 357.5 492 Q394 481 416.5 461.5 Q439 442 449 414.5 Q459 387 459 354 L459 136 Q459 100 470 85 Q481 70 516 65 L506 -8 Z M352 256 Q346 250 338.5 246 Q331 242 315 237 L235 212 Q205 201 186 183.5 Q167 166 167 134 Q167 102 185 85 Q203 68 234 68 Q273 68 302 93.5 Q331 119 352 158 L352 256 Z M214 653 Q214 630 230 614 Q246 598 269 598 Q292 598 307.5 614 Q323 630 323 653 Q323 676 307.5 691.5 Q292 707 269 707 Q246 707 230 691.5 Q214 676 214 653 Z M163 653 Q163 675 171.5 694 Q180 713 194 727 Q208 741 227.5 749.5 Q247 758 269 758 Q291 758 310.5 749.5 Q330 741 344 727 Q358 713 366.5 694 Q375 675 375 653 Q375 631 366.5 611.5 Q358 592 343.5 577.5 Q329 563 310 554.5 Q291 546 269 546 Q247 546 228 554.5 Q209 563 194.5 577.5 Q180 592 171.5 611.5 Q163 631 163 653 Z M162 767 L138 813 L356 953 L398 865 L162 767 Z " />
<glyph glyph-name="aeacute" unicode="&#x1fd;" horiz-adv-x="832" d="M766 136 Q760 110 746 83.5 Q732 57 709 35.5 Q686 14 652 0.5 Q618 -13 572 -13 Q507 -13 464 14.5 Q421 42 397 90 Q375 45 328 16 Q281 -13 220 -13 Q187 -13 157.5 -3 Q128 7 105.5 26.5 Q83 46 70 74.5 Q57 103 57 139 Q57 181 74 209.5 Q91 238 119.5 255.5 Q148 273 185 280.5 Q222 288 263 288 L359 288 L359 352 Q359 384 340.5 403.5 Q322 423 273 423 Q226 423 205 402.5 Q184 382 184 344 L79 352 Q79 385 91 412.5 Q103 440 127 460 Q151 480 187 491.5 Q223 503 271 503 Q336 503 371 486 Q406 469 427 442 Q453 469 488 486 Q523 503 571 503 Q619 503 657.5 486.5 Q696 470 723 438.5 Q750 407 764.5 362.5 Q779 318 779 263 Q779 248 778.5 236 Q778 224 776 212 L463 212 Q463 145 491.5 107.5 Q520 70 574 70 Q610 70 635.5 90.5 Q661 111 671 150 L766 136 Z M672 288 Q670 351 645.5 386.5 Q621 422 568 422 Q520 422 492.5 386 Q465 350 463 288 L672 288 Z M359 213 L280 213 Q257 213 236 210.5 Q215 208 199 200 Q183 192 173 177.5 Q163 163 163 139 Q163 107 185 89 Q207 71 243 71 Q280 71 310.5 94 Q341 117 359 153 L359 213 Z M327 550 L303 596 L521 736 L563 648 L327 550 Z " />
<glyph glyph-name="Wgrave" unicode="&#x1e80;" horiz-adv-x="891" d="M678 0 L555 0 L475 387 Q467 424 460 466.5 Q453 509 446 554 L444 554 Q438 509 431 468 Q424 427 416 387 L336 0 L210 0 L47 710 L168 710 L252 293 Q259 257 264 225 Q269 193 276 149 L278 149 Q284 193 289.5 225 Q295 257 302 294 L382 710 L509 710 L591 294 Q599 257 603.5 225 Q608 193 614 149 L616 149 Q622 193 627.5 225 Q633 257 640 294 L724 710 L844 710 L678 0 Z M314 862 L357 950 L574 810 L550 764 L314 862 Z " />
<glyph glyph-name="Wacute" unicode="&#x1e82;" horiz-adv-x="891" d="M678 0 L555 0 L475 387 Q467 424 460 466.5 Q453 509 446 554 L444 554 Q438 509 431 468 Q424 427 416 387 L336 0 L210 0 L47 710 L168 710 L252 293 Q259 257 264 225 Q269 193 276 149 L278 149 Q284 193 289.5 225 Q295 257 302 294 L382 710 L509 710 L591 294 Q599 257 603.5 225 Q608 193 614 149 L616 149 Q622 193 627.5 225 Q633 257 640 294 L724 710 L844 710 L678 0 Z M338 764 L314 810 L532 950 L574 862 L338 764 Z " />
<glyph glyph-name="Wdieresis" unicode="&#x1e84;" horiz-adv-x="891" d="M678 0 L555 0 L475 387 Q467 424 460 466.5 Q453 509 446 554 L444 554 Q438 509 431 468 Q424 427 416 387 L336 0 L210 0 L47 710 L168 710 L252 293 Q259 257 264 225 Q269 193 276 149 L278 149 Q284 193 289.5 225 Q295 257 302 294 L382 710 L509 710 L591 294 Q599 257 603.5 225 Q608 193 614 149 L616 149 Q622 193 627.5 225 Q633 257 640 294 L724 710 L844 710 L678 0 Z M488 801 L488 918 L594 918 L594 801 L488 801 Z M297 801 L297 918 L403 918 L403 801 L297 801 Z " />
<glyph glyph-name="Ygrave" unicode="&#x1ef2;" horiz-adv-x="588" d="M356 297 L356 0 L237 0 L237 297 L17 710 L156 710 L297 427 L438 710 L571 710 L356 297 Z M164 867 L207 955 L424 815 L400 769 L164 867 Z " />
<glyph glyph-name="Aringacute" unicode="&#x1fa;" horiz-adv-x="617" d="M197 815 L180 858 L387 960 L413 880 L197 815 Z M460 0 L421 142 L190 142 Q180 107 170.5 71 Q161 35 150 0 L28 0 Q82 169 134 336 Q186 503 239 673 Q201 696 201 740 Q201 774 230 798 Q259 822 307 822 Q356 822 383 799 Q410 776 410 740 Q410 720 401 702.5 Q392 685 375 674 L588 0 L460 0 Z M349 405 Q338 443 326.5 485 Q315 527 307 570 L305 570 Q302 554 298.5 537.5 Q295 521 290 501.5 Q285 482 278.5 458 Q272 434 263 404 L217 239 L394 239 L349 405 Z M253 740 Q253 726 265.5 718 Q278 710 307 710 L311 710 Q337 710 348.5 718 Q360 726 360 740 Q360 754 348 763 Q336 772 307 772 Q278 772 265.5 763 Q253 754 253 740 Z " />
<glyph glyph-name="AEacute" unicode="&#x1fc;" horiz-adv-x="819" d="M355 710 L773 710 L773 611 L497 611 L497 413 L718 413 L718 318 L497 318 L497 98 L773 98 L773 0 L383 0 L383 148 L217 148 L151 0 L23 0 L355 710 Z M383 525 L380 525 Q373 507 365.5 489.5 Q358 472 345 442.5 Q332 413 311.5 366 Q291 319 258 242 L383 242 L383 525 Z M417 764 L393 810 L611 950 L653 862 L417 764 Z " />
<glyph glyph-name="Oslashacute" unicode="&#x1fe;" horiz-adv-x="659" d="M216 764 L192 810 L410 950 L452 862 L216 764 Z M544 601 Q597 509 597 355 Q597 268 579.5 199.5 Q562 131 528.5 83 Q495 35 445 9.5 Q395 -16 329 -16 Q270 -16 224.5 4.5 Q179 25 146 63 L104 6 L60 37 L113 110 Q87 156 74.5 218 Q62 280 62 355 Q62 442 79 511 Q96 580 130 627.5 Q164 675 213.5 700.5 Q263 726 329 726 Q444 726 511 648 L555 707 L599 675 L544 601 Z M182 355 Q182 314 185.5 280.5 Q189 247 195 220 L442 554 Q422 593 393.5 610 Q365 627 329 627 Q296 627 268.5 612.5 Q241 598 222 565.5 Q203 533 192.5 481.5 Q182 430 182 355 Z M476 355 Q476 397 472.5 430.5 Q469 464 463 491 L216 157 Q235 118 264 100.5 Q293 83 329 83 Q362 83 389.5 97.5 Q417 112 436 144.5 Q455 177 465.5 229 Q476 281 476 355 Z " />
<glyph glyph-name="Imacron" unicode="&#x12a;" horiz-adv-x="319" d="M100 0 L100 710 L219 710 L219 0 L100 0 Z M23 816 L23 886 L296 886 L296 816 L23 816 Z " />
<glyph glyph-name="uni2117" unicode="&#x2117;" horiz-adv-x="860" d="M379 318 L379 132 L307 132 L307 584 L464 584 Q495 584 522.5 575 Q550 566 571 549.5 Q592 533 604 509 Q616 485 616 455 Q616 392 576.5 355 Q537 318 467 318 L379 318 Z M542 451 Q542 483 520.5 501 Q499 519 461 519 L379 519 L379 383 L458 383 Q493 383 517.5 398 Q542 413 542 451 Z M119 355 Q119 289 143 231.5 Q167 174 209 132 Q251 90 307.5 65.5 Q364 41 430 41 Q495 41 552 65.5 Q609 90 651 132 Q693 174 717 231.5 Q741 289 741 355 Q741 421 717 478.5 Q693 536 651 578 Q609 620 552 644.5 Q495 669 430 669 Q364 669 307.5 644.5 Q251 620 209 578 Q167 536 143 478.5 Q119 421 119 355 Z M57 355 Q57 433 85.5 500.5 Q114 568 164.5 618 Q215 668 283 696.5 Q351 725 430 725 Q508 725 576.5 696.5 Q645 668 695 618 Q745 568 774 500.5 Q803 433 803 355 Q803 277 774 209.5 Q745 142 695 92 Q645 42 576.5 13.5 Q508 -15 430 -15 Q351 -15 283 13.5 Q215 42 164.5 92 Q114 142 85.5 209.5 Q57 277 57 355 Z " />
<glyph glyph-name="afii61352" unicode="&#x2116;" horiz-adv-x="1024" d="M244 710 L411 335 Q426 301 439.5 266 Q453 231 466 192 L468 192 Q467 234 466 270.5 Q465 307 465 352 L465 710 L584 710 L584 0 L440 0 L271 374 Q255 409 242 442.5 Q229 476 215 517 L213 517 Q215 475 215.5 436 Q216 397 216 356 L216 0 L98 0 L98 710 L244 710 Z M947 564 Q947 528 936 500 Q925 472 906.5 452.5 Q888 433 862.5 423 Q837 413 807 413 Q778 413 752.5 423 Q727 433 708 452.5 Q689 472 678 500 Q667 528 667 564 Q667 600 678 628 Q689 656 708 675.5 Q727 695 752.5 705.5 Q778 716 807 716 Q837 716 862.5 705.5 Q888 695 906.5 675.5 Q925 656 936 628 Q947 600 947 564 Z M744 564 Q744 519 761.5 497.5 Q779 476 807 476 Q835 476 852.5 497.5 Q870 519 870 564 Q870 609 852.5 631 Q835 653 807 653 Q779 653 761.5 631 Q744 609 744 564 Z M672 357 L942 357 L942 288 L672 288 L672 357 Z " />
<glyph glyph-name="arrowleft" unicode="&#x2190;" horiz-adv-x="865" d="M811 309 L355 309 Q327 309 293 309.5 Q259 310 233 311 Q248 300 268 284.5 Q288 269 308 253 L412 167 L356 100 L51 354 L356 608 L412 542 L308 456 Q288 439 268 423.5 Q248 408 233 397 Q259 398 293 398.5 Q327 399 355 399 L811 399 L811 309 Z " />
<glyph glyph-name="arrowup" unicode="&#x2191;" horiz-adv-x="865" d="M387 0 L387 430 Q387 458 387.5 492 Q388 526 389 553 Q378 537 362.5 517.5 Q347 498 331 478 L245 373 L178 429 L432 734 L686 429 L620 373 L534 478 Q517 498 501.5 517.5 Q486 537 475 553 Q476 526 476.5 492 Q477 458 477 430 L477 0 L387 0 Z " />
<glyph glyph-name="arrowright" unicode="&#x2192;" horiz-adv-x="865" d="M53 399 L509 399 Q537 399 571 398.5 Q605 398 632 397 Q616 408 596.5 423.5 Q577 439 557 456 L452 542 L508 608 L813 354 L508 100 L452 167 L557 253 Q577 269 596.5 284.5 Q616 300 632 311 Q605 310 571 309.5 Q537 309 509 309 L53 309 L53 399 Z " />
<glyph glyph-name="arrowdown" unicode="&#x2193;" horiz-adv-x="865" d="M477 710 L477 278 Q477 250 476.5 216 Q476 182 475 156 Q486 171 501.5 191 Q517 211 534 231 L620 335 L686 279 L432 -26 L178 279 L245 335 L331 231 Q347 211 362.5 191 Q378 171 389 156 Q388 182 387.5 216 Q387 250 387 278 L387 710 L477 710 Z " />
<glyph glyph-name="uni21B0" unicode="&#x21b0;" horiz-adv-x="865" d="M811 111 L721 111 L721 309 L387 309 Q352 309 309 309 Q266 309 233 311 Q270 283 317.5 244 Q365 205 412 167 L356 100 Q280 164 204 227.5 Q128 291 51 354 L356 608 Q370 591 384 575 Q398 559 412 542 L308 456 Q288 439 268 423.5 Q248 408 233 397 Q259 398 293 398.5 Q327 399 355 399 L811 399 L811 111 Z " />
<glyph glyph-name="uni21B1" unicode="&#x21b1;" horiz-adv-x="865" d="M53 399 L509 399 Q537 399 571 398.5 Q605 398 632 397 Q620 405 606.5 416 Q593 427 579 438 L452 542 Q466 559 480 575 Q494 591 508 608 Q585 545 661 481.5 Q737 418 813 354 L508 100 L452 167 L557 253 Q577 269 596.5 284.5 Q616 300 632 311 Q598 309 555.5 309 Q513 309 478 309 L144 309 L144 111 L53 111 L53 399 Z " />
<glyph glyph-name="uni21B3" unicode="&#x21b3;" horiz-adv-x="865" d="M61 597 L152 597 L152 399 L517 399 Q545 399 579 398.5 Q613 398 640 397 Q621 411 595 432.5 Q569 454 546 472 L460 542 Q474 559 488 575 Q502 591 516 608 Q593 545 669 481.5 Q745 418 821 354 L516 100 L460 167 L565 253 Q585 269 602.5 284 Q620 299 640 312 Q613 311 579 310.5 Q545 310 517 310 L61 310 L61 597 Z " />
<glyph glyph-name="uni21B4" unicode="&#x21b4;" horiz-adv-x="865" d="M477 710 L477 316 Q477 280 476 235.5 Q475 191 475 156 Q486 171 501.5 191 Q517 211 534 231 L620 335 Q637 321 653 307 Q669 293 686 279 L432 -25 L178 279 L245 335 L331 231 Q347 211 362.5 191 Q378 171 389 156 Q387 191 387 235.5 Q387 280 387 316 L387 619 L189 619 L189 710 L477 710 Z " />
<glyph glyph-name="uni21A5" unicode="&#x21a5;" horiz-adv-x="865" d="M189 0 L189 90 L387 90 L387 430 Q387 458 387.5 492 Q388 526 389 553 Q378 537 362.5 517.5 Q347 498 331 478 L245 373 L178 429 L432 734 Q496 658 559.5 582 Q623 506 686 429 Q669 415 653 401 Q637 387 620 373 L534 478 Q517 498 501.5 517.5 Q486 537 475 553 Q475 518 476 473.5 Q477 429 477 392 L477 90 L673 90 L673 0 L189 0 Z " />
<glyph glyph-name="uni21A4" unicode="&#x21a4;" horiz-adv-x="865" d="M811 111 L721 111 L721 309 L355 309 Q327 309 293 309.5 Q259 310 233 311 Q248 300 268 284.5 Q288 269 308 253 L412 167 L356 100 Q280 164 204 227.5 Q128 291 51 354 L356 608 Q370 591 384 575 Q398 559 412 542 L308 456 Q288 439 268 423.5 Q248 408 233 397 Q259 398 293 398.5 Q327 399 355 399 L721 399 L721 595 L811 595 L811 111 Z " />
<glyph glyph-name="uni21B2" unicode="&#x21b2;" horiz-adv-x="865" d="M811 310 L355 310 Q327 310 293 310.5 Q259 311 233 312 Q238 309 249 300.5 Q260 292 272 283 Q284 274 294.5 265.5 Q305 257 309 254 L412 167 L356 100 Q280 164 204 227.5 Q128 291 51 354 L356 608 Q370 591 384 575 Q398 559 412 542 L308 456 Q288 439 268 423.5 Q248 408 233 397 Q259 398 293 398.5 Q327 399 355 399 L721 399 L721 597 L811 597 L811 310 Z " />
<glyph glyph-name="uni21A6" unicode="&#x21a6;" horiz-adv-x="865" d="M53 595 L144 595 L144 399 L509 399 Q537 399 571 398.5 Q605 398 632 397 Q613 411 587 432.5 Q561 454 538 472 L452 542 Q466 559 480 575 Q494 591 508 608 Q585 545 661 481.5 Q737 418 813 354 L508 100 L452 167 L557 253 Q577 269 596.5 284.5 Q616 300 632 311 Q598 309 555.5 309 Q513 309 478 309 L144 309 L144 111 L53 111 L53 595 Z " />
<glyph glyph-name="uni21A7" unicode="&#x21a7;" horiz-adv-x="865" d="M673 710 L673 619 L477 619 L477 279 Q477 251 476.5 217 Q476 183 475 157 Q486 172 501.5 192 Q517 212 534 232 L620 336 Q637 322 653 308 Q669 294 686 280 L432 -24 L178 280 L245 336 L331 232 Q347 212 362.5 192 Q378 172 389 157 Q387 192 387 236.5 Q387 281 387 317 L387 619 L189 619 L189 710 L673 710 Z " />
<glyph glyph-name="uni2196" unicode="&#x2196;" horiz-adv-x="865" d="M668 53 L345 376 Q325 396 302 420 Q279 444 261 464 L273 370 L285 235 L198 227 L162 623 L558 587 L551 500 L416 513 Q390 515 365 518.5 Q340 522 321 524 Q341 506 365 483 Q389 460 409 440 L732 117 L668 53 Z " />
<glyph glyph-name="uni2197" unicode="&#x2197;" horiz-adv-x="865" d="M162 117 L485 440 Q505 460 529 483 Q553 506 573 524 L479 512 L344 500 L336 587 L732 623 L696 227 L609 234 L622 369 Q624 395 627.5 420 Q631 445 633 464 Q615 444 592 420 Q569 396 549 376 L226 53 L162 117 Z " />
<glyph glyph-name="uni2198" unicode="&#x2198;" horiz-adv-x="865" d="M226 623 L549 300 Q569 280 592 256 Q615 232 633 212 L621 306 L609 441 L696 449 L732 53 L336 89 L343 176 L478 163 Q504 161 529 157.5 Q554 154 573 152 Q553 170 529 193 Q505 216 485 236 L162 559 L226 623 Z " />
<glyph glyph-name="uni2199" unicode="&#x2199;" horiz-adv-x="865" d="M732 559 L409 236 Q389 216 365 193 Q341 170 321 152 L415 164 L550 176 L558 89 L162 53 L198 449 L285 442 L272 307 Q270 281 266.5 256 Q263 231 261 212 Q279 232 302 256 Q325 280 345 300 L668 623 L732 559 Z " />
<glyph glyph-name="uni2219" unicode="&#x2219;" horiz-adv-x="276" d="M70 202 L70 326 L191 326 L191 202 L70 202 Z " />
<glyph glyph-name="uni2224" unicode="&#x2224;" horiz-adv-x="276" d="M70 202 L70 326 L191 326 L191 202 L70 202 Z " />
<glyph glyph-name="logicaland" unicode="&#x2227;" horiz-adv-x="276" d="M70 202 L70 326 L191 326 L191 202 L70 202 Z " />
<glyph glyph-name="dotmath" unicode="&#x22c5;" horiz-adv-x="276" d="M70 202 L70 326 L191 326 L191 202 L70 202 Z " />
<glyph glyph-name="enspace" unicode="&#x2002;" horiz-adv-x="500" d="" />
<glyph glyph-name="emspace" unicode="&#x2003;" horiz-adv-x="1000" d="" />
<glyph glyph-name="threeperemspace" unicode="&#x2004;" horiz-adv-x="333" d="" />
<glyph glyph-name="fourperemspace" unicode="&#x2005;" horiz-adv-x="250" d="" />
<glyph glyph-name="thinspace" unicode="&#x2009;" horiz-adv-x="133" d="" />
<glyph glyph-name="hairspace" unicode="&#x200a;" horiz-adv-x="75" d="" />
<glyph glyph-name="uni03BC" unicode="&#x3bc;" horiz-adv-x="585" d="M272 -13 Q250 -13 228 -3.5 Q206 6 195 21 L193 21 Q193 12 193.5 -11.5 Q194 -35 194 -61 L194 -200 L88 -200 L88 491 L195 491 L195 187 Q195 127 217 102 Q239 77 282 77 Q328 77 358.5 108 Q389 139 389 210 L389 491 L496 491 L496 154 Q496 118 497.5 77.5 Q499 37 501 0 L398 0 L394 66 L392 66 Q378 34 349 10.5 Q320 -13 272 -13 Z " />
<glyph glyph-name="uni0394" unicode="&#x394;" horiz-adv-x="614" d="M5 -1 L255 710 L338 710 L592 -1 L5 -1 Z M297 540 L145 91 L451 91 L297 540 Z " />
<glyph glyph-name="Scaron" unicode="&#x160;" horiz-adv-x="619" d="M558 190 Q558 142 540.5 103.5 Q523 65 490 38.5 Q457 12 411 -2 Q365 -16 308 -16 Q245 -16 199 0 Q153 16 122.5 44.5 Q92 73 77 112.5 Q62 152 61 199 L176 224 Q178 143 214 112 Q250 81 314 81 Q370 81 405 107 Q440 133 440 182 Q440 220 417 247.5 Q394 275 343 298 L225 351 Q188 367 160.5 385.5 Q133 404 114.5 426.5 Q96 449 87 477.5 Q78 506 78 542 Q78 589 96.5 623.5 Q115 658 147 681 Q179 704 221.5 715 Q264 726 312 726 Q372 726 415 710 Q458 694 485.5 667.5 Q513 641 526.5 607.5 Q540 574 541 540 L427 516 Q423 576 394 602 Q365 628 308 628 Q260 628 228 608 Q196 588 196 548 Q196 508 217.5 485 Q239 462 287 442 L400 392 Q483 355 520.5 308.5 Q558 262 558 190 Z M313 860 L433 945 L473 897 L313 763 L152 898 L193 945 L313 860 Z " />
<glyph glyph-name="uni00A0" unicode="&#xa0;" horiz-adv-x="300" d="" />
</font>
</svg>
